<svg width="71" height="58" viewBox="0 0 71 58" fill="none" xmlns="http://www.w3.org/2000/svg">
  <path d="M2 2H47L69 23.6V56H24L2 34.4V2Z" fill="#344F96" />
  <path fillRule="evenodd" clipRule="evenodd"
    d="M0 0H47.8177L71 22.7608V58H23.1823L0 35.2392V0ZM2 2V34.4L24 56H69V23.6L47 2H2Z"
    fill="#71D4FF" />
  <path d="M2 2L46.5 1L69 23V29H34.5L2 2Z" fill="#71D4FF" />
  <path d="M23.5 57H46.5H69.5L70 29H34.5L18.25 42.5L13.5 46.5L23.5 57Z" fill="#2089B7" />
  <path fillRule="evenodd" clipRule="evenodd"
    d="M0 0H47.8177L71 22.7608V58H23.1823L0 35.2392V0ZM2 2V34.4L24 56H69V23.6L47 2H2Z"
    fill="#71D4FF" />
</svg>