<svg width="71" height="58" viewBox="0 0 71 58" fill="none" xmlns="http://www.w3.org/2000/svg">
  <path
    d="M2 1H1V2V34.4V34.8196L1.29941 35.1136L23.2994 56.7136L23.5912 57H24H69H70V56V23.6V23.1804L69.7006 22.8864L47.7006 1.28644L47.4088 1H47H2Z"
    fill="#71D4FF" stroke="#71D4FF" strokeWidth="2" />
  <path d="M39 2H31V56H39V2Z" fill="#2C7B9E" />
  <path d="M69 25.0001L2 25V33H69V25.0001Z" fill="#2C7B9E" />
  <path d="M0 19V8L17 21H0V19Z" fill="#344F96" />
  <path d="M0 5.5V2H1.5L25 21H20L0 5.5Z" fill="#2C7B9E" />
  <path d="M28 2V13V21L4.5 2H28Z" fill="#344F96" />
  <path d="M70 39V50L53 37H70V39Z" fill="#344F96" />
  <path d="M70 52.5V56H68.5L45 37H50L70 52.5Z" fill="#2C7B9E" />
  <path d="M42 56V45V37L65.5 56H42Z" fill="#344F96" />
  <path d="M3 38L6 40L8.50034 43L16.5003 37H2L3 38Z" fill="#344F96" />
  <path d="M10.5 44L12.0002 47L12.7501 46.5L24.5001 37H19.5001L10.5 44Z" fill="#2C7B9E" />
  <path d="M28 56V37L15.75 46.5L14 48L22 56L24 57H27L28 56Z" fill="#344F96" />
  <path d="M68 21L62 14L52.9997 21L68 21Z" fill="#344F96" />
  <path d="M60 13L57.5 11L44.9996 21L49.9996 21L60 13Z" fill="#2C7B9E" />
  <path d="M42 2V13L42 21L53.75 11.5L56.6875 9.125L48.5 1L45.5 1L42.5 1L42 2Z" fill="#344F96" />
  <path
    d="M2 1H1V2V34.4V34.8196L1.29941 35.1136L23.2994 56.7136L23.5912 57H24H69H70V56V23.6V23.1804L69.7006 22.8864L47.7006 1.28644L47.4088 1H47H2Z"
    stroke="#71D4FF" strokeWidth="2" />
</svg>