<svg width="25" height="181" viewBox="0 0 25 181" fill="none" xmlns="http://www.w3.org/2000/svg">
  <path d="M0 0H2H25V11H23V2H2V11H0V0Z" fill="#38BDF8" />
  <rect x="5" y="5" width="15" height="3" fill="#38BDF8" />
  <rect x="5" y="11" width="15" height="3" fill="#38BDF8" />
  <rect x="5" y="17" width="15" height="3" fill="#38BDF8" />
  <rect x="5" y="23" width="15" height="3" fill="#38BDF8" />
  <rect x="5" y="29" width="15" height="3" fill="#38BDF8" />
  <rect x="5" y="35" width="15" height="3" fill="#38BDF8" />
  <rect x="5" y="41" width="15" height="3" fill="#38BDF8" />
  <rect x="5" y="47" width="15" height="3" fill="#38BDF8" />
  <rect x="5" y="53" width="15" height="3" fill="#38BDF8" />
  <rect x="5" y="59" width="15" height="3" fill="#38BDF8" />
  <rect x="5" y="65" width="15" height="3" fill="#38BDF8" />
  <rect x="5" y="71" width="15" height="3" fill="#38BDF8" />
  <rect x="5" y="77" width="15" height="3" fill="#38BDF8" />
  <rect x="5" y="83" width="15" height="3" fill="#38BDF8" />
  <rect x="5" y="89" width="15" height="3" fill="#38BDF8" />
  <rect x="5" y="95" width="15" height="3" fill="#38BDF8" />
  <rect x="5" y="101" width="15" height="3" fill="#38BDF8" />
  <rect x="5" y="107" width="15" height="3" fill="#38BDF8" />
  <rect x="5" y="113" width="15" height="3" fill="#38BDF8" />
  <rect x="5" y="119" width="15" height="3" fill="#38BDF8" />
  <path d="M23.0002 179V170H25.0002V181H0V170H2V179H23.0002Z" fill="#38BDF8" />
  <rect x="5" y="125" width="15" height="3" fill="#38BDF8" />
  <rect x="5" y="131" width="15" height="3" fill="#38BDF8" />
  <rect x="5" y="137" width="15" height="3" fill="#38BDF8" />
  <rect x="5" y="143" width="15" height="3" fill="#38BDF8" />
  <rect x="5" y="149" width="15" height="3" fill="#38BDF8" />
  <rect x="5" y="155" width="15" height="3" fill="#38BDF8" />
  <rect x="5" y="161" width="15" height="3" fill="#38BDF8" />
  <rect x="5" y="167" width="15" height="3" fill="#38BDF8" />
  <rect x="5" y="173" width="15" height="3" fill="#38BDF8" />
</svg>