<svg width="40" height="41" viewBox="0 0 40 41" fill="none" xmlns="http://www.w3.org/2000/svg">
<path d="M36.675 23.7904L39.9578 9.34596C40.1949 8.30305 39.4022 7.30992 38.3326 7.30992H11.0561L10.4196 4.19812C10.261 3.42249 9.57847 2.86548 8.78674 2.86548H1.66667C0.746181 2.86548 0 3.61166 0 4.53215V5.64326C0 6.56374 0.746181 7.30992 1.66667 7.30992H6.51965L11.398 31.1596C10.2309 31.8308 9.44444 33.0892 9.44444 34.5321C9.44444 36.6799 11.1856 38.421 13.3333 38.421C15.4811 38.421 17.2222 36.6799 17.2222 34.5321C17.2222 33.4437 16.7745 32.4603 16.0539 31.7544H30.6127C29.8922 32.4603 29.4444 33.4437 29.4444 34.5321C29.4444 36.6799 31.1856 38.421 33.3333 38.421C35.4811 38.421 37.2222 36.6799 37.2222 34.5321C37.2222 32.9924 36.3272 31.6619 35.0292 31.0318L35.4124 29.346C35.6494 28.303 34.8567 27.3099 33.7872 27.3099H15.147L14.6925 25.0877H35.0498C35.828 25.0877 36.5026 24.5492 36.675 23.7904Z" fill="#0F1524"/>
</svg>
