<svg width="40" height="40" viewBox="0 0 40 40" fill="none" xmlns="http://www.w3.org/2000/svg">
<g clip-path="url(#clip0_1112_401)">
<path d="M7.35575 36.2438C5.50746 32.9835 6.76478 27.8709 10.5889 24.0463C14.932 19.704 20.9364 18.6689 24.002 21.7342C24.0053 21.7381 24.0091 21.7424 24.0138 21.7466C23.4002 23.5319 21.4459 27.3296 15.5894 29.3831C10.2238 31.2649 8.15443 34.2577 7.35575 36.2438ZM22.1971 26.7431C20.7964 28.1449 18.8056 29.5206 15.9855 30.5103C10.2623 32.5169 8.66334 35.803 8.21711 37.3942C8.23871 37.4158 8.25617 37.4384 8.27646 37.4583C11.3418 40.5239 17.347 39.4886 21.689 35.1463C25.5529 31.2824 26.7958 26.104 24.8641 22.8494C24.3992 23.9334 23.5905 25.3495 22.1971 26.7431ZM10.3538 12.6206C16.5365 13.1624 19.8812 10.5063 21.1753 9.13275C21.1731 9.1273 21.1715 9.12114 21.1698 9.11619C19.6396 5.0606 13.7415 3.53015 7.99597 5.69799C2.93599 7.60734 -0.316583 11.7479 0.0244701 15.4799C1.57066 13.9997 4.6893 12.1251 10.3538 12.6206ZM13.5375 20.3855C18.6506 18.4568 21.9154 14.2499 21.4963 10.4882C20.626 11.2846 19.3056 12.2423 17.462 12.9381C15.6084 13.6374 13.2273 14.0715 10.2504 13.8108C4.20916 13.2811 1.39756 15.6168 0.334839 16.8838C0.345639 16.912 0.353209 16.9396 0.363 16.9661C1.89345 21.0228 7.79178 22.5538 13.5375 20.3855ZM31.431 11.9281C35.1405 6.95118 34.6372 2.70946 34.1479 0.886913C34.1423 0.886307 34.1367 0.884188 34.1315 0.882977C29.8763 0.0545175 25.4756 4.26979 24.3018 10.2971C23.2682 15.6069 25.0835 20.5486 28.438 22.2192C27.9907 20.1259 28.0343 16.4878 31.431 11.9281ZM35.4701 1.32597C35.6909 2.48529 35.812 4.11183 35.4354 6.0455C35.0571 7.99069 34.1749 10.2446 32.3898 12.6412C28.7656 17.5036 29.2759 21.1223 29.7958 22.692C29.8255 22.6982 29.8532 22.7057 29.8807 22.7118C34.1362 23.5402 38.5365 19.3257 39.7101 13.2978C40.7552 7.93376 38.8905 2.94474 35.4701 1.32597Z" fill="#0F1524"/>
</g>
<defs>
<clipPath id="clip0_1112_401">
<rect width="40" height="40" fill="white"/>
</clipPath>
</defs>
</svg>
