<svg width="40" height="40" viewBox="0 0 40 40" fill="none" xmlns="http://www.w3.org/2000/svg">
<g clipPath="url(#clip0_1112_413)">
<path d="M39.6741 15.6902L38.1026 14.1187C37.6685 13.6847 36.965 13.6847 36.531 14.1187L35.7456 14.9041L33.7387 12.8972C34.1296 11.4173 33.7637 9.77911 32.6032 8.61869L29.4609 5.47633C25.122 1.13745 18.0866 1.13745 13.747 5.47633L20.0324 8.61869V9.92078C20.0324 11.0992 20.5005 12.2298 21.3345 13.0631L24.747 16.4756C25.9074 17.6361 27.5456 18.002 29.0255 17.6111L31.0324 19.618L30.247 20.4034C29.813 20.8374 29.813 21.5409 30.247 21.9749L31.8185 23.5465C32.2525 23.9805 32.956 23.9805 33.39 23.5465L39.6755 17.2611C40.1081 16.8277 40.1081 16.1242 39.6741 15.6902ZM19.763 14.6347C19.506 14.3777 19.288 14.0937 19.0789 13.8048L1.36366 30.3444C-0.412036 32.0027 -0.459952 34.802 1.25741 36.5201C2.97477 38.2381 5.77477 38.1902 7.4331 36.4138L23.9699 18.7006C23.6949 18.4986 23.4213 18.293 23.1755 18.0472L19.763 14.6347Z" fill="#0F1524"/>
</g>
<defs>
<clipPath id="clip0_1112_413">
<rect width="40" height="40" fill="white"/>
</clipPath>
</defs>
</svg>
