<svg width="41" height="40" viewBox="0 0 41 40" fill="none" xmlns="http://www.w3.org/2000/svg">
<g clipPath="url(#clip0_1112_423)">
<path d="M13.7645 35.4962C13.7652 35.9876 13.9105 36.4688 14.1832 36.8782L15.5184 38.8852C15.7464 39.2283 16.0558 39.5097 16.4189 39.7043C16.782 39.899 17.1876 40.0008 17.5996 40.0008H22.4207C22.8327 40.0008 23.2383 39.899 23.6014 39.7043C23.9645 39.5097 24.2739 39.2283 24.502 38.8852L25.8371 36.8782C26.1096 36.4688 26.2553 35.988 26.2559 35.4962L26.259 32.5001H13.7605L13.7645 35.4962ZM6.25977 13.7501C6.25977 17.2165 7.54492 20.379 9.66289 22.7954C10.9535 24.268 12.9723 27.3446 13.7418 29.9399C13.7449 29.9602 13.7473 29.9805 13.7504 30.0008H26.2691C26.2723 29.9805 26.2746 29.961 26.2777 29.9399C27.0473 27.3446 29.066 24.268 30.3566 22.7954C32.4746 20.379 33.7598 17.2165 33.7598 13.7501C33.7598 6.14147 27.5809 -0.0233709 19.9668 6.66077e-05C11.9973 0.0242854 6.25977 6.4821 6.25977 13.7501ZM20.0098 7.50007C16.5637 7.50007 13.7598 10.304 13.7598 13.7501C13.7598 14.4407 13.2004 15.0001 12.5098 15.0001C11.8191 15.0001 11.2598 14.4407 11.2598 13.7501C11.2598 8.92507 15.1848 5.00007 20.0098 5.00007C20.7004 5.00007 21.2598 5.55944 21.2598 6.25007C21.2598 6.94069 20.7004 7.50007 20.0098 7.50007Z" fill="#0F1524"/>
</g>
<defs>
<clipPath id="clip0_1112_423">
<rect width="40" height="40" fill="white" transform="translate(0.00976562)"/>
</clipPath>
</defs>
</svg>
