<svg width="40" height="40" viewBox="0 0 40 40" fill="none" xmlns="http://www.w3.org/2000/svg">
<g clipPath="url(#clip0_1112_427)">
<path d="M12.6736 24.9623C12.5036 24.9766 12.3341 24.984 12.1641 24.984C11.6992 24.984 11.247 24.9165 10.8042 24.814L0.557859 35.0606C0.0549323 35.5628 0.0549323 36.3785 0.557859 36.8808L3.2097 39.5333C3.71263 40.0356 4.52745 40.0356 5.02899 39.5333L17.3437 27.2209L15.0615 24.7585L12.6736 24.9623Z" fill="#0F1524"/>
<path d="M39.6383 8.54668C39.1574 8.06605 38.3792 8.06605 37.8984 8.54668L31.2583 15.1866C30.63 15.8142 29.6123 15.8142 28.984 15.1866C28.3585 14.5594 28.3585 13.5425 28.984 12.9156L35.5913 6.30972C36.0904 5.81006 36.0904 5.00006 35.5913 4.49925C35.0897 4.00025 34.28 4.00025 33.7809 4.49925L27.1763 11.1044C26.548 11.7327 25.5315 11.7327 24.9032 11.1044C24.2762 10.4775 24.2762 9.45992 24.9032 8.83351L31.5419 2.19427C32.0241 1.7129 32.0241 0.933193 31.5419 0.451174C31.061 -0.030274 30.2814 -0.030274 29.7992 0.451174L22.3298 7.921C20.5339 9.718 19.9666 12.2404 20.548 14.5356L25.5553 19.5431C27.8503 20.1224 30.3739 19.5549 32.1677 17.7594L39.6382 10.2899C40.1205 9.80857 40.1205 9.02804 39.6383 8.54668Z" fill="#0F1524"/>
<path d="M3.35605 1.12616C3.10009 0.870128 2.75397 0.729736 2.39854 0.729736C2.32292 0.729736 2.24688 0.736188 2.17264 0.748602C1.7402 0.821779 1.36917 1.09938 1.17855 1.4945C-1.0094 6.01684 -0.0950182 11.4282 3.45667 14.98L9.81071 21.3332C10.4376 21.9609 11.2853 22.3083 12.1644 22.3083C12.2584 22.3083 12.3526 22.3044 12.4466 22.2966L16.1358 21.9818L32.2225 39.3359C32.4722 39.6056 32.8221 39.7623 33.1907 39.7695C33.1983 39.7695 33.2062 39.7695 33.2142 39.7695C33.5745 39.7695 33.9195 39.6272 34.1756 39.373L36.9306 36.6174C37.1852 36.3634 37.3275 36.0187 37.3275 35.6594C37.3275 35.3002 37.1852 34.9552 36.9317 34.7012L3.35605 1.12616Z" fill="#0F1524"/>
</g>
<defs>
<clipPath id="clip0_1112_427">
<rect width="40" height="40" fill="white"/>
</clipPath>
</defs>
</svg>
