<svg width="40" height="40" viewBox="0 0 40 40" fill="none" xmlns="http://www.w3.org/2000/svg">
<g clipPath="url(#clip0_1112_419)">
<path d="M40.0001 11.1581L39.5821 10.3226C39.4115 9.97516 39.1096 9.60211 38.6675 9.34477C38.227 9.08469 37.6764 8.94891 37.0447 8.94985C36.1145 8.95446 34.9659 9.25602 33.5441 9.96118L21.2762 15.7489L26.5227 18.6891L40.0001 11.1581ZM2.53404 26.7704L2.51732 26.7785C1.70146 27.2109 1.06373 27.6713 0.616071 28.3004C0.165915 28.9296 -0.00533493 29.683 0.000368191 30.4288C-0.00283493 31.8086 0.357399 33.267 1.44873 34.3652C2.54029 35.4634 4.2331 36.0655 6.54779 36.0621C6.57326 36.0621 6.59842 36.0622 6.62342 36.0622C8.94763 36.0623 10.6631 35.2205 11.6806 33.8786C12.7091 32.5344 13.0578 30.8682 13.2151 29.232C13.3168 28.0667 13.3811 27.2092 13.5875 26.6208C13.7983 26.0395 14.0647 25.6416 14.8652 25.1184L17.3011 23.7552L13.144 21.4256L2.53404 26.7704ZM8.73724 32.1395C6.59967 33.2844 3.93795 32.4799 2.79326 30.3423L10.5336 26.1955C11.6794 28.3326 10.875 30.9945 8.73724 32.1395ZM14.8596 14.8781C14.0631 14.3567 13.7976 13.9594 13.5872 13.3796C13.3815 12.791 13.3166 11.9336 13.2149 10.7705C13.0576 9.13204 12.7089 7.46594 11.6804 6.12165C10.6516 4.76524 8.90943 3.91977 6.54756 3.93829C4.23287 3.93415 2.54013 4.53657 1.44849 5.63477C0.357165 6.73305 -0.00306931 8.19157 0.000133816 9.57149C-0.00549118 10.317 0.165681 11.0706 0.615837 11.6995C1.06349 12.3286 1.70123 12.7891 2.51709 13.2213L2.52998 13.2281L13.9961 19.0019L14.674 19.3417C15.0219 19.5164 15.1634 19.9401 14.9885 20.2877C14.9644 20.3355 14.9328 20.3763 14.9001 20.4157C14.8964 20.4204 14.894 20.4255 14.8904 20.43C14.8894 20.4312 14.8888 20.4325 14.8879 20.4334L25.8522 26.5777L33.544 30.1477C34.9657 30.8528 36.1142 31.1544 37.0444 31.1588C37.6762 31.1598 38.2269 31.0242 38.6672 30.7634C39.1094 30.5061 39.4112 30.1335 39.5819 29.7862L39.9994 28.9504L18.5345 16.9337L14.8596 14.8781ZM10.5794 13.926L2.86982 9.72079C4.03115 7.5918 6.69826 6.80727 8.82701 7.96836C10.9563 9.13024 11.7407 11.7971 10.5794 13.926Z" fill="#0F1524"/>
</g>
<defs>
<clipPath id="clip0_1112_419">
<rect width="40" height="40" fill="white"/>
</clipPath>
</defs>
</svg>
