<svg width="41" height="40" viewBox="0 0 41 40" fill="none" xmlns="http://www.w3.org/2000/svg">
<g clip-path="url(#clip0_1112_339)">
<path d="M20.6128 22.5C26.8237 22.5 31.8628 17.4609 31.8628 11.25C31.8628 5.03906 26.8237 0 20.6128 0C14.4019 0 9.36279 5.03906 9.36279 11.25C9.36279 17.4609 14.4019 22.5 20.6128 22.5ZM30.6128 25H26.3081C24.5737 25.7969 22.644 26.25 20.6128 26.25C18.5815 26.25 16.6597 25.7969 14.9175 25H10.6128C5.08936 25 0.612793 29.4766 0.612793 35V36.25C0.612793 38.3203 2.29248 40 4.36279 40H36.8628C38.9331 40 40.6128 38.3203 40.6128 36.25V35C40.6128 29.4766 36.1362 25 30.6128 25Z" fill="#7DD8FF"/>
</g>
<defs>
<clipPath id="clip0_1112_339">
<rect width="40" height="40" fill="white" transform="translate(0.612793)"/>
</clipPath>
</defs>
</svg>
