<svg width="40" height="40" viewBox="0 0 40 40" fill="none" xmlns="http://www.w3.org/2000/svg">
<path d="M32.857 22.1428V32.857C32.857 33.2439 32.7157 33.5788 32.4329 33.8615C32.1502 34.1442 31.8154 34.2856 31.4285 34.2856H22.857V25.7142H17.1428V34.2856H8.57133C8.18442 34.2856 7.8496 34.1442 7.56686 33.8615C7.28413 33.5788 7.14276 33.2439 7.14276 32.857V22.1428C7.14276 22.1279 7.14648 22.1056 7.15392 22.0758C7.16136 22.046 7.16508 22.0237 7.16508 22.0088L19.9999 11.4285L32.8347 22.0088C32.8496 22.0386 32.857 22.0832 32.857 22.1428ZM37.8347 20.6026L36.4508 22.2544C36.3317 22.3883 36.1755 22.4701 35.982 22.4999H35.9151C35.7216 22.4999 35.5654 22.4478 35.4463 22.3436L19.9999 9.46418L4.55347 22.3436C4.3749 22.4627 4.19633 22.5148 4.01776 22.4999C3.8243 22.4701 3.66805 22.3883 3.54901 22.2544L2.16508 20.6026C2.04603 20.4538 1.99395 20.2789 2.00883 20.078C2.02371 19.8771 2.10555 19.7172 2.25436 19.5981L18.3035 6.22757C18.7797 5.84067 19.3451 5.64722 19.9999 5.64722C20.6547 5.64722 21.2201 5.84067 21.6963 6.22757L27.1428 10.7811V6.42847C27.1428 6.22013 27.2097 6.049 27.3436 5.91507C27.4776 5.78115 27.6487 5.71418 27.857 5.71418H32.1428C32.3511 5.71418 32.5222 5.78115 32.6561 5.91507C32.7901 6.049 32.857 6.22013 32.857 6.42847V15.5356L37.7454 19.5981C37.8942 19.7172 37.9761 19.8771 37.991 20.078C38.0059 20.2789 37.9538 20.4538 37.8347 20.6026Z" fill="#7DD8FF"/>
</svg>
