<svg width="40" height="40" viewBox="0 0 40 40" fill="none" xmlns="http://www.w3.org/2000/svg">
<path d="M35.2703 16.5883L34.3922 14.393L32.8352 10.5C31.4984 7.15859 28.3102 5 24.7109 5H14.7891C11.1906 5 8.00156 7.15859 6.66484 10.5L5.10781 14.393L4.22969 16.5883C2.34531 17.3047 1 19.1141 1 21.25V25C1 26.2594 1.48125 27.3961 2.25 28.2758V32.5C2.25 33.8805 3.36953 35 4.75 35H7.25C8.63047 35 9.75 33.8805 9.75 32.5V30H29.75V32.5C29.75 33.8805 30.8695 35 32.25 35H34.75C36.1305 35 37.25 33.8805 37.25 32.5V28.2758C38.0188 27.3969 38.5 26.2602 38.5 25V21.25C38.5 19.1141 37.1547 17.3047 35.2703 16.5883ZM11.307 12.357C11.8766 10.9336 13.2555 10 14.7891 10H24.7109C26.2445 10 27.6234 10.9336 28.193 12.357L29.75 16.25H9.75L11.307 12.357ZM7.25 24.9844C5.75 24.9844 4.75 23.9875 4.75 22.4922C4.75 20.9969 5.75 20 7.25 20C8.75 20 11 22.243 11 23.7383C11 25.2336 8.75 24.9844 7.25 24.9844ZM32.25 24.9844C30.75 24.9844 28.5 25.2336 28.5 23.7383C28.5 22.243 30.75 20 32.25 20C33.75 20 34.75 20.9969 34.75 22.4922C34.75 23.9875 33.75 24.9844 32.25 24.9844Z" fill="#7DD8FF"/>
</svg>
