<svg width="40" height="41" viewBox="0 0 40 41" fill="none" xmlns="http://www.w3.org/2000/svg">
<g clip-path="url(#clip0_1112_381)">
<path d="M39.2682 3.12443L36.9533 0.809583C36.7212 0.577376 36.4455 0.393177 36.1422 0.267504C35.8388 0.141832 35.5137 0.0771484 35.1854 0.0771484C34.857 0.0771484 34.5319 0.141832 34.2285 0.267504C33.9252 0.393177 33.6495 0.577376 33.4174 0.809583L29.8018 4.42911C29.4987 4.73137 29.2705 5.1003 29.1354 5.50646L28.1854 8.3588L22.2275 14.3166C21.2775 13.6322 20.2354 13.0869 19.0947 12.8213C16.4814 12.2135 13.8604 12.7526 12.0729 14.5401C11.3437 15.2722 10.8013 16.1691 10.4916 17.1549C10.0229 18.6049 8.67832 19.7088 7.19864 19.8471C5.34707 20.0244 3.62598 20.7416 2.30723 22.069C-1.2584 25.6244 -0.616989 32.0307 3.71739 36.3627C8.05176 40.6947 14.4533 41.3276 18.0127 37.7744C19.3408 36.4557 20.0565 34.7354 20.2354 32.8752C20.3729 31.4026 21.4768 30.0526 22.9252 29.583C23.9112 29.2728 24.8082 28.7302 25.5408 28.001C27.3275 26.2135 27.8643 23.5979 27.2596 20.9893C26.9947 19.8455 26.4494 18.8018 25.7627 17.8486L31.719 11.8924L34.569 10.9424C34.9751 10.8073 35.344 10.5791 35.6463 10.276L39.2658 6.65724C39.7341 6.18882 39.9974 5.55369 39.9979 4.89132C39.9983 4.22894 39.7359 3.59347 39.2682 3.12443ZM16.2502 27.5776C15.5085 27.5776 14.7835 27.3576 14.1668 26.9456C13.5501 26.5335 13.0695 25.9478 12.7857 25.2626C12.5018 24.5774 12.4276 23.8234 12.5723 23.096C12.7169 22.3685 13.0741 21.7003 13.5985 21.1759C14.123 20.6515 14.7912 20.2943 15.5186 20.1496C16.246 20.0049 17 20.0792 17.6853 20.363C18.3705 20.6468 18.9562 21.1275 19.3682 21.7442C19.7803 22.3608 20.0002 23.0859 20.0002 23.8276C20.0002 24.8221 19.6051 25.7759 18.9019 26.4792C18.1986 27.1825 17.2448 27.5776 16.2502 27.5776Z" fill="#7DD8FF"/>
</g>
<defs>
<clipPath id="clip0_1112_381">
<rect width="40" height="40" fill="white" transform="translate(0 0.0773926)"/>
</clipPath>
</defs>
</svg>
