<svg width="40" height="40" viewBox="0 0 40 40" fill="none" xmlns="http://www.w3.org/2000/svg">
<g clipPath="url(#clip0_1112_373)">
<path d="M33.75 20.0001H14.375V11.9454C14.375 8.85164 16.8516 6.28133 19.9453 6.25008C23.0703 6.21883 25.625 8.75789 25.625 11.8751V13.1251C25.625 14.1641 26.4609 15.0001 27.5 15.0001H30C31.0391 15.0001 31.875 14.1641 31.875 13.1251V11.8751C31.875 5.31258 26.5234 -0.0233606 19.9609 7.69155e-05C13.3984 0.0235144 8.125 5.42976 8.125 11.9923V20.0001H6.25C4.17969 20.0001 2.5 21.6798 2.5 23.7501V36.2501C2.5 38.3204 4.17969 40.0001 6.25 40.0001H33.75C35.8203 40.0001 37.5 38.3204 37.5 36.2501V23.7501C37.5 21.6798 35.8203 20.0001 33.75 20.0001ZM23.125 31.8751C23.125 33.6016 21.7266 35.0001 20 35.0001C18.2734 35.0001 16.875 33.6016 16.875 31.8751V28.1251C16.875 26.3985 18.2734 25.0001 20 25.0001C21.7266 25.0001 23.125 26.3985 23.125 28.1251V31.8751Z" fill="#7DD8FF"/>
</g>
<defs>
<clipPath id="clip0_1112_373">
<rect width="40" height="40" fill="white"/>
</clipPath>
</defs>
</svg>
