<svg width="40" height="40" viewBox="0 0 40 40" fill="none" xmlns="http://www.w3.org/2000/svg">
<g clip-path="url(#clip0_1112_375)">
<path d="M33.3331 15.5555H25.3963L18.0977 2.78189C18.0004 2.61183 17.8599 2.47049 17.6904 2.3722C17.5209 2.27391 17.3284 2.22216 17.1325 2.22217L12.5838 2.22217C11.8456 2.22217 11.313 2.92842 11.5158 3.63814L14.9206 15.5555H7.77759L4.77759 11.5555C4.56787 11.2756 4.23801 11.1111 3.8887 11.1111H1.11162C0.388705 11.1111 -0.141851 11.7902 0.0338436 12.4916L2.22204 19.9999L0.0338436 27.5083C-0.141851 28.2097 0.388705 28.8888 1.11162 28.8888H3.8887C4.2387 28.8888 4.56787 28.7243 4.77759 28.4444L7.77759 24.4444H14.9206L11.5158 36.3611C11.313 37.0708 11.8456 37.7777 12.5838 37.7777H17.1325C17.5311 37.7777 17.8991 37.5638 18.097 37.218L25.3963 24.4444H33.3331C35.788 24.4444 39.9998 22.4548 39.9998 19.9999C39.9998 17.5451 35.788 15.5555 33.3331 15.5555Z" fill="#7DD8FF"/>
</g>
<defs>
<clipPath id="clip0_1112_375">
<rect width="40" height="40" fill="white"/>
</clipPath>
</defs>
</svg>
