<svg width="40" height="40" viewBox="0 0 40 40" fill="none" xmlns="http://www.w3.org/2000/svg">
<g clipPath="url(#clip0_1112_362)">
<path d="M35.7723 34.4828H27.2613C29.4434 33.6179 31.1047 32.3794 32.3654 30.8772C37.393 30.1014 39.6551 25.9234 39.6551 22.0552C39.6551 19.3249 38.1593 17.0579 36.2034 16.62C36.2034 16.5959 36.2041 16.5717 36.2041 16.5476C36.2075 16.1835 36.0682 15.84 35.8124 15.5814C35.5503 15.318 35.1992 15.1724 34.8241 15.1724L27.931 15.1663V19.0249L30.4875 21.5814C30.6172 21.7104 30.6896 21.8863 30.6896 22.069V27.5863C30.6896 27.967 30.3813 28.276 29.9999 28.276H24.4826C24.1019 28.276 23.7929 27.967 23.7929 27.5863V22.069C23.7929 21.8863 23.866 21.7104 23.9949 21.5814L26.5515 19.0249V15.1649L18.9659 15.1587H18.9645L3.10794 15.1725C2.73137 15.1725 2.38106 15.3181 2.11895 15.5815C1.86309 15.8401 1.72309 16.1835 1.72653 16.5477C1.79067 23.9491 3.07965 31.4753 10.67 34.4829H2.15918C1.15918 34.4829 0.344727 35.2905 0.344727 36.2836C0.344727 37.1215 0.919181 37.7436 1.90887 37.9146L10.6392 38.6187C10.9309 38.6401 11.0295 38.7601 11.0923 38.887C11.4316 39.5629 12.1296 40.0001 12.8716 40.0001H24.3709C25.1124 40.0001 25.8102 39.5636 26.1475 38.8884C26.2117 38.7601 26.3109 38.6387 26.6034 38.6187L36.0185 37.9153L36.0875 37.907C37.0117 37.7436 37.5861 37.1215 37.5861 36.2836C37.5861 35.2904 36.7723 34.4828 35.7723 34.4828ZM33.6096 29.1118C33.8013 28.7835 33.9757 28.4442 34.1413 28.0993C34.2089 27.9586 34.2764 27.8186 34.3399 27.6759C34.4702 27.3815 34.5916 27.0821 34.7054 26.7779C34.7868 26.5621 34.862 26.3448 34.9344 26.1255C34.9675 26.0255 34.9971 25.9235 35.0289 25.8228C35.1716 25.3648 35.2992 24.9028 35.4089 24.4366C35.4103 24.4311 35.4116 24.4256 35.413 24.4207C35.7489 22.9904 35.9461 21.5414 36.055 20.1366C36.0571 20.118 36.0578 20.1 36.0599 20.0814C36.0896 19.6917 36.115 19.3076 36.1337 18.9276C36.1468 18.671 36.1585 18.4152 36.1682 18.1579C36.1696 18.1199 36.1723 18.0793 36.1737 18.0407C37.3647 18.4958 38.2757 20.1496 38.2757 22.0551C38.2757 24.7496 37.0096 27.9979 33.5743 29.1786C33.5875 29.1566 33.5964 29.1338 33.6096 29.1118ZM15.5081 31.8393C15.4509 32.1759 15.1591 32.4138 14.8281 32.4138C14.7901 32.4138 14.7516 32.4104 14.7123 32.4041C9.23842 31.4751 6.29982 28.3255 5.18396 22.1924C5.11497 21.8179 5.36396 21.4585 5.73911 21.3903C6.11294 21.3269 6.47224 21.5703 6.54052 21.9455C7.55083 27.4945 10.0633 30.2158 14.9426 31.0441C15.3185 31.1076 15.5716 31.4642 15.5081 31.8393Z" fill="#7DD8FF"/>
<path d="M17.784 5.70766C16.7447 6.69867 16.2081 7.76149 16.1908 8.86766C16.1736 10.0035 16.704 11.127 17.7681 12.2077C17.9033 12.3449 18.0812 12.4138 18.2598 12.4138C18.4343 12.4138 18.6095 12.3477 18.744 12.2152C19.015 11.9477 19.0184 11.5111 18.7515 11.2401C17.9557 10.4325 17.5584 9.64149 17.5701 8.88977C17.5819 8.16704 17.9736 7.4318 18.7301 6.7118C19.7881 5.72625 20.3315 4.6539 20.3446 3.52281C20.359 2.36835 19.8198 1.24898 18.7419 0.195927C18.4687 -0.0696203 18.0329 -0.0647765 17.766 0.207646C17.4998 0.480068 17.5053 0.916632 17.7777 1.1828C18.575 1.9614 18.975 2.74351 18.9653 3.50625C18.9571 4.24484 18.5619 4.98422 17.784 5.70766Z" fill="#7DD8FF"/>
<path d="M26.0598 5.70766C25.0205 6.69867 24.484 7.76149 24.4667 8.86766C24.4495 10.0035 24.9798 11.127 26.044 12.2077C26.1791 12.3449 26.3571 12.4138 26.5357 12.4138C26.7102 12.4138 26.8854 12.3477 27.0198 12.2152C27.2909 11.9477 27.2943 11.5111 27.0274 11.2401C26.2316 10.4325 25.8343 9.64149 25.846 8.88977C25.8577 8.16704 26.2495 7.4318 27.006 6.7118C28.064 5.72625 28.6074 4.6539 28.6205 3.52281C28.6349 2.36835 28.0956 1.24898 27.0177 0.195927C26.7453 -0.0696203 26.3095 -0.0647765 26.0419 0.207646C25.7757 0.480068 25.7812 0.916632 26.0536 1.1828C26.8509 1.9614 27.2509 2.74351 27.2412 3.50625C27.233 4.24484 26.8378 4.98422 26.0598 5.70766Z" fill="#7DD8FF"/>
<path d="M10.8714 5.70766C9.83207 6.69867 9.29551 7.76149 9.27824 8.86766C9.26097 10.0035 9.79137 11.127 10.8555 12.2077C10.9907 12.3449 11.1686 12.4138 11.3472 12.4138C11.5217 12.4138 11.6969 12.3477 11.8314 12.2152C12.1024 11.9477 12.1058 11.5111 11.8389 11.2401C11.0431 10.4325 10.6458 9.64149 10.6575 8.88977C10.6693 8.16704 11.061 7.4318 11.8175 6.7118C12.8755 5.72625 13.419 4.6539 13.432 3.52281C13.4465 2.36835 12.9072 1.24898 11.8293 0.195927C11.5561 -0.0696203 11.121 -0.0647765 10.8534 0.207646C10.5872 0.480068 10.5927 0.916632 10.8651 1.1828C11.6624 1.9614 12.0624 2.74351 12.0527 3.50625C12.0445 4.24484 11.6493 4.98422 10.8714 5.70766Z" fill="#7DD8FF"/>
<path d="M25.1724 26.8964H29.3103V22.3543L27.2414 20.2854L25.1724 22.3543V26.8964Z" fill="#7DD8FF"/>
</g>
<defs>
<clipPath id="clip0_1112_362">
<rect width="40" height="40" fill="white"/>
</clipPath>
</defs>
</svg>
