<svg width="250" height="250" viewBox="0 0 250 250" fill="none" xmlns="http://www.w3.org/2000/svg">
<path d="M22 0H62V3H22V0Z" fill="#38BDF8"/>
<path d="M0 62L0 22H3L3 62H0Z" fill="#38BDF8"/>
<path d="M0 21.9204L21.9203 0.000100315L24.0416 2.12142L2.12132 24.0417L0 21.9204Z" fill="#38BDF8"/>
<path d="M228 250H188V247H228V250Z" fill="#38BDF8"/>
<path d="M250 188V228H247V188H250Z" fill="#38BDF8"/>
<path d="M250 228.08L228.08 250L225.958 247.879L247.879 225.958L250 228.08Z" fill="#38BDF8"/>
<path d="M84.9785 161.53H98.3585V163.57H87.8885V169.93H97.3685V171.97H87.8885V181H84.9785V161.53Z" fill="#38BDF8"/>
<path d="M101.586 161.23H104.286V164.05H101.586V161.23ZM101.586 166.48H104.286V181H101.586V166.48Z" fill="#38BDF8"/>
<path d="M114.458 187.6C112.478 187.6 110.808 187.49 109.448 187.27V185.35C111.848 185.63 113.598 185.77 114.698 185.77C116.078 185.77 117.078 185.55 117.698 185.11C118.338 184.67 118.658 183.94 118.658 182.92V179.44C118.618 180.08 118.178 180.55 117.338 180.85C116.518 181.15 115.478 181.3 114.218 181.3C112.718 181.3 111.548 181.16 110.708 180.88C109.888 180.6 109.298 180.14 108.938 179.5C108.598 178.86 108.428 177.99 108.428 176.89V170.98C108.428 169.26 108.888 168.03 109.808 167.29C110.748 166.55 112.278 166.18 114.398 166.18C116.918 166.18 118.398 166.75 118.838 167.89V166.48H121.358V182.38C121.358 183.72 121.108 184.77 120.608 185.53C120.108 186.29 119.358 186.82 118.358 187.12C117.358 187.44 116.058 187.6 114.458 187.6ZM114.788 179.5C116.208 179.5 117.208 179.33 117.788 178.99C118.368 178.65 118.658 178.01 118.658 177.07V170.5C118.658 169.84 118.548 169.34 118.328 169C118.128 168.66 117.748 168.42 117.188 168.28C116.628 168.12 115.808 168.04 114.728 168.04C113.708 168.04 112.938 168.11 112.418 168.25C111.918 168.39 111.568 168.64 111.368 169C111.188 169.34 111.098 169.84 111.098 170.5V177.07C111.098 177.75 111.198 178.26 111.398 178.6C111.598 178.94 111.958 179.18 112.478 179.32C112.998 179.44 113.768 179.5 114.788 179.5Z" fill="#38BDF8"/>
<path d="M126.049 166.48H128.749V168.25C129.029 166.87 130.659 166.18 133.639 166.18C136.059 166.18 137.569 166.84 138.169 168.16C138.349 167.52 138.889 167.03 139.789 166.69C140.709 166.35 141.829 166.18 143.149 166.18C144.949 166.18 146.219 166.52 146.959 167.2C147.699 167.86 148.069 168.91 148.069 170.35V181H145.369V170.53C145.369 170.15 145.339 169.84 145.279 169.6C145.219 169.36 145.099 169.12 144.919 168.88C144.519 168.38 143.629 168.13 142.249 168.13C141.189 168.13 140.399 168.2 139.879 168.34C139.359 168.48 138.999 168.72 138.799 169.06C138.619 169.4 138.529 169.89 138.529 170.53V181H135.829V170.53C135.829 170.15 135.799 169.84 135.739 169.6C135.679 169.36 135.559 169.12 135.379 168.88C134.979 168.38 134.099 168.13 132.739 168.13C131.639 168.13 130.809 168.2 130.249 168.34C129.689 168.48 129.299 168.72 129.079 169.06C128.859 169.38 128.749 169.87 128.749 170.53V181H126.049V166.48Z" fill="#38BDF8"/>
<path d="M157.208 181.3C155.828 181.3 154.758 181.17 153.998 180.91C153.258 180.65 152.718 180.19 152.378 179.53C152.058 178.87 151.898 177.92 151.898 176.68C151.898 175.58 152.048 174.73 152.348 174.13C152.668 173.51 153.198 173.07 153.938 172.81C154.698 172.55 155.768 172.42 157.148 172.42H161.498V170.11C161.498 169.57 161.388 169.16 161.168 168.88C160.968 168.58 160.618 168.37 160.118 168.25C159.638 168.13 158.928 168.07 157.988 168.07C156.488 168.07 154.828 168.19 153.008 168.43V166.45C154.988 166.27 156.778 166.18 158.378 166.18C160.058 166.18 161.298 166.31 162.098 166.57C162.898 166.81 163.448 167.24 163.748 167.86C164.048 168.48 164.198 169.44 164.198 170.74V181H161.588V179.62C161.368 180.74 159.908 181.3 157.208 181.3ZM157.658 179.53C158.638 179.53 159.468 179.46 160.148 179.32C161.048 179.14 161.498 178.72 161.498 178.06V174.1H157.328C156.468 174.1 155.848 174.17 155.468 174.31C155.088 174.43 154.838 174.67 154.718 175.03C154.598 175.39 154.538 175.97 154.538 176.77C154.538 177.49 154.608 178.05 154.748 178.45C154.888 178.83 155.138 179.11 155.498 179.29C155.858 179.45 156.398 179.53 157.118 179.53H157.658Z" fill="#38BDF8"/>
<path d="M109.83 134C118.017 134 124.661 127.355 124.661 119.167V104.333H109.83C101.644 104.333 95 110.979 95 119.167C95 127.355 101.644 134 109.83 134Z" fill="#38BDF8"/>
<path d="M95 89.5001C95 81.3121 101.644 74.6667 109.83 74.6667H124.661V104.333H109.83C101.644 104.333 95 97.6881 95 89.5001Z" fill="#38BDF8"/>
<path d="M95 59.8333C95 51.6453 101.644 45 109.83 45H124.661V74.6667H109.83C101.644 74.6667 95 68.0213 95 59.8333Z" fill="#38BDF8"/>
<path d="M124.66 45H139.491C147.677 45 154.321 51.6453 154.321 59.8333C154.321 68.0213 147.677 74.6667 139.491 74.6667H124.66V45Z" fill="#38BDF8"/>
<path d="M154.321 89.5001C154.321 97.6881 147.677 104.333 139.491 104.333C131.304 104.333 124.66 97.6881 124.66 89.5001C124.66 81.3121 131.304 74.6667 139.491 74.6667C147.677 74.6667 154.321 81.3121 154.321 89.5001Z" fill="#1ABCFE"/>
</svg>
