<svg width="250" height="250" viewBox="0 0 250 250" fill="none" xmlns="http://www.w3.org/2000/svg">
<rect x="22" width="40" height="2" fill="#7DD8FF"/>
<rect y="62" width="40" height="2" transform="rotate(-90 0 62)" fill="#7DD8FF"/>
<rect y="21.9204" width="31" height="2" transform="rotate(-45 0 21.9204)" fill="#7DD8FF"/>
<rect x="228" y="250" width="40" height="2" transform="rotate(-180 228 250)" fill="#7DD8FF"/>
<rect x="250" y="188" width="40" height="2" transform="rotate(90 250 188)" fill="#7DD8FF"/>
<rect x="250" y="228.08" width="31" height="2" transform="rotate(135 250 228.08)" fill="#7DD8FF"/>
<path d="M82.8867 179H72.0703C70.9062 179 69.8477 178.781 68.8945 178.344C67.9414 177.906 67.125 177.309 66.4453 176.551C65.7734 175.793 65.2539 174.902 64.8867 173.879C64.5195 172.855 64.3359 171.762 64.3359 170.598C64.3359 169.441 64.5195 168.355 64.8867 167.34C65.2539 166.316 65.7734 165.426 66.4453 164.668C67.125 163.902 67.9414 163.301 68.8945 162.863C69.8477 162.418 70.9062 162.195 72.0703 162.195H82.8867V164.598H72.0703C71.2422 164.598 70.4961 164.758 69.832 165.078C69.1758 165.391 68.6172 165.82 68.1562 166.367C67.7031 166.906 67.3516 167.539 67.1016 168.266C66.8594 168.992 66.7383 169.77 66.7383 170.598C66.7383 171.426 66.8594 172.207 67.1016 172.941C67.3516 173.668 67.7031 174.305 68.1562 174.852C68.6172 175.391 69.1758 175.816 69.832 176.129C70.4961 176.441 71.2422 176.598 72.0703 176.598H80.4844V171.805H70.3125V169.402H82.8867V179ZM102.129 172.402C102.129 173.309 101.957 174.16 101.613 174.957C101.27 175.754 100.801 176.453 100.207 177.055C99.6211 177.648 98.9297 178.121 98.1328 178.473C97.3359 178.816 96.4844 178.992 95.5781 179H91.8867C90.9805 178.992 90.1289 178.816 89.332 178.473C88.5352 178.121 87.8398 177.648 87.2461 177.055C86.6602 176.453 86.1953 175.754 85.8516 174.957C85.5078 174.16 85.3359 173.309 85.3359 172.402C85.3359 171.496 85.5078 170.645 85.8516 169.848C86.1953 169.043 86.6602 168.344 87.2461 167.75C87.8398 167.148 88.5352 166.676 89.332 166.332C90.1289 165.98 90.9805 165.805 91.8867 165.805H95.5781C96.1797 165.805 96.7617 165.883 97.3242 166.039C97.8867 166.195 98.4102 166.418 98.8945 166.707C99.3789 166.996 99.8203 167.344 100.219 167.75C100.617 168.148 100.957 168.594 101.238 169.086C101.52 169.57 101.738 170.094 101.895 170.656C102.051 171.219 102.129 171.801 102.129 172.402ZM99.7383 172.402C99.7383 171.824 99.6289 171.281 99.4102 170.773C99.1914 170.266 98.8945 169.824 98.5195 169.449C98.1445 169.066 97.7031 168.766 97.1953 168.547C96.6953 168.32 96.1562 168.203 95.5781 168.195H91.8867C91.3086 168.203 90.7656 168.32 90.2578 168.547C89.7578 168.766 89.3203 169.066 88.9453 169.449C88.5703 169.824 88.2734 170.266 88.0547 170.773C87.8438 171.281 87.7383 171.824 87.7383 172.402C87.7383 172.98 87.8438 173.523 88.0547 174.031C88.2734 174.539 88.5703 174.984 88.9453 175.367C89.3203 175.742 89.7578 176.043 90.2578 176.27C90.7656 176.488 91.3086 176.598 91.8867 176.598H95.5781C96.1562 176.598 96.6953 176.488 97.1953 176.27C97.7031 176.043 98.1445 175.742 98.5195 175.367C98.8945 174.984 99.1914 174.539 99.4102 174.031C99.6289 173.523 99.7383 172.98 99.7383 172.402ZM130.102 179H114.047V162.195H116.449V176.598H130.102V179ZM147.117 179H135.117C134.531 179 133.984 178.891 133.477 178.672C132.969 178.453 132.523 178.156 132.141 177.781C131.758 177.398 131.457 176.953 131.238 176.445C131.02 175.93 130.91 175.383 130.91 174.805C130.91 174.219 131.02 173.672 131.238 173.164C131.457 172.656 131.758 172.211 132.141 171.828C132.523 171.445 132.969 171.145 133.477 170.926C133.984 170.707 134.531 170.598 135.117 170.598H143.508V173H135.117C134.867 173 134.633 173.051 134.414 173.152C134.195 173.246 134.004 173.375 133.84 173.539C133.676 173.703 133.547 173.895 133.453 174.113C133.359 174.332 133.312 174.562 133.312 174.805C133.312 175.055 133.359 175.289 133.453 175.508C133.547 175.719 133.676 175.906 133.84 176.07C134.004 176.234 134.195 176.363 134.414 176.457C134.633 176.551 134.867 176.598 135.117 176.598H144.715V170C144.715 169.758 144.664 169.527 144.562 169.309C144.469 169.09 144.34 168.898 144.176 168.734C144.012 168.57 143.82 168.441 143.602 168.348C143.383 168.246 143.152 168.195 142.91 168.195H133.312V165.805H142.91C143.496 165.805 144.043 165.914 144.551 166.133C145.059 166.352 145.504 166.652 145.887 167.035C146.27 167.41 146.57 167.852 146.789 168.359C147.008 168.867 147.117 169.414 147.117 170V179ZM152.883 179H150.48V165.805H159.48C160.387 165.805 161.238 165.98 162.035 166.332C162.832 166.676 163.527 167.148 164.121 167.75C164.715 168.344 165.184 169.043 165.527 169.848C165.871 170.645 166.043 171.496 166.043 172.402V179H163.641V172.402C163.641 171.824 163.531 171.281 163.312 170.773C163.094 170.266 162.797 169.824 162.422 169.449C162.047 169.066 161.605 168.766 161.098 168.547C160.598 168.32 160.059 168.203 159.48 168.195H152.883V179ZM183.996 179.598C183.996 180.184 183.883 180.73 183.656 181.238C183.438 181.746 183.137 182.191 182.754 182.574C182.379 182.957 181.934 183.258 181.418 183.477C180.91 183.695 180.367 183.805 179.789 183.805H170.191V181.402H179.789C180.031 181.402 180.262 181.355 180.48 181.262C180.699 181.168 180.891 181.039 181.055 180.875C181.219 180.711 181.348 180.52 181.441 180.301C181.543 180.082 181.594 179.848 181.594 179.598V168.195H174.996C174.418 168.203 173.875 168.32 173.367 168.547C172.867 168.766 172.43 169.066 172.055 169.449C171.68 169.824 171.383 170.266 171.164 170.773C170.953 171.281 170.848 171.824 170.848 172.402C170.848 172.98 170.953 173.523 171.164 174.031C171.383 174.531 171.68 174.973 172.055 175.355C172.43 175.73 172.867 176.031 173.367 176.258C173.875 176.477 174.418 176.59 174.996 176.598H180.398V179H174.996C174.09 178.992 173.238 178.816 172.441 178.473C171.645 178.121 170.949 177.648 170.355 177.055C169.77 176.453 169.305 175.754 168.961 174.957C168.617 174.16 168.445 173.309 168.445 172.402C168.445 171.496 168.617 170.645 168.961 169.848C169.305 169.051 169.77 168.355 170.355 167.762C170.949 167.16 171.645 166.688 172.441 166.344C173.238 165.992 174.09 165.812 174.996 165.805H183.996V179.598Z" fill="#7DD8FF"/>
<path d="M53.0972 82.6896C52.8135 82.6896 52.7425 82.5477 52.8844 82.3348L54.3844 80.3991C54.4817 80.2852 54.6031 80.1943 54.7398 80.133C54.8765 80.0717 55.0251 80.0414 55.1749 80.0444H80.745C81.0288 80.0444 81.0998 80.2572 80.9579 80.47L79.7417 82.3348C79.5676 82.5664 79.3088 82.7194 79.0221 82.7605L53.0972 82.6896Z" fill="#7DD8FF"/>
<path d="M42.2838 89.2776C42 89.2776 41.9291 89.1357 42.0709 88.9229L43.5709 86.9872C43.6683 86.8733 43.7897 86.7824 43.9263 86.7211C44.063 86.6597 44.2116 86.6295 44.3614 86.6325H77.0361C77.0911 86.6242 77.1474 86.6303 77.1994 86.6501C77.2514 86.67 77.2974 86.7028 77.3331 86.7456C77.3687 86.7884 77.3927 86.8396 77.4028 86.8943C77.413 86.949 77.4088 87.0054 77.3908 87.0581L76.8131 88.781C76.7683 88.9143 76.68 89.0287 76.5624 89.1059C76.4448 89.1831 76.3047 89.2186 76.1645 89.2067L42.2838 89.2776Z" fill="#7DD8FF"/>
<path d="M59.6138 95.8649C59.3301 95.8649 59.2591 95.6521 59.401 95.4393L60.4145 93.6454C60.4942 93.5244 60.6004 93.4231 60.7251 93.3494C60.8498 93.2756 60.9897 93.2313 61.1341 93.2197H75.4546C75.7384 93.2197 75.8802 93.4325 75.8802 93.7163L75.7384 95.4393C75.729 95.5679 75.6736 95.6888 75.5824 95.78C75.4913 95.8711 75.3704 95.9265 75.2418 95.9359L59.6138 95.8649Z" fill="#7DD8FF"/>
<path d="M133.964 81.3621C129.454 82.5073 126.373 83.389 121.934 84.514C120.859 84.7978 120.788 84.8687 119.907 83.7944C119.008 82.641 117.857 81.7084 116.542 81.0682C112.032 78.8487 107.664 79.4973 103.579 82.1425C101.256 83.5512 99.3531 85.5569 98.068 87.9507C96.7829 90.3444 96.1628 93.0388 96.2722 95.7536C96.2408 98.4836 97.2051 101.132 98.9846 103.202C100.764 105.273 103.237 106.624 105.941 107.003C108.204 107.34 110.515 107.081 112.647 106.253C114.78 105.425 116.66 104.056 118.103 102.28C118.751 101.49 119.319 100.628 120.038 99.6352H106.174C104.674 99.6352 104.309 98.7028 104.816 97.4866C105.748 95.267 107.461 91.5375 108.464 89.6828C108.619 89.3375 108.871 89.045 109.19 88.8415C109.509 88.638 109.88 88.5323 110.258 88.5375H136.325C136.183 90.4733 136.183 92.409 135.899 94.3347C135.155 99.4345 133.133 104.263 130.021 108.371C127.633 111.689 124.589 114.48 121.078 116.572C117.567 118.664 113.663 120.012 109.61 120.533C106.247 121.081 102.809 120.945 99.5004 120.134C96.1918 119.322 93.0808 117.852 90.3535 115.81C87.8021 113.949 85.6714 111.57 84.0998 108.831C82.5283 106.091 81.5512 103.051 81.2321 99.9088C80.2997 92.105 82.5902 85.0816 87.313 78.9196C92.1622 72.3692 99.3423 67.932 107.37 66.5247C114.099 65.3085 120.545 66.0991 126.352 70.0314C130.069 72.5077 132.963 76.0365 134.663 80.1662C135.109 80.825 134.805 81.1797 133.964 81.3621Z" fill="#7DD8FF"/>
<path d="M157.67 120.999C151.281 121.042 145.087 118.807 140.197 114.695C136.026 111.179 133.278 106.266 132.464 100.871C131.177 92.7635 133.397 85.6185 138.261 79.2437C143.491 72.3723 149.795 68.7845 158.318 67.2846C165.625 65.9974 172.507 66.7069 178.73 70.9331C181.487 72.6897 183.824 75.031 185.575 77.7913C187.326 80.5515 188.45 83.6631 188.865 86.9056C189.561 91.324 189.175 95.8456 187.74 100.082C186.305 104.319 183.864 108.144 180.625 111.229C175.938 115.945 169.93 119.125 163.396 120.35C161.46 120.715 159.534 120.786 157.67 120.999ZM174.716 92.0642C174.691 91.2736 174.62 90.4852 174.504 89.7028C174.24 88.0819 173.642 86.5338 172.746 85.1575C171.85 83.7813 170.677 82.6072 169.301 81.7104C167.926 80.8137 166.378 80.214 164.757 79.9498C163.136 79.6856 161.478 79.7626 159.889 80.176C156.786 80.7478 153.929 82.2442 151.692 84.4688C149.454 86.6935 147.942 89.5424 147.352 92.6419C146.701 95.3128 147.002 98.1275 148.205 100.6C149.408 103.072 151.436 105.046 153.94 106.182C155.788 107.014 157.802 107.408 159.827 107.334C161.852 107.26 163.833 106.72 165.615 105.756C171.271 102.817 174.352 98.2363 174.737 92.0744L174.716 92.0642Z" fill="#7DD8FF"/>
</svg>
