<svg width="250" height="250" viewBox="0 0 250 250" fill="none" xmlns="http://www.w3.org/2000/svg">
<path d="M22 0H62V3H22V0Z" fill="#38BDF8"/>
<path d="M0 62L0 22H3L3 62H0Z" fill="#38BDF8"/>
<path d="M0 21.9204L21.9203 0.000100315L24.0416 2.12142L2.12132 24.0417L0 21.9204Z" fill="#38BDF8"/>
<path d="M228 250H188V247H228V250Z" fill="#38BDF8"/>
<path d="M250 188V228H247V188H250Z" fill="#38BDF8"/>
<path d="M250 228.08L228.08 250L225.958 247.879L247.879 225.958L250 228.08Z" fill="#38BDF8"/>
<path d="M80.4143 184.3C79.4943 184.3 78.6743 184.26 77.9543 184.18C77.2543 184.1 76.5143 183.95 75.7343 183.73C74.8543 183.49 74.1143 183.19 73.5143 182.83C72.9143 182.45 72.4243 181.94 72.0443 181.3C71.6443 180.62 71.4443 179.86 71.4443 179.02V169.81C71.4443 168.69 71.7343 167.73 72.3143 166.93C72.8943 166.13 73.6943 165.55 74.7143 165.19C75.6943 164.85 76.6243 164.61 77.5043 164.47C78.4043 164.31 79.3743 164.23 80.4143 164.23C82.8943 164.23 85.1343 164.39 87.1343 164.71V166.96C86.3743 166.78 85.2843 166.62 83.8643 166.48C82.4643 166.32 81.3343 166.24 80.4743 166.24C76.3743 166.24 74.3243 167.42 74.3243 169.78V178.96C74.3243 179.6 74.5143 180.16 74.8943 180.64C75.2943 181.12 75.8343 181.47 76.5143 181.69C77.1543 181.93 77.7943 182.1 78.4343 182.2C79.0743 182.28 79.7943 182.32 80.5943 182.32C81.9343 182.32 83.3643 182.14 84.8843 181.78V174.97H80.3243V172.93H87.5843V183.4C84.9843 184 82.5943 184.3 80.4143 184.3Z" fill="#38BDF8"/>
<path d="M97.9948 184.3C96.7148 184.3 95.7548 184.25 95.1148 184.15C94.4748 184.07 93.8348 183.88 93.1948 183.58C92.5348 183.28 92.0548 182.8 91.7548 182.14C91.4548 181.46 91.3048 180.55 91.3048 179.41V174.37C91.3048 173.47 91.4148 172.68 91.6348 172C91.8548 171.32 92.1448 170.79 92.5048 170.41C92.8048 170.07 93.2548 169.81 93.8548 169.63C94.4748 169.43 95.1048 169.3 95.7448 169.24C96.4648 169.2 97.2148 169.18 97.9948 169.18C99.0348 169.18 99.8148 169.21 100.335 169.27C100.875 169.31 101.445 169.41 102.045 169.57C102.665 169.75 103.145 170.02 103.485 170.38C103.825 170.74 104.115 171.26 104.355 171.94C104.575 172.64 104.685 173.45 104.685 174.37V179.41C104.685 181.11 104.295 182.35 103.515 183.13C103.195 183.45 102.735 183.7 102.135 183.88C101.535 184.06 100.915 184.18 100.275 184.24C99.5148 184.28 98.7548 184.3 97.9948 184.3ZM97.9948 182.53C98.8348 182.53 99.4448 182.51 99.8248 182.47C100.205 182.43 100.575 182.32 100.935 182.14C101.295 181.98 101.545 181.72 101.685 181.36C101.845 180.98 101.925 180.46 101.925 179.8V173.92C101.925 173.02 101.815 172.37 101.595 171.97C101.375 171.55 100.995 171.28 100.455 171.16C99.9348 171.02 99.1148 170.95 97.9948 170.95C96.8748 170.95 96.0448 171.02 95.5048 171.16C94.9848 171.28 94.6148 171.55 94.3948 171.97C94.1748 172.37 94.0648 173.02 94.0648 173.92V179.8C94.0648 180.46 94.1348 180.98 94.2748 181.36C94.4348 181.72 94.6948 181.98 95.0548 182.14C95.4148 182.32 95.7848 182.43 96.1648 182.47C96.5448 182.51 97.1548 182.53 97.9948 182.53Z" fill="#38BDF8"/>
<path d="M115.99 164.53H118.9V181.96H128.47V184H115.99V164.53Z" fill="#38BDF8"/>
<path d="M135.866 184.3C134.486 184.3 133.416 184.17 132.656 183.91C131.916 183.65 131.376 183.19 131.036 182.53C130.716 181.87 130.556 180.92 130.556 179.68C130.556 178.58 130.706 177.73 131.006 177.13C131.326 176.51 131.856 176.07 132.596 175.81C133.356 175.55 134.426 175.42 135.806 175.42H140.156V173.11C140.156 172.57 140.046 172.16 139.826 171.88C139.626 171.58 139.276 171.37 138.776 171.25C138.296 171.13 137.586 171.07 136.646 171.07C135.146 171.07 133.486 171.19 131.666 171.43V169.45C133.646 169.27 135.436 169.18 137.036 169.18C138.716 169.18 139.956 169.31 140.756 169.57C141.556 169.81 142.106 170.24 142.406 170.86C142.706 171.48 142.856 172.44 142.856 173.74V184H140.246V182.62C140.026 183.74 138.566 184.3 135.866 184.3ZM136.316 182.53C137.296 182.53 138.126 182.46 138.806 182.32C139.706 182.14 140.156 181.72 140.156 181.06V177.1H135.986C135.126 177.1 134.506 177.17 134.126 177.31C133.746 177.43 133.496 177.67 133.376 178.03C133.256 178.39 133.196 178.97 133.196 179.77C133.196 180.49 133.266 181.05 133.406 181.45C133.546 181.83 133.796 182.11 134.156 182.29C134.516 182.45 135.056 182.53 135.776 182.53H136.316Z" fill="#38BDF8"/>
<path d="M147.538 169.48H150.238V171.25C150.518 169.87 152.108 169.18 155.008 169.18C156.868 169.18 158.168 169.52 158.908 170.2C159.668 170.86 160.048 171.91 160.048 173.35V184H157.348V173.5C157.348 173.12 157.318 172.81 157.258 172.57C157.198 172.33 157.078 172.09 156.898 171.85C156.498 171.35 155.608 171.1 154.228 171.1C153.168 171.1 152.348 171.18 151.768 171.34C151.208 171.48 150.808 171.72 150.568 172.06C150.348 172.4 150.238 172.88 150.238 173.5V184H147.538V169.48Z" fill="#38BDF8"/>
<path d="M170.225 190.6C168.245 190.6 166.575 190.49 165.215 190.27V188.35C167.615 188.63 169.365 188.77 170.465 188.77C171.845 188.77 172.845 188.55 173.465 188.11C174.105 187.67 174.425 186.94 174.425 185.92V182.44C174.385 183.08 173.945 183.55 173.105 183.85C172.285 184.15 171.245 184.3 169.985 184.3C168.485 184.3 167.315 184.16 166.475 183.88C165.655 183.6 165.065 183.14 164.705 182.5C164.365 181.86 164.195 180.99 164.195 179.89V173.98C164.195 172.26 164.655 171.03 165.575 170.29C166.515 169.55 168.045 169.18 170.165 169.18C172.685 169.18 174.165 169.75 174.605 170.89V169.48H177.125V185.38C177.125 186.72 176.875 187.77 176.375 188.53C175.875 189.29 175.125 189.82 174.125 190.12C173.125 190.44 171.825 190.6 170.225 190.6ZM170.555 182.5C171.975 182.5 172.975 182.33 173.555 181.99C174.135 181.65 174.425 181.01 174.425 180.07V173.5C174.425 172.84 174.315 172.34 174.095 172C173.895 171.66 173.515 171.42 172.955 171.28C172.395 171.12 171.575 171.04 170.495 171.04C169.475 171.04 168.705 171.11 168.185 171.25C167.685 171.39 167.335 171.64 167.135 172C166.955 172.34 166.865 172.84 166.865 173.5V180.07C166.865 180.75 166.965 181.26 167.165 181.6C167.365 181.94 167.725 182.18 168.245 182.32C168.765 182.44 169.535 182.5 170.555 182.5Z" fill="#38BDF8"/>
<path d="M53.0972 82.6896C52.8135 82.6896 52.7425 82.5477 52.8844 82.3348L54.3844 80.3991C54.4817 80.2852 54.6031 80.1943 54.7398 80.133C54.8765 80.0717 55.0251 80.0414 55.1749 80.0444H80.745C81.0288 80.0444 81.0998 80.2572 80.9579 80.47L79.7417 82.3348C79.5676 82.5664 79.3088 82.7194 79.0221 82.7605L53.0972 82.6896Z" fill="#38BDF8"/>
<path d="M42.2838 89.2776C42 89.2776 41.9291 89.1357 42.0709 88.9229L43.5709 86.9872C43.6683 86.8733 43.7897 86.7824 43.9263 86.7211C44.063 86.6597 44.2116 86.6295 44.3614 86.6325H77.0361C77.0911 86.6242 77.1474 86.6303 77.1994 86.6501C77.2514 86.67 77.2974 86.7028 77.3331 86.7456C77.3687 86.7884 77.3927 86.8396 77.4028 86.8943C77.413 86.949 77.4088 87.0054 77.3908 87.0581L76.8131 88.781C76.7683 88.9143 76.68 89.0287 76.5624 89.1059C76.4448 89.1831 76.3047 89.2186 76.1645 89.2067L42.2838 89.2776Z" fill="#38BDF8"/>
<path d="M59.6138 95.8649C59.3301 95.8649 59.2591 95.6521 59.401 95.4393L60.4145 93.6454C60.4942 93.5244 60.6004 93.4231 60.7251 93.3494C60.8498 93.2756 60.9897 93.2313 61.1341 93.2197H75.4546C75.7384 93.2197 75.8802 93.4325 75.8802 93.7163L75.7384 95.4393C75.729 95.5679 75.6736 95.6888 75.5824 95.78C75.4913 95.8711 75.3704 95.9265 75.2418 95.9359L59.6138 95.8649Z" fill="#38BDF8"/>
<path d="M133.964 81.3621C129.454 82.5073 126.373 83.389 121.934 84.514C120.859 84.7978 120.788 84.8687 119.907 83.7944C119.008 82.641 117.857 81.7084 116.542 81.0682C112.032 78.8487 107.664 79.4973 103.579 82.1425C101.256 83.5512 99.3531 85.5569 98.068 87.9507C96.7829 90.3444 96.1628 93.0388 96.2722 95.7536C96.2408 98.4836 97.2051 101.132 98.9846 103.202C100.764 105.273 103.237 106.624 105.941 107.003C108.204 107.34 110.515 107.081 112.647 106.253C114.78 105.425 116.66 104.056 118.103 102.28C118.751 101.49 119.319 100.628 120.038 99.6352H106.174C104.674 99.6352 104.309 98.7028 104.816 97.4866C105.748 95.267 107.461 91.5375 108.464 89.6828C108.619 89.3375 108.871 89.045 109.19 88.8415C109.509 88.638 109.88 88.5323 110.258 88.5375H136.325C136.183 90.4733 136.183 92.409 135.899 94.3347C135.155 99.4345 133.133 104.263 130.021 108.371C127.633 111.689 124.589 114.48 121.078 116.572C117.567 118.664 113.663 120.012 109.61 120.533C106.247 121.081 102.809 120.945 99.5004 120.134C96.1918 119.322 93.0808 117.852 90.3535 115.81C87.8021 113.949 85.6714 111.57 84.0998 108.831C82.5283 106.091 81.5512 103.051 81.2321 99.9088C80.2997 92.105 82.5902 85.0816 87.313 78.9196C92.1622 72.3692 99.3423 67.932 107.37 66.5247C114.099 65.3085 120.545 66.0991 126.352 70.0314C130.069 72.5077 132.963 76.0365 134.663 80.1662C135.109 80.825 134.805 81.1797 133.964 81.3621Z" fill="#38BDF8"/>
<path d="M157.67 120.999C151.281 121.042 145.087 118.807 140.197 114.695C136.026 111.179 133.278 106.266 132.464 100.871C131.177 92.7635 133.397 85.6185 138.261 79.2437C143.491 72.3723 149.795 68.7845 158.318 67.2846C165.625 65.9974 172.507 66.7069 178.73 70.9331C181.487 72.6897 183.824 75.031 185.575 77.7913C187.326 80.5515 188.45 83.6631 188.865 86.9056C189.561 91.324 189.175 95.8456 187.74 100.082C186.305 104.319 183.864 108.144 180.625 111.229C175.938 115.945 169.93 119.125 163.396 120.35C161.46 120.715 159.534 120.786 157.67 120.999ZM174.716 92.0642C174.691 91.2736 174.62 90.4852 174.504 89.7028C174.24 88.0819 173.642 86.5338 172.746 85.1575C171.85 83.7813 170.677 82.6072 169.301 81.7104C167.926 80.8137 166.378 80.214 164.757 79.9498C163.136 79.6856 161.478 79.7626 159.889 80.176C156.786 80.7478 153.929 82.2442 151.692 84.4688C149.454 86.6935 147.942 89.5424 147.352 92.6419C146.701 95.3128 147.002 98.1275 148.205 100.6C149.408 103.072 151.436 105.046 153.94 106.182C155.788 107.014 157.802 107.408 159.827 107.334C161.852 107.26 163.833 106.72 165.615 105.756C171.271 102.817 174.352 98.2363 174.737 92.0744L174.716 92.0642Z" fill="#38BDF8"/>
</svg>
