<svg width="250" height="250" viewBox="0 0 250 250" fill="none" xmlns="http://www.w3.org/2000/svg">
  <rect x="22" width="40" height="3" fill="#38BDF8" />
  <rect y="62" width="40" height="3" transform="rotate(-90 0 62)" fill="#38BDF8" />
  <rect y="21.9204" width="31" height="3" transform="rotate(-45 0 21.9204)" fill="#38BDF8" />
  <rect x="228" y="250" width="40" height="3" transform="rotate(-180 228 250)" fill="#38BDF8" />
  <rect x="250" y="188" width="40" height="3" transform="rotate(90 250 188)" fill="#38BDF8" />
  <rect x="250" y="228.08" width="31" height="3" transform="rotate(135 250 228.08)" fill="#38BDF8" />
  <g class="skills-card-logo">
    <path d="M91.294 164.186C91.294 163.383 91.2071 162.748 91.0333 162.28C90.8594 161.812 90.5719 161.457 90.1707 161.217C89.7695 160.976 89.2412 160.822 88.5859 160.755C87.9306 160.689 87.1216 160.655 86.1587 160.655H81.0032C80.1474 160.655 79.4252 160.682 78.8368 160.735C78.255 160.782 77.7736 160.882 77.3924 161.036C77.0113 161.19 76.7171 161.411 76.5098 161.698C76.3025 161.986 76.1521 162.367 76.0585 162.842C75.9648 163.316 75.9113 163.901 75.898 164.597C75.8846 165.286 75.8779 166.111 75.8779 167.074C75.8779 168.037 75.8846 168.866 75.898 169.562C75.918 170.25 75.9749 170.832 76.0685 171.307C76.1621 171.782 76.3092 172.163 76.5098 172.45C76.7171 172.738 77.0113 172.959 77.3924 173.112C77.7736 173.266 78.255 173.37 78.8368 173.423C79.4252 173.47 80.1474 173.494 81.0032 173.494H86.1687C86.9176 173.494 87.5629 173.473 88.1045 173.433C88.6461 173.393 89.1075 173.32 89.4886 173.213C89.8698 173.106 90.1774 172.959 90.4114 172.771C90.6454 172.584 90.826 172.35 90.953 172.069C91.0868 171.782 91.177 171.441 91.2238 171.046C91.2706 170.645 91.294 170.177 91.294 169.642V168.679H83.5709V167.074H93.2198V169.642C93.2198 170.284 93.1797 170.866 93.0994 171.387C93.0192 171.902 92.8754 172.363 92.6682 172.771C92.4675 173.173 92.1967 173.52 91.8557 173.814C91.5147 174.109 91.0834 174.353 90.5618 174.547C90.0403 174.734 89.4184 174.871 88.6963 174.958C87.9741 175.052 87.1316 175.098 86.1687 175.098H81.0032C79.8264 175.098 78.8334 175.025 78.0243 174.878C77.2219 174.737 76.56 174.523 76.0384 174.236C75.5168 173.942 75.1123 173.574 74.8248 173.132C74.5439 172.691 74.3366 172.173 74.2029 171.578C74.0759 170.983 74.0023 170.311 73.9822 169.562C73.9622 168.813 73.9521 167.984 73.9521 167.074C73.9521 166.165 73.9622 165.336 73.9822 164.587C74.0023 163.838 74.0759 163.166 74.2029 162.571C74.3366 161.976 74.5439 161.457 74.8248 161.016C75.1123 160.575 75.5168 160.21 76.0384 159.923C76.56 159.629 77.2219 159.411 78.0243 159.271C78.8334 159.124 79.8264 159.05 81.0032 159.05H86.1587C87.1216 159.05 87.9641 159.097 88.6862 159.191C89.4084 159.278 90.0303 159.415 90.5518 159.602C91.0734 159.782 91.5047 160.013 91.8457 160.294C92.1934 160.575 92.4675 160.906 92.6682 161.287C92.8754 161.668 93.0192 162.099 93.0994 162.581C93.1797 163.062 93.2198 163.597 93.2198 164.186H91.294Z" fill="#38BDF8" />
    <path d="M95.4766 168.92C95.4766 167.736 95.6036 166.757 95.8577 165.981C96.1118 165.205 96.5197 164.59 97.0814 164.136C97.643 163.681 98.3719 163.363 99.2679 163.183C100.164 162.995 101.254 162.902 102.538 162.902C103.822 162.902 104.911 162.995 105.807 163.183C106.703 163.363 107.432 163.681 107.994 164.136C108.556 164.59 108.964 165.205 109.218 165.981C109.472 166.757 109.599 167.736 109.599 168.92C109.599 170.103 109.472 171.086 109.218 171.869C108.964 172.651 108.556 173.273 107.994 173.734C107.432 174.196 106.703 174.523 105.807 174.717C104.911 174.904 103.822 174.998 102.538 174.998C101.254 174.998 100.164 174.904 99.2679 174.717C98.3719 174.523 97.643 174.196 97.0814 173.734C96.5197 173.273 96.1118 172.651 95.8577 171.869C95.6036 171.086 95.4766 170.103 95.4766 168.92ZM97.4023 168.92C97.4023 169.562 97.4257 170.12 97.4725 170.595C97.5193 171.07 97.6063 171.477 97.7333 171.818C97.867 172.16 98.0509 172.437 98.285 172.651C98.519 172.865 98.8266 173.035 99.2077 173.163C99.5889 173.29 100.05 173.376 100.592 173.423C101.14 173.47 101.789 173.494 102.538 173.494C103.18 173.494 103.751 173.48 104.253 173.453C104.761 173.42 105.202 173.35 105.577 173.243C105.958 173.136 106.282 172.985 106.55 172.791C106.817 172.591 107.031 172.32 107.192 171.979C107.359 171.638 107.479 171.22 107.553 170.725C107.633 170.224 107.673 169.622 107.673 168.92C107.673 168.231 107.633 167.646 107.553 167.165C107.479 166.676 107.359 166.269 107.192 165.941C107.031 165.613 106.817 165.356 106.55 165.169C106.282 164.975 105.958 164.831 105.577 164.737C105.202 164.637 104.761 164.573 104.253 164.547C103.751 164.52 103.18 164.507 102.538 164.507C101.896 164.507 101.321 164.52 100.813 164.547C100.311 164.573 99.8697 164.637 99.4886 164.737C99.1141 164.831 98.7931 164.975 98.5257 165.169C98.2582 165.356 98.0409 165.613 97.8737 165.941C97.7132 166.269 97.5929 166.676 97.5126 167.165C97.4391 167.646 97.4023 168.231 97.4023 168.92Z" fill="#38BDF8" />
    <path d="M116.981 174.777V159.371H118.907V173.173H131.103V174.777H116.981Z" fill="#38BDF8" />
    <path d="M143.249 173.193C143.229 173.273 143.079 173.473 142.798 173.794C142.598 174.035 142.33 174.249 141.996 174.436C141.661 174.617 141.213 174.757 140.652 174.858C140.097 174.965 139.365 175.018 138.455 175.018C137.245 175.018 136.212 174.955 135.356 174.828C134.5 174.707 133.801 174.52 133.26 174.266C132.718 174.005 132.32 173.674 132.066 173.273C131.819 172.872 131.695 172.394 131.695 171.839C131.695 171.257 131.762 170.765 131.896 170.364C132.036 169.956 132.237 169.615 132.497 169.341C132.765 169.067 133.086 168.853 133.46 168.699C133.835 168.545 134.259 168.428 134.734 168.348C135.215 168.268 135.74 168.218 136.309 168.198C136.877 168.178 137.482 168.168 138.124 168.168C139.04 168.168 139.806 168.208 140.421 168.288C141.036 168.361 141.538 168.458 141.926 168.579C142.32 168.692 142.618 168.816 142.818 168.95C143.019 169.084 143.163 169.207 143.249 169.321C143.249 168.572 143.216 167.934 143.149 167.405C143.089 166.877 142.985 166.436 142.838 166.081C142.698 165.727 142.514 165.446 142.287 165.239C142.059 165.025 141.778 164.864 141.444 164.757C141.116 164.65 140.732 164.584 140.291 164.557C139.849 164.523 139.344 164.507 138.776 164.507C137.893 164.507 137.161 164.53 136.58 164.577C135.998 164.617 135.536 164.701 135.195 164.828C134.854 164.955 134.614 165.132 134.473 165.359C134.333 165.58 134.263 165.871 134.263 166.232H132.337C132.337 165.623 132.444 165.108 132.658 164.687C132.878 164.266 133.24 163.925 133.741 163.664C134.249 163.397 134.915 163.203 135.737 163.082C136.559 162.962 137.573 162.902 138.776 162.902C139.953 162.902 140.949 162.999 141.765 163.193C142.581 163.387 143.239 163.728 143.741 164.216C144.249 164.704 144.614 165.363 144.834 166.192C145.062 167.014 145.175 168.057 145.175 169.321V174.777H143.249V173.193ZM138.776 173.494C139.625 173.494 140.334 173.453 140.902 173.373C141.478 173.293 141.939 173.173 142.287 173.012C142.634 172.852 142.882 172.651 143.029 172.41C143.176 172.17 143.249 171.889 143.249 171.568C143.249 171.247 143.163 170.976 142.989 170.755C142.822 170.528 142.537 170.344 142.136 170.204C141.742 170.063 141.217 169.963 140.561 169.903C139.906 169.836 139.097 169.802 138.134 169.802C137.171 169.802 136.392 169.819 135.797 169.853C135.209 169.886 134.754 169.963 134.433 170.083C134.112 170.204 133.895 170.381 133.781 170.615C133.674 170.849 133.621 171.167 133.621 171.568C133.621 171.969 133.678 172.297 133.791 172.551C133.912 172.798 134.152 172.992 134.513 173.132C134.874 173.273 135.393 173.37 136.068 173.423C136.75 173.47 137.653 173.494 138.776 173.494Z" fill="#38BDF8" />
    <path d="M159.308 174.777V168.358C159.308 167.643 159.254 167.041 159.147 166.553C159.04 166.058 158.826 165.66 158.505 165.359C158.184 165.058 157.729 164.841 157.141 164.707C156.553 164.573 155.777 164.507 154.814 164.507C153.771 164.507 152.915 164.584 152.246 164.737C151.584 164.891 151.063 165.108 150.682 165.389C150.301 165.67 150.036 166.008 149.889 166.402C149.749 166.797 149.679 167.235 149.679 167.716V174.777H147.753V163.223H149.679V165.149C149.819 164.821 150.02 164.54 150.281 164.306C150.541 164.065 150.836 163.861 151.163 163.694C151.491 163.527 151.845 163.393 152.226 163.293C152.607 163.186 152.989 163.106 153.37 163.052C153.751 162.992 154.119 162.952 154.473 162.932C154.834 162.912 155.162 162.902 155.456 162.902C156.312 162.902 157.047 162.955 157.663 163.062C158.284 163.169 158.809 163.326 159.237 163.534C159.672 163.741 160.02 163.998 160.28 164.306C160.541 164.614 160.742 164.971 160.882 165.379C161.029 165.78 161.126 166.232 161.173 166.733C161.22 167.228 161.243 167.77 161.243 168.358L161.233 174.777H159.308Z" fill="#38BDF8" />
    <path d="M170.561 164.507C169.812 164.507 169.164 164.53 168.615 164.577C168.074 164.624 167.612 164.707 167.231 164.828C166.85 164.948 166.539 165.115 166.298 165.329C166.064 165.543 165.881 165.817 165.747 166.152C165.62 166.486 165.533 166.89 165.486 167.365C165.446 167.833 165.426 168.385 165.426 169.02C165.426 169.649 165.446 170.197 165.486 170.665C165.533 171.126 165.62 171.524 165.747 171.859C165.881 172.186 166.064 172.457 166.298 172.671C166.539 172.885 166.85 173.052 167.231 173.173C167.612 173.293 168.074 173.376 168.615 173.423C169.164 173.47 169.812 173.494 170.561 173.494C171.203 173.494 171.775 173.48 172.276 173.453C172.778 173.42 173.219 173.353 173.6 173.253C173.981 173.146 174.302 172.995 174.563 172.801C174.831 172.601 175.048 172.337 175.215 172.009C175.382 171.675 175.503 171.264 175.576 170.775C175.656 170.281 175.697 169.685 175.697 168.99C175.697 168.295 175.656 167.7 175.576 167.205C175.503 166.71 175.382 166.299 175.215 165.971C175.048 165.637 174.831 165.373 174.563 165.179C174.302 164.985 173.981 164.838 173.6 164.737C173.219 164.637 172.778 164.573 172.276 164.547C171.775 164.52 171.203 164.507 170.561 164.507ZM177.622 173.173C177.622 174.296 177.495 175.229 177.241 175.971C176.987 176.713 176.579 177.312 176.018 177.766C175.456 178.228 174.727 178.549 173.831 178.729C172.935 178.91 171.845 179 170.561 179C169.358 179 168.345 178.946 167.522 178.84C166.706 178.733 166.048 178.562 165.546 178.328C165.045 178.101 164.684 177.803 164.463 177.435C164.249 177.074 164.142 176.633 164.142 176.111H166.068C166.068 176.372 166.135 176.586 166.268 176.753C166.409 176.92 166.65 177.051 166.991 177.144C167.332 177.238 167.79 177.302 168.365 177.335C168.946 177.375 169.679 177.395 170.561 177.395C171.524 177.395 172.333 177.358 172.988 177.285C173.644 177.218 174.172 177.054 174.573 176.793C174.974 176.533 175.262 176.138 175.436 175.61C175.61 175.082 175.697 174.376 175.697 173.494C175.603 173.654 175.453 173.828 175.245 174.015C175.045 174.202 174.747 174.376 174.353 174.537C173.965 174.697 173.463 174.831 172.848 174.938C172.233 175.045 171.471 175.098 170.561 175.098C169.277 175.098 168.187 175.001 167.291 174.807C166.395 174.62 165.667 174.296 165.105 173.835C164.543 173.373 164.135 172.751 163.881 171.969C163.627 171.187 163.5 170.204 163.5 169.02C163.5 167.817 163.627 166.82 163.881 166.031C164.135 165.242 164.543 164.617 165.105 164.156C165.667 163.694 166.395 163.37 167.291 163.183C168.187 162.995 169.277 162.902 170.561 162.902C171.471 162.902 172.233 162.949 172.848 163.042C173.463 163.136 173.965 163.253 174.353 163.393C174.747 163.534 175.045 163.688 175.245 163.855C175.453 164.015 175.603 164.162 175.697 164.296V163.223H177.622V173.173Z" fill="#38BDF8" />
    <path d="M65.1179 94.7131C64.8848 94.7131 64.8265 94.5966 64.9431 94.4217L66.1755 92.8312C66.2555 92.7376 66.3552 92.6629 66.4675 92.6125C66.5799 92.5621 66.7019 92.5373 66.825 92.5397H87.835C88.0681 92.5397 88.1264 92.7146 88.0098 92.8895L87.0106 94.4217C86.8675 94.6119 86.6549 94.7377 86.4193 94.7714L65.1179 94.7131Z" fill="#38BDF8" />
    <path d="M56.2332 100.126C56 100.126 55.9417 100.01 56.0583 99.8348L57.2908 98.2443C57.3707 98.1507 57.4705 98.0761 57.5828 98.0257C57.6951 97.9753 57.8172 97.9504 57.9403 97.9529H84.7877C84.8329 97.9461 84.8791 97.9511 84.9219 97.9674C84.9646 97.9837 85.0024 98.0107 85.0317 98.0458C85.061 98.081 85.0807 98.123 85.0891 98.168C85.0974 98.213 85.094 98.2593 85.0792 98.3026L84.6045 99.7183C84.5676 99.8278 84.4951 99.9218 84.3985 99.9852C84.3018 100.049 84.1867 100.078 84.0716 100.068L56.2332 100.126Z" fill="#38BDF8" />
    <path d="M70.4724 105.539C70.2393 105.539 70.181 105.364 70.2976 105.189L71.1303 103.715C71.1958 103.616 71.283 103.533 71.3855 103.472C71.4879 103.411 71.6029 103.375 71.7215 103.365H83.4881C83.7213 103.365 83.8378 103.54 83.8378 103.774L83.7213 105.189C83.7135 105.295 83.6681 105.394 83.5932 105.469C83.5182 105.544 83.4189 105.589 83.3132 105.597L70.4724 105.539Z" fill="#38BDF8" />
    <path d="M131.563 93.6224C127.857 94.5634 125.326 95.2879 121.678 96.2122C120.796 96.4454 120.737 96.5037 120.013 95.621C119.274 94.6732 118.328 93.907 117.248 93.3809C113.542 91.5572 109.953 92.0902 106.597 94.2636C104.689 95.4211 103.125 97.0691 102.069 99.0359C101.013 101.003 100.504 103.217 100.593 105.447C100.568 107.69 101.36 109.866 102.822 111.567C104.284 113.269 106.316 114.379 108.538 114.691C110.397 114.967 112.296 114.755 114.048 114.074C115.8 113.394 117.345 112.269 118.531 110.81C119.064 110.161 119.53 109.453 120.121 108.637H108.729C107.497 108.637 107.197 107.87 107.613 106.871C108.38 105.048 109.787 101.983 110.611 100.459C110.738 100.175 110.945 99.9352 111.207 99.7679C111.469 99.6007 111.774 99.5139 112.085 99.5182H133.503C133.387 101.109 133.387 102.699 133.153 104.281C132.542 108.472 130.881 112.439 128.324 115.815C126.362 118.54 123.86 120.834 120.975 122.553C118.09 124.272 114.883 125.38 111.552 125.808C108.79 126.258 105.964 126.146 103.246 125.479C100.527 124.813 97.9712 123.604 95.7303 121.927C93.6339 120.397 91.8832 118.443 90.5919 116.192C89.3006 113.941 88.4978 111.443 88.2356 108.861C87.4695 102.449 89.3515 96.6785 93.2321 91.6155C97.2164 86.2333 103.116 82.5874 109.712 81.4311C115.241 80.4318 120.537 81.0814 125.309 84.3124C128.363 86.3471 130.74 89.2465 132.137 92.6398C132.504 93.1811 132.254 93.4725 131.563 93.6224Z" fill="#38BDF8" />
    <path d="M151.041 126.19C145.792 126.226 140.702 124.389 136.685 121.011C133.258 118.122 130.999 114.084 130.331 109.652C129.273 102.99 131.097 97.1195 135.094 91.8816C139.391 86.2357 144.571 83.2878 151.574 82.0553C157.578 80.9977 163.232 81.5807 168.345 85.0532C170.611 86.4965 172.531 88.4203 173.97 90.6882C175.409 92.9562 176.332 95.5129 176.673 98.1771C177.245 101.808 176.928 105.523 175.749 109.004C174.57 112.485 172.563 115.628 169.902 118.163C166.052 122.037 161.115 124.651 155.746 125.657C154.155 125.957 152.573 126.015 151.041 126.19ZM165.048 102.416C165.027 101.766 164.968 101.118 164.873 100.475C164.657 99.1436 164.165 97.8716 163.429 96.7408C162.693 95.61 161.728 94.6453 160.598 93.9085C159.468 93.1716 158.196 92.6789 156.864 92.4618C155.533 92.2447 154.17 92.308 152.865 92.6477C150.315 93.1175 147.967 94.3471 146.129 96.1749C144.291 98.0028 143.048 100.344 142.564 102.89C142.028 105.085 142.276 107.398 143.264 109.429C144.253 111.46 145.919 113.083 147.977 114.016C149.495 114.699 151.15 115.023 152.814 114.962C154.478 114.902 156.105 114.458 157.57 113.666C162.216 111.251 164.748 107.487 165.064 102.424L165.048 102.416Z" fill="#38BDF8" />

  </g>
</svg>