<svg width="250" height="250" viewBox="0 0 250 250" fill="none" xmlns="http://www.w3.org/2000/svg">
<path d="M22 0H62V3H22V0Z" fill="#38BDF8"/>
<path d="M0 62L0 22H3L3 62H0Z" fill="#38BDF8"/>
<path d="M0 21.9204L21.9203 0.000100315L24.0416 2.12142L2.12132 24.0417L0 21.9204Z" fill="#38BDF8"/>
<path d="M228 250H188V247H228V250Z" fill="#38BDF8"/>
<path d="M250 188V228H247V188H250Z" fill="#38BDF8"/>
<path d="M250 228.08L228.08 250L225.958 247.879L247.879 225.958L250 228.08Z" fill="#38BDF8"/>
<path d="M62.7732 161.53H66.1332L73.6932 181H70.6632L68.4432 175.09H60.1032L57.9132 181H55.0332L62.7732 161.53ZM67.7232 173.08L64.4232 164.29H64.1532L60.8532 173.08H67.7232Z" fill="#38BDF8"/>
<path d="M76.4935 166.48H79.0435V168.85C79.0435 168.39 79.2435 167.96 79.6435 167.56C80.0435 167.14 80.5535 166.81 81.1735 166.57C81.7935 166.31 82.4035 166.18 83.0035 166.18H84.3235V168.49H82.8235C81.5435 168.49 80.6135 168.66 80.0335 169C79.4735 169.32 79.1935 169.91 79.1935 170.77V181H76.4935V166.48Z" fill="#38BDF8"/>
<path d="M92.8611 181.3C91.8611 181.3 91.1311 181.28 90.6711 181.24C90.2311 181.2 89.7211 181.1 89.1411 180.94C88.5211 180.78 88.0411 180.54 87.7011 180.22C87.3611 179.9 87.0711 179.43 86.8311 178.81C86.5911 178.21 86.4711 177.46 86.4711 176.56V171.22C86.4711 169.6 86.7811 168.44 87.4011 167.74C87.7411 167.34 88.0811 167.04 88.4211 166.84C88.7811 166.62 89.2411 166.47 89.8011 166.39C90.3611 166.31 90.8611 166.26 91.3011 166.24C91.7411 166.2 92.3611 166.18 93.1611 166.18C94.5411 166.18 95.9211 166.33 97.3011 166.63V168.61C95.7011 168.21 94.2111 168.01 92.8311 168.01C91.7911 168.01 91.0211 168.09 90.5211 168.25C90.0411 168.39 89.7011 168.66 89.5011 169.06C89.3211 169.44 89.2311 170.03 89.2311 170.83V176.77C89.2311 177.51 89.3311 178.06 89.5311 178.42C89.7511 178.78 90.1311 179.04 90.6711 179.2C91.2311 179.34 92.0511 179.41 93.1311 179.41C94.5911 179.41 96.0511 179.22 97.5111 178.84V180.88C96.1511 181.16 94.6011 181.3 92.8611 181.3Z" fill="#38BDF8"/>
<path d="M100.927 160H103.627V168.25C103.907 166.87 105.497 166.18 108.397 166.18C110.257 166.18 111.557 166.52 112.297 167.2C113.057 167.86 113.437 168.91 113.437 170.35V181H110.737V170.53C110.737 170.15 110.707 169.84 110.647 169.6C110.587 169.36 110.467 169.12 110.287 168.88C109.887 168.38 108.997 168.13 107.617 168.13C106.517 168.13 105.677 168.21 105.097 168.37C104.537 168.51 104.147 168.75 103.927 169.09C103.727 169.43 103.627 169.91 103.627 170.53V181H100.927V160Z" fill="#38BDF8"/>
<path d="M125.218 161.53H128.128V178.96H137.698V181H125.218V161.53Z" fill="#38BDF8"/>
<path d="M140.624 161.23H143.324V164.05H140.624V161.23ZM140.624 166.48H143.324V181H140.624V166.48Z" fill="#38BDF8"/>
<path d="M148.007 166.48H150.707V168.25C150.987 166.87 152.577 166.18 155.477 166.18C157.337 166.18 158.637 166.52 159.377 167.2C160.137 167.86 160.517 168.91 160.517 170.35V181H157.817V170.5C157.817 170.12 157.787 169.81 157.727 169.57C157.667 169.33 157.547 169.09 157.367 168.85C156.967 168.35 156.077 168.1 154.697 168.1C153.637 168.1 152.817 168.18 152.237 168.34C151.677 168.48 151.277 168.72 151.037 169.06C150.817 169.4 150.707 169.88 150.707 170.5V181H148.007V166.48Z" fill="#38BDF8"/>
<path d="M170.244 181.3C168.384 181.3 167.074 180.97 166.314 180.31C165.574 179.63 165.204 178.57 165.204 177.13V166.48H167.904V176.98C167.904 177.36 167.934 177.67 167.994 177.91C168.074 178.13 168.204 178.36 168.384 178.6C168.744 179.12 169.624 179.38 171.024 179.38C172.504 179.38 173.544 179.24 174.144 178.96C174.724 178.68 175.014 178.17 175.014 177.43V166.48H177.714V181H175.014V179.23C174.754 180.61 173.164 181.3 170.244 181.3Z" fill="#38BDF8"/>
<path d="M185.762 173.53L180.662 166.48H183.632L187.232 171.79L190.862 166.48H193.832L188.732 173.53L194.132 181H191.162L187.232 175.27L183.332 181H180.362L185.762 173.53Z" fill="#38BDF8"/>
<path d="M125.5 45.0001C121.538 54.7127 119.132 61.0743 114.723 70.4986C117.426 73.3647 120.75 76.691 126.141 80.461C120.345 78.0761 116.394 75.6884 113.44 73.2034C107.796 84.9819 98.946 101.754 81 134C95.1009 125.859 106.034 120.836 116.222 118.92C115.785 117.041 115.553 115 115.569 112.879L115.581 112.434C115.805 103.398 120.506 96.449 126.076 96.9204C131.644 97.3919 135.98 105.103 135.756 114.141C135.713 115.843 135.515 117.478 135.18 118.997C145.258 120.968 156.087 125.968 170 134C167.256 128.949 164.799 124.398 162.46 120.06C158.776 117.205 154.935 113.491 147.098 109.468C152.485 110.868 156.345 112.487 159.352 114.292C135.575 70.0216 133.653 64.1351 125.5 45.0001V45V45.0001Z" fill="#38BDF8"/>
</svg>
