<svg width="250" height="250" viewBox="0 0 250 250" fill="none" xmlns="http://www.w3.org/2000/svg">
<rect x="22" width="40" height="3" fill="#38BDF8"/>
<rect y="62" width="40" height="3" transform="rotate(-90 0 62)" fill="#38BDF8"/>
<rect y="21.9204" width="31" height="3" transform="rotate(-45 0 21.9204)" fill="#38BDF8"/>
<rect x="228" y="250" width="40" height="3" transform="rotate(-180 228 250)" fill="#38BDF8"/>
<rect x="250" y="188" width="40" height="3" transform="rotate(90 250 188)" fill="#38BDF8"/>
<rect x="250" y="228.08" width="31" height="3" transform="rotate(135 250 228.08)" fill="#38BDF8"/>
<path d="M69.8659 170.135H57.2991L55.3149 173.773H53L62.2597 157.899H64.9053L74.165 173.773H71.8501L69.8659 170.135ZM68.8738 168.481L63.5825 159.222L58.2913 168.481H68.8738Z" fill="#38BDF8"/>
<path d="M86.401 165.743C86.401 165.247 86.3631 164.837 86.2874 164.513C86.2185 164.182 86.0497 163.92 85.781 163.728C85.5123 163.528 85.1127 163.39 84.5822 163.314C84.0586 163.232 83.342 163.19 82.4326 163.19C81.5438 163.19 80.8204 163.269 80.2624 163.428C79.7043 163.579 79.2668 163.796 78.9499 164.079C78.633 164.361 78.4159 164.699 78.2988 165.092C78.1886 165.484 78.1335 165.922 78.1335 166.404V173.773H76.1492V161.867H78.1335V163.759C78.2024 163.545 78.3298 163.311 78.5158 163.056C78.7019 162.794 78.9843 162.553 79.3633 162.332C79.7422 162.105 80.2314 161.916 80.8308 161.764C81.437 161.612 82.1915 161.537 83.094 161.537C84.1275 161.537 84.968 161.63 85.6156 161.816C86.2632 161.995 86.7662 162.264 87.1245 162.622C87.4896 162.973 87.7342 163.411 87.8582 163.934C87.9891 164.458 88.0546 165.061 88.0546 165.743H86.401Z" fill="#38BDF8"/>
<path d="M89.0467 167.841C89.0467 167.014 89.088 166.284 89.1707 165.65C89.2534 165.016 89.398 164.465 89.6047 163.996C89.8183 163.528 90.1008 163.139 90.4522 162.828C90.8104 162.512 91.2582 162.257 91.7956 162.064C92.3399 161.871 92.9841 161.733 93.7282 161.65C94.4723 161.568 95.3404 161.526 96.3325 161.526C97.6553 161.526 98.7439 161.609 99.5982 161.774C100.452 161.933 101.128 162.181 101.624 162.518C102.12 162.849 102.464 163.273 102.657 163.79C102.85 164.299 102.947 164.909 102.947 165.619H100.962C100.962 165.364 100.955 165.126 100.942 164.906C100.928 164.685 100.876 164.485 100.787 164.306C100.704 164.127 100.57 163.969 100.384 163.831C100.198 163.686 99.9323 163.566 99.5878 163.469C99.2434 163.373 98.8059 163.3 98.2754 163.252C97.7517 163.204 97.1041 163.18 96.3325 163.18C95.4506 163.18 94.7065 163.211 94.1002 163.273C93.5008 163.335 93.0048 163.438 92.6121 163.583C92.2194 163.721 91.9162 163.91 91.7026 164.151C91.4891 164.386 91.334 164.675 91.2376 165.019C91.1411 165.364 91.0826 165.77 91.0619 166.239C91.0481 166.7 91.0412 167.234 91.0412 167.841C91.0412 168.433 91.0481 168.96 91.0619 169.422C91.0826 169.877 91.1411 170.276 91.2376 170.621C91.334 170.958 91.4891 171.244 91.7026 171.478C91.9162 171.713 92.2194 171.902 92.6121 172.047C93.0048 172.192 93.5008 172.295 94.1002 172.357C94.7065 172.419 95.4506 172.45 96.3325 172.45C97.1041 172.45 97.7517 172.422 98.2754 172.367C98.8059 172.312 99.2434 172.233 99.5878 172.13C99.9323 172.026 100.198 171.899 100.384 171.747C100.57 171.596 100.704 171.423 100.787 171.23C100.876 171.031 100.928 170.814 100.942 170.579C100.955 170.338 100.962 170.08 100.962 169.804H102.947C102.947 170.528 102.85 171.155 102.657 171.685C102.464 172.216 102.12 172.653 101.624 172.998C101.128 173.335 100.452 173.587 99.5982 173.752C98.7439 173.917 97.6553 174 96.3325 174C95.3404 174 94.4723 173.959 93.7282 173.876C92.9841 173.793 92.3399 173.659 91.7956 173.473C91.2582 173.28 90.8104 173.029 90.4522 172.719C90.1008 172.409 89.8183 172.026 89.6047 171.571C89.398 171.117 89.2534 170.583 89.1707 169.97C89.088 169.35 89.0467 168.64 89.0467 167.841Z" fill="#38BDF8"/>
<path d="M117.508 173.773V167.055C117.508 166.339 117.453 165.736 117.342 165.247C117.232 164.751 117.012 164.351 116.681 164.048C116.35 163.745 115.882 163.528 115.276 163.397C114.669 163.259 113.87 163.19 112.878 163.19C111.803 163.19 110.921 163.269 110.232 163.428C109.55 163.579 109.013 163.796 108.62 164.079C108.227 164.355 107.955 164.689 107.804 165.081C107.659 165.474 107.587 165.912 107.587 166.394V173.773H105.603V157.899H107.587V163.748C107.725 163.424 107.921 163.145 108.176 162.911C108.431 162.677 108.724 162.477 109.054 162.312C109.392 162.146 109.754 162.015 110.139 161.919C110.525 161.816 110.914 161.736 111.307 161.681C111.707 161.626 112.096 161.588 112.475 161.568C112.861 161.547 113.216 161.537 113.539 161.537C114.421 161.537 115.179 161.592 115.813 161.702C116.454 161.805 116.995 161.964 117.435 162.177C117.883 162.384 118.242 162.642 118.51 162.952C118.779 163.263 118.986 163.624 119.13 164.038C119.282 164.444 119.382 164.902 119.43 165.412C119.478 165.915 119.502 166.463 119.502 167.055L119.492 173.773H117.508Z" fill="#38BDF8"/>
<path d="M127.45 173.773V157.899H129.434V172.119H142.001V173.773H127.45Z" fill="#38BDF8"/>
<path d="M144.646 161.867H146.63V173.773H144.646V161.867ZM146.63 159.883H144.646V157.899H146.63V159.883Z" fill="#38BDF8"/>
<path d="M161.843 173.773V167.159C161.843 166.421 161.788 165.801 161.677 165.298C161.567 164.789 161.347 164.379 161.016 164.069C160.685 163.759 160.217 163.535 159.611 163.397C159.004 163.259 158.205 163.19 157.213 163.19C156.138 163.19 155.256 163.269 154.567 163.428C153.885 163.586 153.348 163.81 152.955 164.1C152.562 164.389 152.29 164.737 152.139 165.143C151.994 165.55 151.922 166.001 151.922 166.497V173.773H149.937V161.867H151.922V163.852C152.066 163.514 152.273 163.225 152.542 162.983C152.81 162.735 153.114 162.525 153.451 162.353C153.789 162.181 154.154 162.043 154.547 161.94C154.939 161.829 155.332 161.747 155.725 161.692C156.117 161.63 156.496 161.588 156.862 161.568C157.234 161.547 157.571 161.537 157.874 161.537C158.756 161.537 159.514 161.592 160.148 161.702C160.789 161.812 161.329 161.974 161.77 162.188C162.218 162.401 162.576 162.667 162.845 162.983C163.114 163.3 163.321 163.669 163.465 164.089C163.617 164.503 163.717 164.968 163.765 165.484C163.813 165.994 163.837 166.552 163.837 167.159L163.827 173.773H161.843Z" fill="#38BDF8"/>
<path d="M168.488 161.867V168.481C168.488 169.219 168.543 169.842 168.653 170.352C168.763 170.855 168.984 171.261 169.315 171.571C169.645 171.881 170.114 172.105 170.72 172.243C171.326 172.381 172.126 172.45 173.118 172.45C174.192 172.45 175.071 172.371 175.753 172.212C176.442 172.054 176.983 171.83 177.375 171.54C177.768 171.251 178.037 170.903 178.182 170.497C178.333 170.09 178.409 169.639 178.409 169.143V161.867H180.393V173.773H178.409V171.788C178.312 172.002 178.151 172.24 177.923 172.502C177.696 172.756 177.355 172.994 176.9 173.215C176.445 173.435 175.856 173.621 175.133 173.773C174.416 173.924 173.524 174 172.456 174C171.567 174 170.803 173.945 170.162 173.835C169.528 173.731 168.987 173.576 168.539 173.37C168.099 173.156 167.744 172.894 167.475 172.584C167.206 172.274 167 171.916 166.855 171.509C166.71 171.096 166.614 170.638 166.566 170.135C166.517 169.632 166.493 169.081 166.493 168.481L166.504 161.867H168.488Z" fill="#38BDF8"/>
<path d="M194.913 173.773H197.559L191.461 167.706L197.269 161.867H194.624L190.19 166.466L185.653 161.867H183.008L188.816 167.717L182.718 173.773H185.364L190.139 168.791L194.913 173.773Z" fill="#38BDF8"/>
<path d="M126.291 58.0001C122.937 66.2227 120.9 71.6085 117.167 79.5871C119.455 82.0135 122.269 84.8297 126.834 88.0213C121.927 86.0022 118.582 83.9808 116.081 81.877C111.303 91.8487 103.81 106.048 88.6172 133.347C100.555 126.456 109.811 122.203 118.436 120.581C118.066 118.99 117.87 117.262 117.884 115.467L117.893 115.09C118.083 107.44 122.063 101.557 126.778 101.956C131.492 102.355 135.163 108.883 134.973 116.534C134.937 117.975 134.77 119.36 134.486 120.646C143.018 122.315 152.186 126.547 163.965 133.347C161.642 129.071 159.561 125.218 157.581 121.546C154.463 119.129 151.211 115.985 144.576 112.579C149.136 113.764 152.405 115.135 154.95 116.663C134.82 79.1833 133.193 74.1998 126.291 58.0001Z" fill="#38BDF8"/>
</svg>
