<svg width="250" height="250" viewBox="0 0 250 250" fill="none" xmlns="http://www.w3.org/2000/svg">
<rect x="22" width="40" height="2" fill="#7DD8FF"/>
<rect y="62" width="40" height="2" transform="rotate(-90 0 62)" fill="#7DD8FF"/>
<rect y="21.9204" width="31" height="2" transform="rotate(-45 0 21.9204)" fill="#7DD8FF"/>
<rect x="228" y="250" width="40" height="2" transform="rotate(-180 228 250)" fill="#7DD8FF"/>
<rect x="250" y="188" width="40" height="2" transform="rotate(90 250 188)" fill="#7DD8FF"/>
<rect x="250" y="228.08" width="31" height="2" transform="rotate(135 250 228.08)" fill="#7DD8FF"/>
<path d="M65.0273 176H62.625V171.195H49.2188V168.805H62.625V161.598H54.0117C53.1914 161.598 52.418 161.758 51.6914 162.078C50.9648 162.391 50.332 162.82 49.793 163.367C49.2539 163.906 48.8242 164.539 48.5039 165.266C48.1914 165.992 48.0352 166.77 48.0352 167.598V176H45.6328V167.598C45.6328 166.824 45.7305 166.082 45.9258 165.371C46.1289 164.652 46.4102 163.984 46.7695 163.367C47.1367 162.742 47.5742 162.176 48.082 161.668C48.5977 161.152 49.1641 160.711 49.7812 160.344C50.4062 159.977 51.0742 159.695 51.7852 159.5C52.4961 159.297 53.2383 159.195 54.0117 159.195H65.0273V176ZM81.8789 165.195H72.8789C72.6289 165.195 72.3945 165.246 72.1758 165.348C71.957 165.441 71.7656 165.57 71.6016 165.734C71.4375 165.898 71.3086 166.09 71.2148 166.309C71.1211 166.527 71.0742 166.758 71.0742 167V176H68.6719V167C68.6719 166.414 68.7812 165.867 69 165.359C69.2188 164.852 69.5195 164.41 69.9023 164.035C70.2852 163.652 70.7305 163.352 71.2383 163.133C71.7461 162.914 72.293 162.805 72.8789 162.805H81.8789V165.195ZM97.2188 176H89.3672C88.4609 175.992 87.6094 175.816 86.8125 175.473C86.0156 175.121 85.3203 174.648 84.7266 174.055C84.1406 173.453 83.6758 172.754 83.332 171.957C82.9883 171.16 82.8164 170.309 82.8164 169.402C82.8164 168.496 82.9883 167.645 83.332 166.848C83.6758 166.043 84.1406 165.344 84.7266 164.75C85.3203 164.148 86.0156 163.676 86.8125 163.332C87.6094 162.98 88.4609 162.805 89.3672 162.805H97.2188V165.195H89.3672C88.7891 165.203 88.2461 165.32 87.7383 165.547C87.2383 165.766 86.8008 166.066 86.4258 166.449C86.0508 166.824 85.7539 167.266 85.5352 167.773C85.3242 168.281 85.2188 168.824 85.2188 169.402C85.2188 169.98 85.3242 170.523 85.5352 171.031C85.7539 171.539 86.0508 171.984 86.4258 172.367C86.8008 172.742 87.2383 173.043 87.7383 173.27C88.2461 173.488 88.7891 173.598 89.3672 173.598H97.2188V176ZM115.406 176H113.004V169.402C113.004 168.824 112.895 168.281 112.676 167.773C112.457 167.266 112.16 166.824 111.785 166.449C111.41 166.066 110.969 165.766 110.461 165.547C109.961 165.32 109.422 165.203 108.844 165.195H102.246V176H99.8438V158H102.246V162.805H108.844C109.75 162.805 110.602 162.98 111.398 163.332C112.195 163.676 112.891 164.148 113.484 164.75C114.078 165.344 114.547 166.043 114.891 166.848C115.234 167.645 115.406 168.496 115.406 169.402V176ZM143.988 176H127.934V159.195H130.336V173.598H143.988V176ZM148.969 159.805C148.969 160.055 148.922 160.289 148.828 160.508C148.734 160.719 148.605 160.906 148.441 161.07C148.277 161.234 148.086 161.363 147.867 161.457C147.648 161.551 147.418 161.598 147.176 161.598C146.926 161.598 146.691 161.551 146.473 161.457C146.254 161.363 146.062 161.234 145.898 161.07C145.734 160.906 145.605 160.719 145.512 160.508C145.418 160.289 145.371 160.055 145.371 159.805C145.371 159.562 145.418 159.332 145.512 159.113C145.605 158.895 145.734 158.703 145.898 158.539C146.062 158.375 146.254 158.246 146.473 158.152C146.691 158.051 146.926 158 147.176 158C147.418 158 147.648 158.051 147.867 158.152C148.086 158.246 148.277 158.375 148.441 158.539C148.605 158.703 148.734 158.895 148.828 159.113C148.922 159.332 148.969 159.562 148.969 159.805ZM148.371 176H145.969V162.805H148.371V176ZM154.23 176H151.828V162.805H160.828C161.734 162.805 162.586 162.98 163.383 163.332C164.18 163.676 164.875 164.148 165.469 164.75C166.062 165.344 166.531 166.043 166.875 166.848C167.219 167.645 167.391 168.496 167.391 169.402V176H164.988V169.402C164.988 168.824 164.879 168.281 164.66 167.773C164.441 167.266 164.145 166.824 163.77 166.449C163.395 166.066 162.953 165.766 162.445 165.547C161.945 165.32 161.406 165.203 160.828 165.195H154.23V176ZM185.965 176H176.965C176.059 176 175.207 175.828 174.41 175.484C173.613 175.133 172.918 174.66 172.324 174.066C171.738 173.465 171.273 172.766 170.93 171.969C170.586 171.164 170.414 170.309 170.414 169.402V162.805H172.816V169.402C172.816 169.98 172.922 170.523 173.133 171.031C173.352 171.531 173.648 171.973 174.023 172.355C174.398 172.73 174.836 173.031 175.336 173.258C175.844 173.477 176.387 173.59 176.965 173.598H183.562V162.805H185.965V176ZM204.902 176H201.48L196.336 171.031L191.297 176H187.863L194.684 169.426L187.863 162.805H191.297L204.902 176ZM204.902 162.805L199.195 168.371L197.473 166.836L201.48 162.805H204.902Z" fill="#7DD8FF"/>
<path d="M125.5 45.0001C121.538 54.7127 119.132 61.0743 114.723 70.4986C117.426 73.3647 120.75 76.691 126.141 80.461C120.345 78.0761 116.394 75.6884 113.44 73.2034C107.796 84.9819 98.946 101.754 81 134C95.1009 125.859 106.034 120.836 116.222 118.92C115.785 117.041 115.553 115 115.57 112.879L115.581 112.434C115.805 103.398 120.506 96.449 126.076 96.9204C131.644 97.3919 135.98 105.103 135.756 114.141C135.713 115.843 135.515 117.478 135.18 118.997C145.258 120.968 156.087 125.968 170 134C167.256 128.949 164.799 124.398 162.46 120.06C158.776 117.205 154.935 113.491 147.098 109.468C152.485 110.868 156.345 112.487 159.352 114.292C135.575 70.0216 133.653 64.1351 125.5 45.0001V45V45.0001Z" fill="#7DD8FF"/>
</svg>
