<svg width="250" height="250" viewBox="0 0 250 250" fill="none" xmlns="http://www.w3.org/2000/svg">
<rect x="22" width="40" height="3" fill="#38BDF8"/>
<rect y="62" width="40" height="3" transform="rotate(-90 0 62)" fill="#38BDF8"/>
<rect y="21.9204" width="31" height="3" transform="rotate(-45 0 21.9204)" fill="#38BDF8"/>
<rect x="228" y="250" width="40" height="3" transform="rotate(-180 228 250)" fill="#38BDF8"/>
<rect x="250" y="188" width="40" height="3" transform="rotate(90 250 188)" fill="#38BDF8"/>
<rect x="250" y="228.08" width="31" height="3" transform="rotate(135 250 228.08)" fill="#38BDF8"/>
<path d="M122.519 65.0197C122.362 65.0341 121.86 65.0842 121.409 65.12C110.996 66.0586 101.244 71.6759 95.0666 80.3096C91.6269 85.1101 89.427 90.5554 88.5957 96.3231C88.3019 98.3365 88.2661 98.9311 88.2661 101.661C88.2661 104.391 88.3019 104.985 88.5957 106.999C90.5879 120.763 100.384 132.327 113.669 136.611C116.048 137.378 118.557 137.901 121.409 138.216C122.519 138.338 127.321 138.338 128.431 138.216C133.354 137.672 137.525 136.454 141.638 134.354C142.269 134.032 142.39 133.946 142.304 133.874C142.247 133.831 139.56 130.227 136.335 125.871L130.474 117.954L123.128 107.085C119.087 101.109 115.762 96.2228 115.733 96.2228C115.705 96.2157 115.676 101.045 115.662 106.941C115.64 117.266 115.633 117.682 115.504 117.925C115.318 118.276 115.174 118.42 114.873 118.577C114.644 118.692 114.443 118.713 113.361 118.713H112.122L111.792 118.506C111.577 118.369 111.419 118.19 111.312 117.983L111.161 117.66L111.176 103.295L111.197 88.9218L111.419 88.6424C111.534 88.4919 111.778 88.2985 111.95 88.2053C112.243 88.062 112.358 88.0477 113.598 88.0477C115.06 88.0477 115.303 88.105 115.683 88.5206C115.791 88.6352 119.768 94.6251 124.526 101.84C129.284 109.055 135.791 118.907 138.987 123.743L144.791 132.534L145.085 132.341C147.686 130.65 150.438 128.243 152.616 125.735C157.253 120.411 160.241 113.92 161.244 106.999C161.538 104.985 161.574 104.391 161.574 101.661C161.574 98.9311 161.538 98.3365 161.244 96.3231C159.252 82.5594 149.456 70.9952 136.17 66.7106C133.827 65.9512 131.333 65.4281 128.539 65.1129C127.851 65.0412 123.114 64.9624 122.519 65.0197V65.0197ZM137.525 87.1879C137.869 87.3599 138.148 87.6894 138.249 88.0334C138.306 88.2196 138.32 92.2033 138.306 101.181L138.284 114.063L136.013 110.581L133.734 107.099V97.7346C133.734 91.6803 133.763 88.277 133.806 88.1122C133.92 87.7109 134.171 87.3957 134.515 87.2094C134.809 87.0589 134.916 87.0446 136.041 87.0446C137.102 87.0446 137.288 87.0589 137.525 87.1879V87.1879Z" fill="#38BDF8"/>
<path d="M80.9305 181.139H79V165.695H82.3884L96.5454 179.208V165.695H98.4759V181.139H95.9019L80.9305 167.304V181.139Z" fill="#38BDF8"/>
<path d="M108.46 181.36C107.173 181.36 106.081 181.273 105.182 181.099C104.284 180.918 103.554 180.609 102.991 180.174C102.427 179.738 102.019 179.155 101.764 178.424C101.509 177.693 101.382 176.775 101.382 175.669C101.382 174.402 101.509 173.357 101.764 172.532C102.019 171.701 102.427 171.041 102.991 170.551C103.554 170.062 104.284 169.72 105.182 169.526C106.081 169.331 107.173 169.234 108.46 169.234C109.379 169.234 110.173 169.301 110.843 169.435C111.52 169.569 112.097 169.764 112.573 170.018C113.055 170.273 113.444 170.581 113.739 170.943C114.041 171.305 114.275 171.687 114.443 172.09C114.617 172.485 114.734 172.951 114.795 173.487C114.862 174.023 114.895 174.59 114.895 175.186L114.734 175.83H103.312C103.312 176.715 103.399 177.442 103.574 178.012C103.748 178.575 104.036 178.987 104.438 179.249C104.841 179.51 105.37 179.678 106.027 179.751C106.684 179.818 107.495 179.852 108.46 179.852C109.345 179.852 110.076 179.828 110.652 179.781C111.235 179.728 111.698 179.631 112.04 179.49C112.382 179.349 112.62 179.155 112.754 178.907C112.894 178.652 112.965 178.324 112.965 177.921H114.895C114.895 178.545 114.785 179.078 114.563 179.52C114.349 179.956 113.99 180.311 113.488 180.586C112.985 180.854 112.321 181.048 111.497 181.169C110.679 181.296 109.667 181.36 108.46 181.36ZM108.46 170.843C107.817 170.843 107.24 170.856 106.731 170.883C106.228 170.91 105.786 170.97 105.404 171.064C105.028 171.151 104.707 171.282 104.438 171.456C104.17 171.624 103.952 171.825 103.785 172.059C103.624 172.287 103.503 172.612 103.423 173.035C103.349 173.45 103.312 173.953 103.312 174.543H112.965C112.965 173.759 112.881 173.145 112.713 172.703C112.546 172.254 112.281 171.885 111.919 171.597C111.557 171.309 111.091 171.111 110.521 171.004C109.952 170.896 109.265 170.843 108.46 170.843Z" fill="#38BDF8"/>
<path d="M128.047 181.139H130.621L124.689 175.237L130.339 169.556H127.765L123.452 174.03L119.038 169.556H116.464L122.115 175.247L116.182 181.139H118.756L123.402 176.292L128.047 181.139Z" fill="#38BDF8"/>
<path d="M144.134 175.991C144.134 176.976 144.054 177.801 143.893 178.464C143.732 179.121 143.461 179.647 143.079 180.043C142.703 180.438 142.207 180.72 141.59 180.887C140.974 181.055 140.213 181.139 139.308 181.139C138.43 181.139 137.693 181.072 137.096 180.938C136.499 180.804 136.017 180.576 135.648 180.254C135.279 179.932 135.015 179.503 134.854 178.967C134.693 178.431 134.613 177.76 134.613 176.956V171.144H132.23V169.556H134.613V166.389H136.543V169.556H143.813V171.144H136.543V176.956C136.543 177.6 136.59 178.096 136.684 178.444C136.784 178.793 136.942 179.047 137.156 179.208C137.371 179.369 137.652 179.463 138.001 179.49C138.356 179.517 138.789 179.53 139.298 179.53C139.7 179.53 140.059 179.523 140.374 179.51C140.696 179.497 140.974 179.456 141.208 179.389C141.45 179.316 141.654 179.208 141.822 179.068C141.989 178.92 142.123 178.716 142.224 178.454C142.331 178.193 142.408 177.864 142.455 177.469C142.502 177.067 142.526 176.574 142.526 175.991H144.134Z" fill="#38BDF8"/>
<path d="M148.639 181.139H146.708V179.208H148.639V181.139Z" fill="#38BDF8"/>
<path d="M154.752 181.782C154.752 182.278 154.719 182.724 154.652 183.12C154.585 183.515 154.43 183.85 154.189 184.125C153.948 184.407 153.592 184.621 153.123 184.769C152.654 184.923 152.017 185 151.213 185V183.391C151.535 183.391 151.799 183.368 152.007 183.321C152.215 183.274 152.379 183.19 152.5 183.069C152.62 182.949 152.704 182.784 152.751 182.577C152.798 182.369 152.822 182.104 152.822 181.782V169.556H154.752V181.782ZM154.752 167.625H152.822V165.695H154.752V167.625Z" fill="#38BDF8"/>
<path d="M164.726 175.86C165.477 175.86 166.117 175.874 166.647 175.9C167.176 175.92 167.619 175.961 167.974 176.021C168.336 176.075 168.621 176.145 168.829 176.232C169.036 176.319 169.194 176.45 169.301 176.624C169.408 176.792 169.476 176.963 169.502 177.137C169.536 177.305 169.553 177.499 169.553 177.72C169.553 177.962 169.536 178.183 169.502 178.384C169.476 178.578 169.405 178.756 169.291 178.917C169.177 179.078 169.01 179.215 168.788 179.329C168.567 179.443 168.266 179.54 167.884 179.621C167.501 179.701 167.026 179.761 166.456 179.802C165.893 179.835 165.209 179.852 164.405 179.852C163.52 179.852 162.786 179.828 162.203 179.781C161.626 179.728 161.167 179.631 160.825 179.49C160.483 179.349 160.242 179.155 160.101 178.907C159.967 178.652 159.9 178.324 159.9 177.921H157.97C157.97 178.531 158.077 179.047 158.291 179.47C158.513 179.892 158.875 180.237 159.377 180.505C159.88 180.767 160.54 180.958 161.358 181.079C162.183 181.199 163.198 181.259 164.405 181.259C165.37 181.259 166.214 181.229 166.938 181.169C167.669 181.115 168.296 181.032 168.819 180.918C169.341 180.797 169.774 180.643 170.116 180.455C170.464 180.261 170.739 180.033 170.94 179.771C171.141 179.503 171.282 179.198 171.362 178.856C171.443 178.508 171.483 178.116 171.483 177.68C171.483 177.244 171.443 176.862 171.362 176.534C171.282 176.199 171.141 175.91 170.94 175.669C170.746 175.421 170.484 175.193 170.156 174.985C169.827 174.778 169.412 174.623 168.909 174.523C168.406 174.422 167.81 174.352 167.119 174.312C166.436 174.271 165.638 174.251 164.726 174.251C163.976 174.251 163.335 174.251 162.806 174.251C162.276 174.245 161.831 174.225 161.469 174.191C161.113 174.151 160.832 174.094 160.624 174.02C160.416 173.946 160.259 173.839 160.151 173.698C160.044 173.558 159.974 173.38 159.94 173.165C159.914 172.944 159.9 172.72 159.9 172.492C159.9 172.103 159.987 171.798 160.162 171.577C160.336 171.356 160.624 171.191 161.026 171.084C161.428 170.977 161.958 170.91 162.615 170.883C163.272 170.856 164.083 170.843 165.048 170.843C165.933 170.843 166.664 170.87 167.24 170.923C167.823 170.97 168.286 171.061 168.628 171.195C168.969 171.322 169.207 171.5 169.341 171.728C169.482 171.956 169.553 172.25 169.553 172.612H171.483C171.483 172.029 171.386 171.527 171.192 171.104C170.997 170.682 170.655 170.333 170.166 170.059C169.683 169.777 169.026 169.569 168.195 169.435C167.371 169.301 166.322 169.234 165.048 169.234C163.761 169.234 162.668 169.291 161.77 169.405C160.872 169.519 160.141 169.707 159.578 169.968C159.015 170.223 158.606 170.558 158.352 170.974C158.097 171.382 157.97 171.889 157.97 172.492C157.97 172.934 158.01 173.346 158.09 173.729C158.171 174.104 158.308 174.422 158.502 174.684C158.697 174.938 158.958 175.143 159.287 175.297C159.622 175.451 160.038 175.572 160.534 175.659C161.036 175.739 161.633 175.793 162.323 175.82C163.014 175.847 163.815 175.86 164.726 175.86Z" fill="#38BDF8"/>
</svg>
