<svg width="250" height="250" viewBox="0 0 250 250" fill="none" xmlns="http://www.w3.org/2000/svg">
<path d="M22 0H62V3H22V0Z" fill="#38BDF8"/>
<path d="M0 62L0 22H3L3 62H0Z" fill="#38BDF8"/>
<path d="M0 21.9204L21.9203 0.000100315L24.0416 2.12142L2.12132 24.0417L0 21.9204Z" fill="#38BDF8"/>
<path d="M228 250H188V247H228V250Z" fill="#38BDF8"/>
<path d="M250 188V228H247V188H250Z" fill="#38BDF8"/>
<path d="M250 228.08L228.08 250L225.958 247.879L247.879 225.958L250 228.08Z" fill="#38BDF8"/>
<path d="M121.586 47.024C121.394 47.0413 120.785 47.1022 120.237 47.1457C107.596 48.2853 95.7555 55.105 88.2562 65.5868C84.0803 71.4149 81.4094 78.0258 80.4002 85.0282C80.0435 87.4725 80 88.1945 80 91.5087C80 94.8229 80.0435 95.5449 80.4002 97.9892C82.8188 114.699 94.7115 128.739 110.841 133.941C113.73 134.871 116.774 135.506 120.237 135.889C121.586 136.037 127.414 136.037 128.763 135.889C134.74 135.228 139.803 133.749 144.797 131.201C145.562 130.809 145.71 130.705 145.606 130.618C145.536 130.566 142.274 126.19 138.359 120.901L131.242 111.289L122.325 98.0936C117.418 90.8389 113.382 84.9065 113.347 84.9065C113.312 84.8978 113.277 90.7606 113.26 97.9196C113.234 110.454 113.225 110.959 113.068 111.255C112.842 111.681 112.668 111.855 112.303 112.046C112.024 112.185 111.781 112.211 110.467 112.211H108.962L108.562 111.959C108.301 111.794 108.109 111.576 107.979 111.324L107.796 110.933L107.814 93.492L107.84 76.0426L108.109 75.7033C108.249 75.5206 108.544 75.2858 108.753 75.1727C109.11 74.9987 109.249 74.9813 110.754 74.9813C112.529 74.9813 112.825 75.0509 113.286 75.5554C113.416 75.6946 118.245 82.9667 124.022 91.7262C129.798 100.486 137.698 112.446 141.578 118.318L148.625 128.991L148.982 128.756C152.14 126.703 155.48 123.781 158.125 120.736C163.754 114.273 167.382 106.392 168.6 97.9892C168.957 95.5449 169 94.8229 169 91.5087C169 88.1945 168.957 87.4725 168.6 85.0282C166.181 68.3182 154.288 54.2786 138.159 49.0768C135.314 48.1548 132.286 47.5198 128.893 47.137C128.058 47.05 122.308 46.9544 121.586 47.024V47.024ZM139.803 73.9375C140.221 74.1463 140.56 74.5464 140.682 74.9639C140.751 75.1901 140.769 80.0265 140.751 90.9259L140.725 106.566L137.967 102.339L135.201 98.111V86.7419C135.201 79.3915 135.236 75.2597 135.288 75.0596C135.427 74.5725 135.732 74.1897 136.149 73.9636C136.506 73.7809 136.636 73.7635 138.002 73.7635C139.29 73.7635 139.516 73.7809 139.803 73.9375V73.9375Z" fill="#38BDF8"/>
<path d="M80.145 167.53H83.655L94.245 183.61V167.53H96.795V187H93.285L82.695 170.65V187H80.145V167.53Z" fill="#38BDF8"/>
<path d="M107.765 187.3C103.325 187.3 101.105 185.82 101.105 182.86V177.13C101.105 175.37 101.605 174.11 102.605 173.35C103.625 172.57 105.265 172.18 107.525 172.18C109.665 172.18 111.205 172.55 112.145 173.29C113.105 174.03 113.585 175.31 113.585 177.13V180.34H103.835V182.53C103.835 183.53 104.185 184.25 104.885 184.69C105.585 185.13 106.665 185.35 108.125 185.35C109.505 185.35 111.135 185.11 113.015 184.63V186.7C111.175 187.1 109.425 187.3 107.765 187.3ZM110.885 178.57V176.29C110.885 175.41 110.615 174.81 110.075 174.49C109.555 174.15 108.655 173.98 107.375 173.98C106.135 173.98 105.235 174.15 104.675 174.49C104.115 174.81 103.835 175.41 103.835 176.29V178.57H110.885Z" fill="#38BDF8"/>
<path d="M121.059 179.53L115.959 172.48H118.929L122.529 177.79L126.159 172.48H129.129L124.029 179.53L129.429 187H126.459L122.529 181.27L118.629 187H115.659L121.059 179.53Z" fill="#38BDF8"/>
<path d="M138.145 187.3C136.905 187.3 135.935 187.17 135.235 186.91C134.535 186.63 134.025 186.17 133.705 185.53C133.405 184.87 133.255 183.95 133.255 182.77V174.25H130.015V172.48H133.255V167.98H135.985V172.48H141.175V174.25H135.985V182.92C135.985 183.64 136.065 184.18 136.225 184.54C136.405 184.9 136.705 185.16 137.125 185.32C137.565 185.46 138.195 185.53 139.015 185.53C139.275 185.53 139.995 185.45 141.175 185.29V187.06C140.155 187.22 139.145 187.3 138.145 187.3Z" fill="#38BDF8"/>
<path d="M143.885 183.76H147.365V187H143.885V183.76Z" fill="#38BDF8"/>
<path d="M151.831 167.23H154.531V170.05H151.831V167.23ZM149.701 193.6C149.141 193.6 148.631 193.56 148.171 193.48V191.71C148.591 191.79 148.971 191.83 149.311 191.83C150.191 191.83 150.831 191.65 151.231 191.29C151.631 190.95 151.831 190.32 151.831 189.4V172.48H154.531V189.19C154.531 190.81 154.151 191.95 153.391 192.61C152.631 193.27 151.401 193.6 149.701 193.6Z" fill="#38BDF8"/>
<path d="M163.653 187.3C162.113 187.3 160.453 187.18 158.673 186.94V184.87C161.013 185.25 162.693 185.44 163.713 185.44C164.993 185.44 165.913 185.32 166.473 185.08C167.033 184.82 167.313 184.35 167.313 183.67V182.2C167.313 181.58 167.103 181.14 166.683 180.88C166.263 180.62 165.583 180.49 164.643 180.49H162.993C161.493 180.49 160.343 180.18 159.543 179.56C158.763 178.94 158.373 178.07 158.373 176.95V175.6C158.373 173.32 160.533 172.18 164.853 172.18C165.173 172.18 166.643 172.26 169.263 172.42V174.37C167.483 174.09 165.973 173.95 164.733 173.95C163.313 173.95 162.343 174.09 161.823 174.37C161.303 174.65 161.043 175.12 161.043 175.78V177.01C161.043 177.99 161.933 178.48 163.713 178.48H165.393C168.453 178.48 169.983 179.62 169.983 181.9V183.16C169.983 184.66 169.463 185.73 168.423 186.37C167.383 186.99 165.793 187.3 163.653 187.3Z" fill="#38BDF8"/>
</svg>
