<svg width="250" height="250" viewBox="0 0 250 250" fill="none" xmlns="http://www.w3.org/2000/svg">
<rect x="22" width="40" height="3" fill="#38BDF8"/>
<rect y="62" width="40" height="3" transform="rotate(-90 0 62)" fill="#38BDF8"/>
<rect y="21.9204" width="31" height="3" transform="rotate(-45 0 21.9204)" fill="#38BDF8"/>
<rect x="228" y="250" width="40" height="3" transform="rotate(-180 228 250)" fill="#38BDF8"/>
<rect x="250" y="188" width="40" height="3" transform="rotate(90 250 188)" fill="#38BDF8"/>
<rect x="250" y="228.08" width="31" height="3" transform="rotate(135 250 228.08)" fill="#38BDF8"/>
<path d="M68 159.164H80.9756C82.0475 159.164 82.9508 159.213 83.6854 159.31C84.4275 159.4 85.0384 159.539 85.5182 159.727C85.9979 159.914 86.3652 160.146 86.6201 160.424C86.8825 160.701 87.0736 161.027 87.1936 161.402C87.3135 161.777 87.381 162.196 87.3959 162.661C87.4184 163.126 87.4297 163.639 87.4297 164.202C87.4297 164.786 87.4147 165.326 87.3847 165.821C87.3622 166.316 87.276 166.765 87.1261 167.17C86.9837 167.567 86.7513 167.92 86.429 168.227C86.1141 168.527 85.6606 168.778 85.0684 168.98C84.4837 169.183 83.7379 169.336 82.8309 169.441C81.9314 169.546 80.8219 169.599 79.5026 169.599H70.1589V176.435H68V159.164ZM70.1589 167.8H79.5026C80.4621 167.8 81.268 167.785 81.9201 167.755C82.5798 167.717 83.1232 167.654 83.5505 167.564C83.9778 167.474 84.3076 167.346 84.54 167.181C84.7723 167.016 84.941 166.799 85.0459 166.529C85.1584 166.259 85.2221 165.937 85.2371 165.562C85.2596 165.18 85.2708 164.726 85.2708 164.202C85.2708 163.714 85.2596 163.295 85.2371 162.942C85.2221 162.59 85.1584 162.294 85.0459 162.054C84.941 161.814 84.7723 161.623 84.54 161.481C84.3076 161.338 83.9778 161.229 83.5505 161.154C83.1232 161.072 82.5798 161.02 81.9201 160.997C81.268 160.975 80.4621 160.963 79.5026 160.963H70.1589V167.8Z" fill="#38BDF8"/>
<path d="M88.5091 169.869C88.5091 168.542 88.6515 167.444 88.9364 166.574C89.2212 165.705 89.6785 165.015 90.3082 164.505C90.9378 163.995 91.7549 163.639 92.7593 163.437C93.7638 163.227 94.9857 163.122 96.4249 163.122C97.8641 163.122 99.086 163.227 100.09 163.437C101.095 163.639 101.912 163.995 102.542 164.505C103.171 165.015 103.629 165.705 103.913 166.574C104.198 167.444 104.341 168.542 104.341 169.869C104.341 171.195 104.198 172.297 103.913 173.174C103.629 174.051 103.171 174.749 102.542 175.266C101.912 175.783 101.095 176.15 100.09 176.368C99.086 176.578 97.8641 176.683 96.4249 176.683C94.9857 176.683 93.7638 176.578 92.7593 176.368C91.7549 176.15 90.9378 175.783 90.3082 175.266C89.6785 174.749 89.2212 174.051 88.9364 173.174C88.6515 172.297 88.5091 171.195 88.5091 169.869ZM90.668 169.869C90.668 170.588 90.6942 171.214 90.7467 171.746C90.7991 172.279 90.8966 172.736 91.039 173.118C91.1889 173.5 91.3951 173.812 91.6574 174.051C91.9198 174.291 92.2646 174.482 92.6919 174.625C93.1192 174.767 93.6364 174.865 94.2436 174.917C94.8582 174.97 95.5853 174.996 96.4249 174.996C97.1445 174.996 97.7854 174.981 98.3476 174.951C98.9173 174.913 99.4121 174.835 99.8318 174.715C100.259 174.595 100.623 174.426 100.923 174.209C101.222 173.984 101.462 173.68 101.642 173.298C101.83 172.916 101.964 172.447 102.047 171.893C102.137 171.33 102.182 170.656 102.182 169.869C102.182 169.097 102.137 168.441 102.047 167.901C101.964 167.354 101.83 166.896 101.642 166.529C101.462 166.162 101.222 165.873 100.923 165.663C100.623 165.446 100.259 165.285 99.8318 165.18C99.4121 165.067 98.9173 164.996 98.3476 164.966C97.7854 164.936 97.1445 164.921 96.4249 164.921C95.7053 164.921 95.0606 164.936 94.4909 164.966C93.9287 164.996 93.434 165.067 93.0067 165.18C92.5869 165.285 92.2271 165.446 91.9273 165.663C91.6275 165.873 91.3838 166.162 91.1964 166.529C91.0165 166.896 90.8816 167.354 90.7916 167.901C90.7092 168.441 90.668 169.097 90.668 169.869Z" fill="#38BDF8"/>
<path d="M114.415 170.532C115.255 170.532 115.971 170.547 116.563 170.577C117.155 170.599 117.65 170.644 118.047 170.712C118.452 170.772 118.771 170.851 119.003 170.948C119.235 171.045 119.411 171.192 119.531 171.387C119.651 171.574 119.726 171.765 119.756 171.96C119.794 172.147 119.812 172.365 119.812 172.612C119.812 172.882 119.794 173.129 119.756 173.354C119.726 173.572 119.648 173.77 119.52 173.95C119.393 174.13 119.205 174.284 118.958 174.411C118.711 174.539 118.373 174.647 117.946 174.737C117.519 174.827 116.986 174.895 116.349 174.94C115.72 174.977 114.955 174.996 114.056 174.996C113.066 174.996 112.245 174.97 111.593 174.917C110.948 174.857 110.435 174.749 110.053 174.591C109.67 174.434 109.401 174.216 109.243 173.939C109.093 173.654 109.018 173.287 109.018 172.837H106.859C106.859 173.519 106.979 174.096 107.219 174.569C107.467 175.041 107.871 175.427 108.434 175.727C108.996 176.019 109.734 176.233 110.649 176.368C111.571 176.503 112.706 176.57 114.056 176.57C115.135 176.57 116.079 176.536 116.889 176.469C117.706 176.409 118.407 176.315 118.992 176.188C119.576 176.053 120.06 175.88 120.442 175.671C120.832 175.453 121.139 175.198 121.364 174.906C121.589 174.606 121.746 174.265 121.836 173.883C121.926 173.493 121.971 173.054 121.971 172.567C121.971 172.08 121.926 171.653 121.836 171.285C121.746 170.911 121.589 170.588 121.364 170.318C121.147 170.041 120.854 169.786 120.487 169.554C120.12 169.321 119.655 169.149 119.093 169.037C118.531 168.924 117.864 168.845 117.091 168.8C116.327 168.755 115.435 168.733 114.415 168.733C113.576 168.733 112.86 168.733 112.268 168.733C111.676 168.725 111.177 168.703 110.772 168.666C110.375 168.621 110.06 168.557 109.828 168.474C109.595 168.392 109.419 168.272 109.299 168.115C109.179 167.957 109.101 167.758 109.063 167.519C109.033 167.271 109.018 167.02 109.018 166.765C109.018 166.331 109.116 165.989 109.311 165.742C109.505 165.495 109.828 165.311 110.278 165.191C110.727 165.071 111.319 164.996 112.054 164.966C112.789 164.936 113.696 164.921 114.775 164.921C115.765 164.921 116.582 164.951 117.226 165.011C117.879 165.064 118.396 165.165 118.778 165.315C119.16 165.457 119.426 165.656 119.576 165.911C119.734 166.166 119.812 166.495 119.812 166.9H121.971C121.971 166.248 121.863 165.686 121.645 165.214C121.428 164.741 121.046 164.352 120.498 164.044C119.959 163.729 119.224 163.497 118.295 163.347C117.373 163.197 116.199 163.122 114.775 163.122C113.336 163.122 112.114 163.186 111.11 163.313C110.105 163.441 109.288 163.651 108.658 163.943C108.029 164.228 107.571 164.603 107.287 165.067C107.002 165.525 106.859 166.091 106.859 166.765C106.859 167.26 106.904 167.721 106.994 168.148C107.084 168.568 107.238 168.924 107.455 169.216C107.673 169.501 107.965 169.73 108.332 169.902C108.707 170.075 109.172 170.21 109.727 170.307C110.289 170.397 110.956 170.457 111.728 170.487C112.5 170.517 113.396 170.532 114.415 170.532Z" fill="#38BDF8"/>
<path d="M137.443 170.678C137.443 171.78 137.353 172.702 137.173 173.444C136.993 174.179 136.69 174.767 136.262 175.21C135.843 175.652 135.288 175.967 134.598 176.154C133.909 176.341 133.058 176.435 132.046 176.435C131.064 176.435 130.239 176.36 129.572 176.21C128.905 176.06 128.365 175.805 127.953 175.446C127.541 175.086 127.245 174.606 127.065 174.006C126.885 173.407 126.795 172.657 126.795 171.758V165.259H124.13V163.482H126.795V159.94H128.954V163.482H137.083V165.259H128.954V171.758C128.954 172.477 129.006 173.032 129.111 173.422C129.224 173.812 129.4 174.096 129.64 174.276C129.88 174.456 130.194 174.561 130.584 174.591C130.982 174.621 131.465 174.636 132.035 174.636C132.484 174.636 132.886 174.629 133.238 174.614C133.598 174.599 133.909 174.554 134.171 174.479C134.441 174.396 134.67 174.276 134.857 174.119C135.044 173.954 135.194 173.725 135.307 173.433C135.427 173.141 135.513 172.773 135.565 172.331C135.618 171.881 135.644 171.33 135.644 170.678H137.443Z" fill="#38BDF8"/>
<path d="M147.158 164.921C146.318 164.921 145.591 164.947 144.977 165C144.369 165.052 143.852 165.146 143.425 165.281C142.998 165.416 142.649 165.603 142.379 165.843C142.117 166.083 141.911 166.39 141.761 166.765C141.618 167.14 141.521 167.594 141.468 168.126C141.424 168.651 141.401 169.269 141.401 169.981C141.401 170.686 141.424 171.3 141.468 171.825C141.521 172.342 141.618 172.788 141.761 173.163C141.911 173.53 142.117 173.834 142.379 174.074C142.649 174.314 142.998 174.501 143.425 174.636C143.852 174.771 144.369 174.865 144.977 174.917C145.591 174.97 146.318 174.996 147.158 174.996C147.878 174.996 148.518 174.981 149.081 174.951C149.643 174.913 150.138 174.838 150.565 174.726C150.992 174.606 151.352 174.437 151.644 174.22C151.944 173.995 152.188 173.699 152.375 173.332C152.563 172.957 152.698 172.496 152.78 171.949C152.87 171.394 152.915 170.727 152.915 169.947C152.915 169.168 152.87 168.501 152.78 167.946C152.698 167.391 152.563 166.93 152.375 166.563C152.188 166.188 151.944 165.892 151.644 165.675C151.352 165.457 150.992 165.292 150.565 165.18C150.138 165.067 149.643 164.996 149.081 164.966C148.518 164.936 147.878 164.921 147.158 164.921ZM155.074 174.636C155.074 175.895 154.931 176.941 154.646 177.773C154.362 178.605 153.904 179.276 153.275 179.786C152.645 180.303 151.828 180.663 150.824 180.865C149.819 181.068 148.597 181.169 147.158 181.169C145.809 181.169 144.673 181.109 143.751 180.989C142.837 180.869 142.098 180.678 141.536 180.416C140.974 180.161 140.569 179.827 140.322 179.415C140.082 179.01 139.962 178.515 139.962 177.931H142.121C142.121 178.223 142.196 178.463 142.346 178.65C142.503 178.838 142.773 178.984 143.155 179.089C143.537 179.194 144.051 179.265 144.696 179.302C145.348 179.347 146.168 179.37 147.158 179.37C148.237 179.37 149.144 179.329 149.879 179.246C150.614 179.171 151.206 178.988 151.656 178.695C152.105 178.403 152.428 177.961 152.623 177.368C152.817 176.776 152.915 175.985 152.915 174.996C152.81 175.176 152.641 175.371 152.409 175.581C152.184 175.79 151.85 175.985 151.408 176.165C150.973 176.345 150.411 176.495 149.722 176.615C149.032 176.735 148.177 176.795 147.158 176.795C145.719 176.795 144.497 176.686 143.492 176.469C142.488 176.259 141.671 175.895 141.041 175.378C140.412 174.861 139.954 174.164 139.669 173.287C139.385 172.41 139.242 171.308 139.242 169.981C139.242 168.632 139.385 167.515 139.669 166.63C139.954 165.746 140.412 165.045 141.041 164.528C141.671 164.01 142.488 163.647 143.492 163.437C144.497 163.227 145.719 163.122 147.158 163.122C148.177 163.122 149.032 163.175 149.722 163.28C150.411 163.385 150.973 163.516 151.408 163.673C151.85 163.831 152.184 164.003 152.409 164.19C152.641 164.37 152.81 164.535 152.915 164.685V163.482H155.074V174.636Z" fill="#38BDF8"/>
<path d="M169.106 167.699C169.106 167.159 169.065 166.713 168.983 166.36C168.908 166.001 168.724 165.716 168.432 165.506C168.139 165.289 167.705 165.139 167.127 165.056C166.558 164.966 165.778 164.921 164.789 164.921C163.822 164.921 163.035 165.007 162.427 165.18C161.82 165.345 161.344 165.581 160.999 165.888C160.655 166.196 160.418 166.563 160.291 166.99C160.171 167.417 160.111 167.893 160.111 168.418V176.435H157.952V163.482H160.111V165.54C160.186 165.307 160.325 165.052 160.527 164.775C160.729 164.49 161.037 164.228 161.449 163.988C161.861 163.741 162.394 163.534 163.046 163.37C163.705 163.205 164.526 163.122 165.508 163.122C166.633 163.122 167.547 163.223 168.252 163.426C168.956 163.621 169.504 163.913 169.893 164.303C170.291 164.685 170.557 165.161 170.692 165.731C170.834 166.301 170.905 166.956 170.905 167.699H169.106Z" fill="#38BDF8"/>
<path d="M179.901 176.683C178.461 176.683 177.239 176.585 176.235 176.39C175.231 176.188 174.413 175.843 173.784 175.356C173.154 174.868 172.697 174.216 172.412 173.399C172.127 172.582 171.985 171.555 171.985 170.318C171.985 168.902 172.127 167.732 172.412 166.81C172.697 165.881 173.154 165.142 173.784 164.595C174.413 164.048 175.231 163.666 176.235 163.448C177.239 163.231 178.461 163.122 179.901 163.122C180.928 163.122 181.816 163.197 182.565 163.347C183.322 163.497 183.967 163.714 184.499 163.999C185.039 164.284 185.474 164.629 185.804 165.034C186.141 165.438 186.403 165.866 186.591 166.316C186.786 166.758 186.917 167.279 186.984 167.878C187.059 168.478 187.097 169.112 187.097 169.779L186.917 170.498H174.144C174.144 171.488 174.241 172.301 174.436 172.938C174.631 173.568 174.953 174.029 175.403 174.321C175.853 174.614 176.445 174.801 177.18 174.883C177.914 174.958 178.821 174.996 179.901 174.996C180.89 174.996 181.707 174.97 182.352 174.917C183.004 174.857 183.521 174.749 183.903 174.591C184.286 174.434 184.552 174.216 184.702 173.939C184.859 173.654 184.938 173.287 184.938 172.837H187.097C187.097 173.534 186.973 174.13 186.726 174.625C186.486 175.112 186.085 175.509 185.523 175.817C184.96 176.117 184.218 176.334 183.296 176.469C182.382 176.611 181.25 176.683 179.901 176.683ZM179.901 164.921C179.181 164.921 178.536 164.936 177.967 164.966C177.404 164.996 176.91 165.064 176.482 165.169C176.063 165.266 175.703 165.412 175.403 165.607C175.103 165.795 174.859 166.019 174.672 166.282C174.492 166.537 174.357 166.9 174.267 167.372C174.185 167.837 174.144 168.399 174.144 169.059H184.938C184.938 168.182 184.844 167.496 184.657 167.001C184.469 166.499 184.173 166.087 183.769 165.765C183.364 165.442 182.843 165.221 182.206 165.101C181.568 164.981 180.8 164.921 179.901 164.921Z" fill="#38BDF8"/>
<path d="M106.5 199.88C107.684 199.88 108.7 199.929 109.547 200.026C110.394 200.124 111.106 200.27 111.683 200.465C112.268 200.652 112.732 200.888 113.077 201.173C113.422 201.458 113.688 201.784 113.876 202.152C114.063 202.511 114.183 202.916 114.235 203.366C114.295 203.816 114.325 204.303 114.325 204.828C114.325 205.352 114.277 205.847 114.179 206.312C114.089 206.769 113.924 207.189 113.684 207.571C113.445 207.953 113.119 208.295 112.706 208.594C112.294 208.894 111.769 209.149 111.132 209.359C110.495 209.569 109.727 209.726 108.827 209.831C107.935 209.944 106.889 210 105.69 210H102.812C101.732 210 100.788 209.959 99.978 209.876C99.1684 209.794 98.4713 209.67 97.8866 209.505C97.3019 209.333 96.8184 209.119 96.4361 208.864C96.0538 208.602 95.7465 208.298 95.5141 207.953C95.2893 207.601 95.1318 207.204 95.0419 206.762C94.9519 206.312 94.907 205.817 94.907 205.277H97.0658C97.0658 205.952 97.1633 206.481 97.3582 206.863C97.5531 207.245 97.8754 207.534 98.3251 207.729C98.7749 207.916 99.3633 208.036 100.09 208.088C100.825 208.133 101.732 208.156 102.812 208.156H105.69C106.949 208.156 107.995 208.096 108.827 207.976C109.659 207.856 110.323 207.665 110.817 207.403C111.312 207.14 111.661 206.799 111.863 206.379C112.065 205.952 112.167 205.435 112.167 204.828C112.167 204.22 112.095 203.714 111.953 203.31C111.818 202.905 111.544 202.583 111.132 202.343C110.727 202.103 110.154 201.934 109.412 201.837C108.67 201.732 107.699 201.679 106.5 201.679H103.531C102.212 201.679 101.08 201.631 100.135 201.533C99.1984 201.436 98.4113 201.297 97.7742 201.117C97.137 200.93 96.6273 200.701 96.245 200.431C95.8627 200.154 95.5704 199.839 95.368 199.487C95.1731 199.134 95.0456 198.745 94.9857 198.317C94.9257 197.883 94.8957 197.414 94.8957 196.912C94.8957 196.387 94.9407 195.9 95.0306 195.45C95.1281 195 95.3042 194.596 95.5591 194.236C95.814 193.868 96.1625 193.542 96.6048 193.258C97.0471 192.973 97.613 192.737 98.3027 192.549C98.9998 192.354 99.8356 192.208 100.81 192.111C101.785 192.013 102.931 191.964 104.251 191.964H106.41C107.489 191.964 108.434 192.006 109.243 192.088C110.053 192.163 110.75 192.287 111.334 192.459C111.919 192.624 112.403 192.834 112.785 193.089C113.175 193.336 113.482 193.636 113.707 193.988C113.939 194.333 114.101 194.727 114.19 195.169C114.28 195.611 114.325 196.102 114.325 196.642H112.167C112.167 195.967 112.069 195.439 111.874 195.057C111.679 194.674 111.357 194.389 110.907 194.202C110.457 194.007 109.865 193.887 109.131 193.842C108.396 193.79 107.489 193.764 106.41 193.764H104.251C102.812 193.764 101.627 193.816 100.698 193.921C99.7681 194.018 99.0335 194.187 98.4938 194.427C97.9541 194.667 97.5793 194.989 97.3694 195.394C97.1595 195.799 97.0546 196.305 97.0546 196.912C97.0546 197.287 97.0808 197.62 97.1333 197.913C97.1857 198.205 97.2907 198.464 97.4481 198.688C97.613 198.906 97.8416 199.089 98.134 199.239C98.4263 199.389 98.8124 199.513 99.2921 199.61C99.7719 199.708 100.357 199.779 101.046 199.824C101.743 199.862 102.572 199.88 103.531 199.88H106.5Z" fill="#38BDF8"/>
<path d="M125.12 191.964C123.8 191.964 122.687 192.047 121.78 192.212C120.881 192.369 120.139 192.613 119.554 192.943C118.969 193.265 118.516 193.674 118.193 194.168C117.879 194.663 117.646 195.244 117.496 195.911C117.354 196.578 117.271 197.332 117.249 198.171C117.226 199.011 117.215 199.94 117.215 200.96C117.215 201.979 117.226 202.909 117.249 203.748C117.271 204.588 117.354 205.341 117.496 206.008C117.646 206.675 117.879 207.256 118.193 207.751C118.516 208.246 118.969 208.658 119.554 208.988C120.139 209.31 120.881 209.55 121.78 209.708C122.687 209.872 123.8 209.955 125.12 209.955H131.619C132.938 209.955 134.047 209.872 134.947 209.708C135.854 209.55 136.6 209.31 137.185 208.988C137.769 208.658 138.219 208.246 138.534 207.751C138.549 207.729 138.56 207.706 138.568 207.684L139.872 208.516L140.771 207.076L139.208 206.076C139.216 206.053 139.22 206.031 139.22 206.008C139.37 205.341 139.456 204.588 139.478 203.748C139.508 202.909 139.523 201.979 139.523 200.96C139.523 199.94 139.508 199.011 139.478 198.171C139.456 197.332 139.37 196.578 139.22 195.911C139.077 195.244 138.849 194.663 138.534 194.168C138.219 193.674 137.769 193.265 137.185 192.943C136.6 192.613 135.854 192.369 134.947 192.212C134.047 192.047 132.938 191.964 131.619 191.964H125.12ZM125.12 208.156C124.16 208.156 123.351 208.13 122.691 208.077C122.039 208.017 121.499 207.901 121.072 207.729C120.645 207.556 120.315 207.309 120.082 206.987C119.857 206.664 119.693 206.237 119.588 205.705C119.483 205.172 119.419 204.52 119.396 203.748C119.381 202.969 119.374 202.039 119.374 200.96C119.374 199.88 119.381 198.955 119.396 198.182C119.411 197.403 119.471 196.747 119.576 196.215C119.681 195.683 119.85 195.255 120.082 194.933C120.315 194.611 120.645 194.363 121.072 194.191C121.499 194.018 122.039 193.906 122.691 193.853C123.351 193.794 124.16 193.764 125.12 193.764H131.619C132.578 193.764 133.384 193.794 134.036 193.853C134.696 193.906 135.236 194.018 135.655 194.191C136.083 194.363 136.412 194.611 136.645 194.933C136.877 195.255 137.046 195.683 137.151 196.215C137.256 196.747 137.316 197.403 137.331 198.182C137.353 198.955 137.364 199.88 137.364 200.96C137.364 202.039 137.353 202.969 137.331 203.748C137.323 204.138 137.304 204.498 137.274 204.828L130.697 200.6L129.786 202.05L136.87 206.593C136.802 206.743 136.727 206.874 136.645 206.987C136.412 207.309 136.083 207.556 135.655 207.729C135.228 207.901 134.685 208.017 134.025 208.077C133.373 208.13 132.571 208.156 131.619 208.156H125.12Z" fill="#38BDF8"/>
<path d="M144.369 209.595V192.324H146.528V207.796H160.201V209.595H144.369Z" fill="#38BDF8"/>
<g clip-path="url(#clip0_717_315)">
<path fill-rule="evenodd" clip-rule="evenodd" d="M120.583 107.584C121.216 107.602 121.715 108.13 121.697 108.763C121.57 113.299 121.587 117.845 121.745 121.524C121.824 123.365 121.938 124.977 122.085 126.256C122.236 127.575 121.796 128.305 121.956 128.705M120.583 107.584C119.949 107.567 119.421 108.066 119.404 108.699ZM119.404 108.699C119.276 113.277 119.292 117.878 119.452 121.623ZM119.452 121.623C119.533 123.494 119.65 125.165 119.805 126.518ZM119.805 126.518C119.956 127.833 120.155 128.964 120.441 129.679ZM141.335 108.73C141.967 108.777 142.441 109.328 142.393 109.96C142.233 112.1 140.998 122.402 140.354 126.134C139.903 128.749 139.13 130.835 137.609 132.416C136.09 133.994 133.964 134.927 131.116 135.537C127.536 136.304 125.042 135.523 123.324 134.076C121.675 132.687 120.889 130.799 120.441 129.679L120.441 129.679M141.335 108.73C140.703 108.682 140.153 109.156 140.105 109.788ZM140.105 109.788C139.95 111.855 139.521 119.983 138.89 123.643ZM138.89 123.643L140.155 109.913ZM140.155 109.913C141.22 108.806 139.739 112.323 140.155 109.913ZM140.155 109.913C140.155 109.913 139.253 121.761 137.509 128.245C136.405 131.19 135.027 131.864 133.184 132.57C128.858 134.227 125.973 133.307 124.802 132.321C123.631 131.335 122.768 128.903 122.324 127.792" fill="#38BDF8"/>
<path fill-rule="evenodd" clip-rule="evenodd" d="M113.112 61.9791C113.113 61.9794 113.114 61.9796 112.685 63.0275L113.114 61.9796C113.7 62.2193 113.981 62.889 113.741 63.4755C113.502 64.0619 112.832 64.343 112.246 64.1035L112.246 64.1034L112.68 63.0415C112.246 64.1034 112.246 64.1035 112.246 64.1035L112.246 64.1034L112.243 64.1025L112.231 64.0974C112.219 64.0926 112.2 64.085 112.174 64.0748C112.122 64.0545 112.044 64.024 111.94 63.9848C111.733 63.9063 111.425 63.7933 111.032 63.6583C110.245 63.3881 109.119 63.0308 107.772 62.686C105.063 61.9932 101.518 61.3666 98.0529 61.5653C94.5864 61.7641 91.3298 62.7787 89.012 65.2339C86.7043 67.6786 85.1414 71.7498 85.4773 78.4656C85.5455 79.8301 86.0893 83.2632 87.0431 87.5202C87.9915 91.7529 89.3258 96.7131 90.944 101.115C92.5819 105.57 94.4452 109.265 96.3739 111.139C97.3223 112.061 98.146 112.407 98.8567 112.377C100.604 112.139 101.525 110.714 103.733 108.09C104.885 106.722 106.895 104.557 107.783 103.58C108.071 103.264 109.801 104.809 110.027 104.539M110.035 104.53L110.034 104.53L110.027 104.539L110 104.566C109.976 104.591 109.941 104.628 109.895 104.677C109.802 104.776 109.664 104.921 109.488 105.109C109.135 105.486 108.628 106.033 108.01 106.713C106.773 108.073 105.098 109.962 103.339 112.078L103.339 112.078C102.015 113.67 100.553 114.601 98.954 114.669C97.3624 114.737 95.9572 113.934 94.7747 112.784C92.4415 110.517 90.4348 106.379 88.7905 101.907C87.1265 97.3802 85.7664 92.3161 84.8043 88.0218C83.8475 83.7518 83.2645 80.155 83.1858 78.5802C82.8306 71.4798 84.4657 66.7076 87.3436 63.659C90.2116 60.6209 94.1283 59.4922 97.9216 59.2747C101.716 59.0571 105.518 59.7413 108.34 60.4632C109.758 60.8259 110.944 61.202 111.777 61.4884C112.195 61.6317 112.524 61.7527 112.752 61.8388C112.866 61.8819 112.954 61.9162 113.015 61.9402C113.045 61.9522 113.069 61.9616 113.085 61.9682L113.105 61.9761L113.111 61.9784L113.112 61.9791" fill="#38BDF8"/>
<path fill-rule="evenodd" clip-rule="evenodd" d="M129.26 61.8453C129.204 61.8741 129.144 61.8987 129.081 61.9183C129.061 61.9247 129.018 61.9381 128.969 61.9496C128.955 61.953 128.932 61.9583 128.904 61.9634C128.885 61.9669 128.82 61.9786 128.736 61.9815C128.688 61.9822 128.562 61.9744 128.484 61.9625C128.341 61.9261 127.961 61.7166 127.765 61.506C127.594 61.1561 127.593 60.5159 127.692 60.2783C127.761 60.1682 127.892 60.015 127.945 59.9665C128.029 59.8934 128.106 59.8491 128.124 59.8388C128.125 59.8385 128.125 59.8382 128.126 59.838C128.156 59.8209 128.181 59.8083 128.194 59.8015C128.223 59.7874 128.248 59.7767 128.261 59.7708C128.291 59.758 128.321 59.7462 128.346 59.7365C128.448 59.6976 128.611 59.6408 128.823 59.5728C129.252 59.4351 129.923 59.2397 130.783 59.0386C132.501 58.6371 134.998 58.2078 137.858 58.1812C143.575 58.1281 150.873 59.6919 156.163 66.4516L156.163 66.4516C157.301 67.9058 157.695 70.2484 157.654 72.8854C157.612 75.5892 157.107 78.8604 156.19 82.4084C154.357 89.5066 150.84 97.8574 145.875 105.225C145.521 105.751 144.808 105.889 144.283 105.535C143.757 105.181 143.618 104.468 143.972 103.943C148.783 96.8047 152.197 88.6961 153.969 81.8347C154.855 78.4029 155.322 75.3193 155.36 72.8499C155.399 70.3137 154.981 68.6648 154.356 67.8656C149.663 61.8686 143.185 60.4262 137.88 60.4755C135.229 60.5001 132.904 60.8991 131.305 61.2728C130.507 61.4593 129.896 61.6382 129.523 61.7577C129.411 61.7937 129.323 61.8233 129.26 61.8453Z" fill="#38BDF8"/>
<path fill-rule="evenodd" clip-rule="evenodd" d="M111.433 62.6413C114.12 60.4038 117.715 58.9778 122.457 59.0555C131.859 59.2097 138.063 64.0436 141.791 68.8098C143.651 71.1879 144.908 73.5622 145.658 75.3653C146.032 76.2644 146.289 77.0417 146.43 77.6229C146.499 77.905 146.551 78.1855 146.564 78.4289C146.57 78.5392 146.574 78.7238 146.526 78.9224C146.499 79.0357 146.324 79.692 145.596 79.8426L145.182 79.8519C140.473 79.0979 138.314 79.8979 137.377 80.9701C136.423 82.0614 136.294 83.9248 136.917 86.4215C137.521 88.8445 138.741 91.4856 139.912 93.7332C140.471 94.8053 141.01 95.7714 141.456 96.5711L141.524 96.6945C141.954 97.465 142.336 98.1504 142.506 98.5624C143.083 99.9599 143.806 100.943 144.456 101.764C144.529 101.856 144.603 101.949 144.678 102.043C144.925 102.351 145.176 102.665 145.379 102.954C145.638 103.322 145.903 103.764 146.029 104.274C146.037 104.288 146.051 104.311 146.075 104.342C146.148 104.437 146.317 104.829 146.804 105.031C147.81 105.447 144.135 104.317 143.494 104.298M143.515 104.292C143.508 104.294 143.501 104.296 143.494 104.298C143.244 104.37 142.935 104.467 142.612 104.613C141.946 104.913 141.228 105.418 140.726 106.338C140.237 107.234 140.017 108.409 140.104 109.939C140.18 111.272 141.381 111.875 142.216 112.134C143.16 112.427 144.359 112.532 145.578 112.519C148.009 112.492 150.92 111.985 152.803 111.111L152.803 111.111C153.9 110.602 154.892 110.004 155.702 109.401C156.496 108.809 157.177 108.165 157.59 107.543C157.791 107.24 157.995 106.843 158.038 106.395C158.088 105.874 157.909 105.316 157.413 104.939C156.999 104.624 156.496 104.54 156.085 104.526C155.877 104.519 151.964 105.304 149.105 105.237C145.935 105.162 143.787 104.238 143.494 104.298M143.515 104.292C143.511 104.286 143.506 104.279 143.502 104.273C143.344 104.047 143.157 103.814 142.924 103.524C142.841 103.42 142.753 103.309 142.657 103.188C141.957 102.304 141.081 101.126 140.385 99.4374C140.279 99.1803 139.983 98.6409 139.507 97.7879L139.449 97.683C139.004 96.8858 138.452 95.8949 137.878 94.7935C136.686 92.5066 135.363 89.6707 134.691 86.9768C134.037 84.3565 133.899 81.463 135.649 79.4602C137.218 77.6649 139.964 76.9658 143.968 77.3774C143.857 77.0486 143.715 76.6688 143.54 76.2468C142.859 74.6103 141.702 72.4197 139.984 70.2234C136.556 65.8412 130.947 61.4894 122.419 61.3496C118.198 61.2804 115.082 62.5986 112.838 64.4668C110.572 66.3531 108.999 68.7051 108.121 71.5193C107.432 73.441 106.648 76.8538 106.43 78.8835C106.321 79.8951 106.276 80.7371 106.258 81.3227C106.248 81.6153 106.246 81.8434 106.246 81.9961C106.246 82.0724 106.247 82.1298 106.247 82.167C106.247 82.1855 106.248 82.199 106.248 82.2073L106.248 82.2158C106.248 82.2158 106.258 76.7176 108.121 71.5193C110.083 66.3994 112.838 64.4668 112.838 64.4668M144.273 78.5522C144.274 78.562 144.273 78.5607 144.273 78.5502C144.273 78.5509 144.273 78.5516 144.273 78.5522ZM144.807 106.301C145.106 106.544 145.485 106.776 145.96 106.973C147.587 107.646 150.33 107.906 155.051 106.932C155.068 106.929 155.085 106.925 155.102 106.922C154.893 107.118 154.636 107.334 154.331 107.561C153.653 108.066 152.798 108.584 151.837 109.03C150.343 109.723 147.781 110.2 145.552 110.225C144.441 110.237 143.513 110.134 142.897 109.943C142.585 109.846 142.446 109.761 142.39 109.716C142.333 108.511 142.527 107.827 142.74 107.436C142.946 107.059 143.223 106.854 143.555 106.705C143.731 106.625 143.92 106.563 144.133 106.502C144.177 106.489 144.228 106.475 144.282 106.459C144.446 106.413 144.644 106.358 144.807 106.301ZM142.356 109.681C142.357 109.681 142.362 109.686 142.368 109.696C142.358 109.687 142.355 109.682 142.356 109.681Z" fill="#38BDF8"/>
<path fill-rule="evenodd" clip-rule="evenodd" d="M118.958 104.69C118.967 104.693 118.975 104.697 118.983 104.7L118.983 104.7C120.117 105.17 120.972 106.245 121.387 107.364C121.806 108.494 121.869 109.94 121.021 111.129C116.904 116.894 110.784 115.908 108.348 115.298C107.775 115.155 107.134 114.914 106.57 114.606C106.051 114.322 105.408 113.879 105.068 113.249C104.879 112.899 104.762 112.446 104.876 111.947C104.989 111.46 105.286 111.088 105.62 110.816C106.248 110.304 107.242 109.949 108.541 109.682L108.542 109.681C111.055 109.164 111.861 108.822 112.374 108.414C112.638 108.203 112.867 107.941 113.226 107.488C113.279 107.421 113.334 107.351 113.393 107.277C113.717 106.865 114.123 106.349 114.677 105.73M118.958 104.69C118.594 104.539 117.932 104.264 117.138 104.334ZM117.138 104.334C116.273 104.409 115.453 104.861 114.677 105.73ZM116.344 107.26L115.532 106.495L116.387 107.26C115.885 107.821 115.524 108.278 115.201 108.689C115.141 108.765 115.082 108.84 115.023 108.914C114.661 109.371 114.292 109.819 113.804 110.208C112.81 111 111.487 111.418 109.004 111.929M116.344 107.26C116.843 106.701 117.202 106.631 117.338 106.619ZM117.338 106.619C117.527 106.603 117.814 106.617 117.354 106.617ZM117.354 106.617C118.55 106.709 118.983 107.48 119.236 108.161C119.484 108.831 119.424 109.417 119.154 109.795C115.923 114.318 111.169 113.639 108.905 113.073L108.904 113.072C108.508 112.973 108.051 112.801 107.671 112.593C107.56 112.532 107.462 112.471 107.378 112.414C107.452 112.379 107.539 112.341 107.643 112.302C107.969 112.179 108.413 112.051 109.004 111.929" fill="#38BDF8"/>
<path fill-rule="evenodd" clip-rule="evenodd" d="M116.181 78.0987C117.925 78.7721 119.228 80.2261 119.74 82.5917C120.943 88.1549 120.811 91.9043 120.166 94.7469C119.845 96.1619 119.403 97.3219 118.969 98.3316C118.802 98.7209 118.645 99.0693 118.498 99.3956C118.247 99.9522 118.026 100.444 117.832 100.966C117.773 101.124 117.715 101.279 117.659 101.431C117.296 102.405 116.977 103.26 116.756 104.055C116.501 104.972 116.413 105.687 116.503 106.272C116.599 106.898 116.169 107.484 115.543 107.58C114.917 107.676 114.331 107.246 114.235 106.62C114.212 106.468 114.196 106.315 114.186 106.162C107.839 106.007 102.792 99.8506 103.769 92.8641C104.324 88.8932 104.124 85.4675 104.011 83.5259C103.978 82.966 104.009 83.8165 104.011 83.5259L104.102 81.9529C104.105 81.4551 104.245 81.3805 104.35 81.2529C104.504 81.0665 104.695 80.8913 104.889 80.7338C105.282 80.414 105.809 80.0684 106.412 79.7328C107.62 79.0604 109.245 78.364 110.948 77.9714C112.628 77.5837 114.526 77.4594 116.181 78.0987ZM114.433 103.869C114.468 103.726 114.506 103.583 114.545 103.44C114.795 102.542 115.153 101.583 115.513 100.619C115.569 100.468 115.625 100.318 115.681 100.168C115.899 99.5805 116.178 98.9607 116.452 98.3501C116.592 98.0381 116.732 97.7284 116.861 97.4263C117.264 96.4891 117.649 95.4693 117.928 94.2391C118.484 91.7913 118.646 88.3886 117.497 83.0766C117.132 81.3901 116.308 80.6073 115.355 80.2391C114.313 79.8367 112.942 79.866 111.463 80.207C110.006 80.5431 108.582 81.1507 107.528 81.7373C107 82.0312 106.594 82.304 106.336 82.5138C106.307 82.5375 106.281 82.5593 106.259 82.5791C106.267 82.7406 106.279 82.9405 106.293 83.1753C106.403 84.9946 106.64 88.9037 106.041 93.1819C105.222 99.0415 109.503 103.854 114.433 103.869ZM106.125 82.7074C106.104 82.7388 106.096 82.7418 106.12 82.713C106.122 82.7113 106.123 82.7095 106.125 82.7074Z" fill="#38BDF8"/>
<path d="M112.571 82.0817C112.518 82.457 113.258 83.4585 114.223 83.5923C115.187 83.7266 116.011 82.944 116.063 82.5691C116.116 82.1938 115.377 81.7804 114.411 81.646C113.447 81.5114 112.622 81.7073 112.571 82.0817H112.571Z" fill="#38BDF8"/>
<path fill-rule="evenodd" clip-rule="evenodd" d="M114.464 81.2673C113.948 81.1952 113.451 81.2086 113.061 81.301ZM113.061 81.301C112.868 81.3469 112.813 81.4794 112.66 81.5848ZM112.66 81.5848C112.593 81.6316 112.441 81.6974 112.384 81.7688ZM112.384 81.7688C112.384 81.7688 112.318 81.7434 112.292 81.7688C112.2 81.8609 112.193 82.0283 112.193 82.0283C112.163 82.2429 112.245 82.4646 112.332 82.6331C112.428 82.8182 112.568 83.0118 112.739 83.1913C113.077 83.546 113.577 83.8887 114.171 83.9711M112.958 82.1544C112.96 82.1534 112.961 82.1523 112.963 82.1512C113.01 82.1188 113.098 82.0782 113.238 82.0451C113.514 81.9796 113.912 81.9624 114.359 82.0248C114.807 82.0871 115.185 82.2125 115.433 82.3511C115.558 82.421 115.632 82.4843 115.668 82.5284C115.671 82.532 115.674 82.5352 115.676 82.5381C115.665 82.5624 115.64 82.6061 115.592 82.6665C115.518 82.7587 115.408 82.8621 115.271 82.9552C114.994 83.143 114.641 83.2644 114.277 83.2136L114.276 83.2136C113.905 83.1621 113.553 82.9372 113.293 82.6639C113.165 82.5294 113.069 82.3939 113.011 82.2815C112.98 82.2209 112.965 82.179 112.958 82.1544ZM116.259 82.0425C116.377 82.186 116.476 82.3864 116.443 82.6219C116.416 82.8155 116.305 82.9997 116.188 83.1457C116.063 83.3015 115.896 83.4557 115.7 83.5883C115.311 83.8519 114.77 84.0546 114.171 83.9711M116.259 82.0425C116.141 81.8994 115.98 81.7806 115.806 81.6834ZM115.806 81.6834C115.456 81.4879 114.982 81.3394 114.464 81.2673Z" fill="#38BDF8"/>
<path d="M141.916 81.3167C141.968 81.692 141.229 82.6935 140.264 82.8273C139.3 82.9617 138.475 82.179 138.422 81.8041C138.371 81.4288 139.111 81.0154 140.075 80.881C141.039 80.7467 141.864 80.9423 141.916 81.3169V81.3167Z" fill="#38BDF8"/>
<path fill-rule="evenodd" clip-rule="evenodd" d="M141.293 81.0939C140.989 81.0217 140.566 81.0054 140.101 81.0702C139.637 81.1349 139.235 81.2661 138.961 81.4189C138.824 81.4956 138.728 81.5729 138.671 81.6419C138.614 81.7103 138.609 81.7545 138.612 81.7777C138.618 81.8218 138.655 81.9084 138.746 82.021C138.833 82.1291 138.956 82.2452 139.109 82.3482C139.414 82.555 139.814 82.6967 140.237 82.6377L140.238 82.6377C140.664 82.5785 141.053 82.3242 141.333 82.0305C141.472 81.8848 141.578 81.7347 141.646 81.6041C141.718 81.4655 141.731 81.3769 141.727 81.3431L141.727 81.3431C141.723 81.3204 141.706 81.2796 141.633 81.2289C141.56 81.1782 141.446 81.1302 141.293 81.0939ZM141.851 80.9144C141.977 81.0016 142.082 81.1256 142.105 81.2901L142.105 81.2901C142.127 81.4442 142.068 81.6213 141.985 81.78C141.899 81.9469 141.77 82.1259 141.61 82.2942C141.292 82.6286 140.828 82.9419 140.29 83.0165C139.749 83.0918 139.255 82.9094 138.894 82.6648C138.713 82.5421 138.56 82.4006 138.448 82.2607C138.339 82.1257 138.253 81.9741 138.233 81.8306L138.233 81.8296L138.233 81.8296C138.21 81.6651 138.278 81.517 138.376 81.3986C138.473 81.2803 138.613 81.1754 138.775 81.0851C139.099 80.9038 139.549 80.7611 140.049 80.6914C140.548 80.6218 141.02 80.6362 141.382 80.7219C141.562 80.7645 141.725 80.8273 141.851 80.9144Z" fill="#38BDF8"/>
<path fill-rule="evenodd" clip-rule="evenodd" d="M144.227 78.8238C144.86 78.7897 146.476 78.0248 146.51 78.6574C146.596 80.2509 146.422 81.5831 146.228 82.8612C146.206 83.0115 146.183 83.1608 146.16 83.3095C145.987 84.4336 145.818 85.5286 145.777 86.8388L145.777 86.8395C145.743 87.8846 145.85 88.9896 145.992 90.1983C146.014 90.3909 146.038 90.5865 146.062 90.7846C146.184 91.8046 146.315 92.8919 146.369 93.991C146.501 96.6574 146.193 99.5418 144.26 102.43C143.907 102.956 143.195 103.097 142.668 102.745C142.142 102.392 142.001 101.68 142.353 101.153C143.915 98.8209 144.195 96.4882 144.078 94.1039C144.028 93.093 143.909 92.0993 143.786 91.0797C143.762 90.8761 143.737 90.6715 143.713 90.4656C143.571 89.2526 143.444 87.9979 143.483 86.7656M144.227 78.8238C144.193 78.1911 143.595 78.8579 144.227 78.8238ZM144.227 78.8238C144.135 80.2043 144.135 80.2043 143.96 82.5178ZM143.96 82.5178C143.938 82.6622 143.916 82.8083 143.893 82.9563ZM143.893 82.9563C143.72 84.0754 143.53 85.3078 143.484 86.765Z" fill="#38BDF8"/>
<path fill-rule="evenodd" clip-rule="evenodd" d="M111.264 66.9554C110.165 68.6924 108.932 70.8299 108.263 72.5899C107.602 74.3294 107.105 76.7171 106.772 78.7208C106.607 79.7123 106.485 80.591 106.404 81.2213C106.364 81.5362 106.334 81.7886 106.314 81.9614C106.305 82.0478 106.297 82.1143 106.292 82.1587C106.29 82.1809 106.288 82.1976 106.287 82.2085L106.286 82.2205L106.285 82.2237C106.285 82.2236 106.286 82.2236 105.187 82.1107C104.088 81.9977 104.088 81.9976 104.088 81.9975L104.089 81.9918L104.09 81.9769C104.092 81.964 104.094 81.9454 104.096 81.9211C104.102 81.8726 104.109 81.8019 104.12 81.711C104.141 81.5294 104.172 81.2671 104.213 80.9413C104.296 80.2902 104.422 79.3833 104.593 78.3584C104.93 76.3292 105.455 73.7604 106.199 71.805C106.951 69.8266 108.285 67.5335 109.398 65.7744C109.96 64.8859 110.477 64.1168 110.853 63.5694C111.041 63.2955 111.195 63.0766 111.302 62.9256C111.355 62.85 111.397 62.7914 111.426 62.7513C111.44 62.7312 111.451 62.7158 111.459 62.7052L111.468 62.6929L111.471 62.6882C111.471 62.6881 111.471 62.688 112.365 63.3361C113.26 63.9843 113.26 63.9842 113.26 63.9842L113.258 63.9869L113.251 63.9968C113.244 64.0058 113.234 64.0195 113.221 64.0379C113.195 64.0747 113.155 64.1298 113.104 64.2016C113.003 64.3453 112.855 64.5559 112.673 64.8207C112.309 65.3506 111.808 66.0958 111.264 66.9554Z" fill="#38BDF8"/>
<path d="M112.292 81.769C112.292 81.769 112.549 81.5089 112.752 81.4009C113.045 81.2454 113.25 81.2459 113.58 81.2168C114.012 81.1788 114.26 81.2251 114.685 81.3088C115.053 81.3815 115.267 81.4213 115.605 81.5849C115.794 81.6764 115.903 81.7289 116.065 81.861C116.184 81.9572 116.341 82.1371 116.341 82.1371L115.053 83.0575L114.501 83.9778H114.133L112.844 83.0575L112.292 81.769Z" fill="#38BDF8"/>
<path d="M108.795 111.035L116.618 106.894L117.17 106.525L117.538 106.433L117.814 106.525L118.182 106.801C118.182 106.801 117.674 106.648 117.354 106.709C116.957 106.785 116.48 107.262 116.48 107.262L115.881 107.814L115.513 107.906L109.531 111.771H108.795V111.035Z" fill="#38BDF8"/>
<path d="M116.342 104.593L116.618 104.409C116.618 104.409 117.008 104.328 117.262 104.317C117.623 104.302 117.832 104.323 118.182 104.409C118.481 104.482 118.919 104.685 118.919 104.685L118.551 105.513H116.342V104.593Z" fill="#38BDF8"/>
<path fill-rule="evenodd" clip-rule="evenodd" d="M120.127 128.636C119.755 127.137 119.381 124.699 119.287 120.819C119.241 118.898 119.195 116.502 119.16 114.588C119.143 113.631 119.129 112.794 119.119 112.195C119.114 111.896 119.11 111.657 119.107 111.493L119.103 111.238C119.103 111.238 119.103 111.238 120.299 111.219C121.495 111.2 121.495 111.2 121.495 111.2L121.5 111.454C121.502 111.618 121.506 111.857 121.511 112.155C121.521 112.753 121.536 113.589 121.553 114.545C121.587 116.458 121.633 118.848 121.679 120.762C121.77 124.52 122.131 126.776 122.45 128.061C122.609 128.701 122.755 129.094 122.848 129.306C122.894 129.413 122.927 129.473 122.941 129.497C122.947 129.509 122.949 129.512 122.946 129.507C122.944 129.504 122.941 129.5 122.937 129.493C122.935 129.49 122.932 129.486 122.929 129.482L122.924 129.475L122.922 129.472L122.92 129.47C122.92 129.469 122.919 129.468 121.956 130.178C120.993 130.887 120.992 130.886 120.991 130.885L120.99 130.884L120.987 130.879L120.981 130.871C120.976 130.865 120.972 130.859 120.967 130.852C120.958 130.838 120.948 130.823 120.936 130.806C120.914 130.771 120.888 130.729 120.859 130.678C120.802 130.577 120.732 130.441 120.655 130.264C120.501 129.91 120.313 129.388 120.127 128.636Z" fill="#38BDF8"/>
<path fill-rule="evenodd" clip-rule="evenodd" d="M142.295 109.01L140.638 124.288L138.442 124.05L140.099 108.772L142.295 109.01Z" fill="#38BDF8"/>
</g>
<defs>
<clipPath id="clip0_717_315">
<rect width="79.5286" height="81.9789" fill="white" transform="translate(80.8174 56)"/>
</clipPath>
</defs>
</svg>
