<svg width="250" height="250" viewBox="0 0 250 250" fill="none" xmlns="http://www.w3.org/2000/svg">
<path d="M22 0H62V3H22V0Z" fill="#38BDF8"/>
<path d="M0 62L0 22H3L3 62H0Z" fill="#38BDF8"/>
<path d="M0 21.9204L21.9203 0.000100315L24.0416 2.12142L2.12132 24.0417L0 21.9204Z" fill="#38BDF8"/>
<path d="M228 250H188V247H228V250Z" fill="#38BDF8"/>
<path d="M250 188V228H247V188H250Z" fill="#38BDF8"/>
<path d="M250 228.08L228.08 250L225.958 247.879L247.879 225.958L250 228.08Z" fill="#38BDF8"/>
<path d="M48.3574 164.53H54.7174C55.6174 164.53 56.3374 164.55 56.8774 164.59C57.4374 164.63 58.0274 164.72 58.6474 164.86C59.2874 165 59.7974 165.21 60.1774 165.49C60.5774 165.77 60.9174 166.15 61.1974 166.63C61.4574 167.09 61.5874 167.67 61.5874 168.37V172.42C61.5874 174.04 60.9574 175.21 59.6974 175.93C58.4574 176.63 56.6174 176.98 54.1774 176.98H51.2674V184H48.3574V164.53ZM54.5674 175.15C55.8274 175.15 56.8374 174.92 57.5974 174.46C58.3574 174 58.7374 173.27 58.7374 172.27V168.73C58.7374 168.19 58.5974 167.75 58.3174 167.41C58.0374 167.05 57.6374 166.8 57.1174 166.66C56.6174 166.54 56.1974 166.46 55.8574 166.42C55.5174 166.38 55.0674 166.36 54.5074 166.36H51.2374V175.15H54.5674Z" fill="#38BDF8"/>
<path d="M71.4368 184.3C70.1568 184.3 69.1968 184.25 68.5568 184.15C67.9168 184.07 67.2768 183.88 66.6368 183.58C65.9768 183.28 65.4968 182.8 65.1968 182.14C64.8968 181.46 64.7468 180.55 64.7468 179.41V174.37C64.7468 173.47 64.8568 172.68 65.0768 172C65.2968 171.32 65.5868 170.79 65.9468 170.41C66.2468 170.07 66.6968 169.81 67.2968 169.63C67.9168 169.43 68.5468 169.3 69.1868 169.24C69.9068 169.2 70.6568 169.18 71.4368 169.18C72.4768 169.18 73.2568 169.21 73.7768 169.27C74.3168 169.31 74.8868 169.41 75.4868 169.57C76.1068 169.75 76.5868 170.02 76.9268 170.38C77.2668 170.74 77.5568 171.26 77.7968 171.94C78.0168 172.64 78.1268 173.45 78.1268 174.37V179.41C78.1268 181.11 77.7368 182.35 76.9568 183.13C76.6368 183.45 76.1768 183.7 75.5768 183.88C74.9768 184.06 74.3568 184.18 73.7168 184.24C72.9568 184.28 72.1968 184.3 71.4368 184.3ZM71.4368 182.53C72.2768 182.53 72.8868 182.51 73.2668 182.47C73.6468 182.43 74.0168 182.32 74.3768 182.14C74.7368 181.98 74.9868 181.72 75.1268 181.36C75.2868 180.98 75.3668 180.46 75.3668 179.8V173.92C75.3668 173.02 75.2568 172.37 75.0368 171.97C74.8168 171.55 74.4368 171.28 73.8968 171.16C73.3768 171.02 72.5568 170.95 71.4368 170.95C70.3168 170.95 69.4868 171.02 68.9468 171.16C68.4268 171.28 68.0568 171.55 67.8368 171.97C67.6168 172.37 67.5068 173.02 67.5068 173.92V179.8C67.5068 180.46 67.5768 180.98 67.7168 181.36C67.8768 181.72 68.1368 181.98 68.4968 182.14C68.8568 182.32 69.2268 182.43 69.6068 182.47C69.9868 182.51 70.5968 182.53 71.4368 182.53Z" fill="#38BDF8"/>
<path d="M86.7776 184.3C85.2376 184.3 83.5776 184.18 81.7976 183.94V181.87C84.1376 182.25 85.8176 182.44 86.8376 182.44C88.1176 182.44 89.0376 182.32 89.5976 182.08C90.1576 181.82 90.4376 181.35 90.4376 180.67V179.2C90.4376 178.58 90.2276 178.14 89.8076 177.88C89.3876 177.62 88.7076 177.49 87.7676 177.49H86.1176C84.6176 177.49 83.4676 177.18 82.6676 176.56C81.8876 175.94 81.4976 175.07 81.4976 173.95V172.6C81.4976 170.32 83.6576 169.18 87.9776 169.18C88.2976 169.18 89.7676 169.26 92.3876 169.42V171.37C90.6076 171.09 89.0976 170.95 87.8576 170.95C86.4376 170.95 85.4676 171.09 84.9476 171.37C84.4276 171.65 84.1676 172.12 84.1676 172.78V174.01C84.1676 174.99 85.0576 175.48 86.8376 175.48H88.5176C91.5776 175.48 93.1076 176.62 93.1076 178.9V180.16C93.1076 181.66 92.5876 182.73 91.5476 183.37C90.5076 183.99 88.9176 184.3 86.7776 184.3Z" fill="#38BDF8"/>
<path d="M102.93 184.3C101.69 184.3 100.72 184.17 100.02 183.91C99.3195 183.63 98.8095 183.17 98.4895 182.53C98.1895 181.87 98.0395 180.95 98.0395 179.77V171.25H94.7995V169.48H98.0395V164.98H100.77V169.48H105.96V171.25H100.77V179.92C100.77 180.64 100.85 181.18 101.01 181.54C101.19 181.9 101.49 182.16 101.91 182.32C102.35 182.46 102.98 182.53 103.8 182.53C104.06 182.53 104.78 182.45 105.96 182.29V184.06C104.94 184.22 103.93 184.3 102.93 184.3Z" fill="#38BDF8"/>
<path d="M114.4 190.6C112.42 190.6 110.75 190.49 109.39 190.27V188.35C111.79 188.63 113.54 188.77 114.64 188.77C116.02 188.77 117.02 188.55 117.64 188.11C118.28 187.67 118.6 186.94 118.6 185.92V182.44C118.56 183.08 118.12 183.55 117.28 183.85C116.46 184.15 115.42 184.3 114.16 184.3C112.66 184.3 111.49 184.16 110.65 183.88C109.83 183.6 109.24 183.14 108.88 182.5C108.54 181.86 108.37 180.99 108.37 179.89V173.98C108.37 172.26 108.83 171.03 109.75 170.29C110.69 169.55 112.22 169.18 114.34 169.18C116.86 169.18 118.34 169.75 118.78 170.89V169.48H121.3V185.38C121.3 186.72 121.05 187.77 120.55 188.53C120.05 189.29 119.3 189.82 118.3 190.12C117.3 190.44 116 190.6 114.4 190.6ZM114.73 182.5C116.15 182.5 117.15 182.33 117.73 181.99C118.31 181.65 118.6 181.01 118.6 180.07V173.5C118.6 172.84 118.49 172.34 118.27 172C118.07 171.66 117.69 171.42 117.13 171.28C116.57 171.12 115.75 171.04 114.67 171.04C113.65 171.04 112.88 171.11 112.36 171.25C111.86 171.39 111.51 171.64 111.31 172C111.13 172.34 111.04 172.84 111.04 173.5V180.07C111.04 180.75 111.14 181.26 111.34 181.6C111.54 181.94 111.9 182.18 112.42 182.32C112.94 182.44 113.71 182.5 114.73 182.5Z" fill="#38BDF8"/>
<path d="M125.99 169.48H128.54V171.85C128.54 171.39 128.74 170.96 129.14 170.56C129.54 170.14 130.05 169.81 130.67 169.57C131.29 169.31 131.9 169.18 132.5 169.18H133.82V171.49H132.32C131.04 171.49 130.11 171.66 129.53 172C128.97 172.32 128.69 172.91 128.69 173.77V184H125.99V169.48Z" fill="#38BDF8"/>
<path d="M142.628 184.3C138.188 184.3 135.967 182.82 135.967 179.86V174.13C135.967 172.37 136.467 171.11 137.467 170.35C138.487 169.57 140.127 169.18 142.387 169.18C144.527 169.18 146.068 169.55 147.008 170.29C147.968 171.03 148.447 172.31 148.447 174.13V177.34H138.697V179.53C138.697 180.53 139.047 181.25 139.747 181.69C140.447 182.13 141.528 182.35 142.988 182.35C144.368 182.35 145.998 182.11 147.878 181.63V183.7C146.038 184.1 144.288 184.3 142.628 184.3ZM145.747 175.57V173.29C145.747 172.41 145.477 171.81 144.938 171.49C144.417 171.15 143.518 170.98 142.238 170.98C140.998 170.98 140.098 171.15 139.538 171.49C138.978 171.81 138.697 172.41 138.697 173.29V175.57H145.747Z" fill="#38BDF8"/>
<path d="M158.352 184.3C156.692 184.3 154.712 184.14 152.412 183.82V181.39C154.732 181.89 156.772 182.14 158.532 182.14C160.012 182.14 161.092 181.98 161.772 181.66C162.452 181.32 162.792 180.7 162.792 179.8V177.28C162.792 176.44 162.552 175.85 162.072 175.51C161.592 175.17 160.752 175 159.552 175H157.272C155.372 175 154.022 174.62 153.222 173.86C152.422 173.1 152.022 171.92 152.022 170.32V168.76C152.022 167.7 152.252 166.84 152.712 166.18C153.192 165.52 153.982 165.03 155.082 164.71C156.202 164.39 157.732 164.23 159.672 164.23C160.972 164.23 162.642 164.34 164.682 164.56V166.75C162.402 166.41 160.662 166.24 159.462 166.24C157.602 166.24 156.372 166.42 155.772 166.78C155.152 167.16 154.842 167.79 154.842 168.67V170.89C154.842 171.57 155.082 172.07 155.562 172.39C156.062 172.69 156.912 172.84 158.112 172.84H160.452C161.792 172.84 162.832 173 163.572 173.32C164.332 173.64 164.862 174.13 165.162 174.79C165.482 175.43 165.642 176.3 165.642 177.4V178.81C165.642 180.19 165.382 181.28 164.862 182.08C164.362 182.88 163.582 183.45 162.522 183.79C161.462 184.13 160.072 184.3 158.352 184.3Z" fill="#38BDF8"/>
<path d="M177.412 184C171.952 184 169.222 182.24 169.222 178.72V169.81C169.222 166.09 171.952 164.23 177.412 164.23C182.892 164.23 185.632 166.08 185.632 169.78V177.82C185.632 179.66 184.742 181.17 182.962 182.35H187.762V184H177.412ZM177.472 182.05C181.052 182.05 182.842 180.93 182.842 178.69V169.72C182.842 167.32 181.042 166.12 177.442 166.12C176.642 166.12 175.952 166.17 175.372 166.27C174.792 166.35 174.242 166.51 173.722 166.75C172.582 167.29 172.012 168.28 172.012 169.72V178.69C172.012 180.93 173.832 182.05 177.472 182.05Z" fill="#38BDF8"/>
<path d="M190.096 164.53H193.006V181.96H202.576V184H190.096V164.53Z" fill="#38BDF8"/>
<g clip-path="url(#clip0_1104_53)">
<path fill-rule="evenodd" clip-rule="evenodd" d="M120.17 104.002C120.858 104.022 121.4 104.595 121.38 105.282C121.243 110.207 121.26 115.141 121.432 119.136C121.518 121.135 121.641 122.885 121.801 124.274C121.966 125.705 121.487 126.498 121.661 126.932M120.17 104.002C119.483 103.983 118.91 104.525 118.891 105.213ZM118.891 105.213C118.752 110.183 118.769 115.177 118.943 119.243ZM118.943 119.243C119.03 121.275 119.158 123.089 119.326 124.558ZM119.326 124.558C119.49 125.985 119.706 127.213 120.017 127.99ZM142.7 105.246C143.386 105.297 143.901 105.895 143.849 106.581C143.675 108.904 142.335 120.089 141.635 124.141C141.146 126.979 140.306 129.244 138.655 130.96C137.006 132.674 134.697 133.686 131.606 134.349C127.72 135.182 125.012 134.334 123.146 132.763C121.356 131.255 120.503 129.205 120.017 127.99L120.017 127.99M142.7 105.246C142.014 105.195 141.417 105.709 141.365 106.395ZM141.365 106.395C141.197 108.638 140.731 117.463 140.045 121.437ZM140.045 121.437L141.419 106.531ZM141.419 106.531C142.575 105.329 140.968 109.146 141.419 106.531ZM141.419 106.531C141.419 106.531 140.439 119.393 138.546 126.432C137.348 129.63 135.852 130.362 133.851 131.128C129.155 132.927 126.022 131.928 124.751 130.858C123.48 129.787 122.543 127.147 122.061 125.94" fill="#38BDF8"/>
<path fill-rule="evenodd" clip-rule="evenodd" d="M112.06 54.4911C112.061 54.4914 112.062 54.4916 111.597 55.6293L112.062 54.4916C112.698 54.7519 113.004 55.479 112.743 56.1157C112.483 56.7523 111.756 57.0575 111.12 56.7975L111.119 56.7973L111.591 55.6445C111.119 56.7973 111.12 56.7975 111.12 56.7975L111.119 56.7973L111.117 56.7964L111.103 56.7908C111.09 56.7856 111.069 56.7773 111.041 56.7663C110.985 56.7442 110.9 56.7111 110.788 56.6685C110.563 56.5834 110.229 56.4607 109.802 56.3141C108.948 56.0208 107.725 55.6329 106.262 55.2586C103.322 54.5064 99.4729 53.8262 95.7112 54.0419C91.9478 54.2577 88.4122 55.3592 85.896 58.0247C83.3906 60.6787 81.6938 65.0986 82.0585 72.3896C82.1326 73.871 82.7229 77.5981 83.7585 82.2197C84.7881 86.8149 86.2366 92.1999 87.9934 96.9786C89.7717 101.816 91.7945 105.826 93.8884 107.862C94.918 108.862 95.8123 109.238 96.5838 109.205C98.481 108.947 99.4802 107.4 101.878 104.551C103.128 103.066 105.311 100.716 106.274 99.6554C106.587 99.3114 108.466 100.989 108.71 100.696M108.719 100.686L108.719 100.687L108.71 100.696L108.682 100.726C108.656 100.753 108.618 100.793 108.567 100.846C108.466 100.953 108.317 101.111 108.125 101.315C107.743 101.724 107.192 102.318 106.521 103.056C105.178 104.533 103.359 106.584 101.45 108.88L101.45 108.881C100.012 110.609 98.4251 111.62 96.6895 111.694C94.9616 111.767 93.436 110.896 92.1523 109.648C89.6192 107.186 87.4406 102.694 85.6555 97.8381C83.849 92.9242 82.3724 87.4264 81.3278 82.7643C80.2892 78.1286 79.6562 74.2237 79.5707 72.514C79.1852 64.8054 80.9603 59.6246 84.0847 56.3148C87.1983 53.0165 91.4505 51.7912 95.5686 51.5551C99.6884 51.3188 103.815 52.0616 106.879 52.8454C108.419 53.2391 109.706 53.6474 110.611 53.9583C111.064 54.1139 111.422 54.2453 111.669 54.3388C111.793 54.3855 111.888 54.4228 111.955 54.4488C111.988 54.4618 112.013 54.4721 112.031 54.4793L112.052 54.4878L112.058 54.4903L112.06 54.4911" fill="#38BDF8"/>
<path fill-rule="evenodd" clip-rule="evenodd" d="M129.592 54.346C129.53 54.3773 129.466 54.4039 129.397 54.4253C129.375 54.4322 129.328 54.4468 129.276 54.4593C129.261 54.4629 129.236 54.4686 129.205 54.4743C129.184 54.478 129.114 54.4907 129.023 54.4939C128.971 54.4946 128.833 54.4862 128.749 54.4732C128.593 54.4337 128.181 54.2063 127.968 53.9776C127.782 53.5978 127.781 52.9027 127.889 52.6448C127.964 52.5252 128.106 52.359 128.163 52.3063C128.255 52.227 128.339 52.1788 128.359 52.1676C128.359 52.1673 128.36 52.167 128.36 52.1668C128.393 52.1482 128.42 52.1346 128.435 52.1271C128.466 52.1119 128.492 52.1002 128.507 52.0938C128.54 52.08 128.572 52.0671 128.6 52.0566C128.71 52.0144 128.886 51.9527 129.117 51.8789C129.583 51.7294 130.311 51.5172 131.245 51.299C133.11 50.863 135.821 50.3969 138.926 50.3681C145.133 50.3105 153.055 52.0082 158.798 59.3468L158.798 59.3468C160.034 60.9256 160.461 63.4688 160.417 66.3316C160.372 69.267 159.823 72.8184 158.828 76.6703C156.838 84.3764 153.02 93.4424 147.629 101.441C147.245 102.012 146.471 102.162 145.901 101.778C145.33 101.394 145.179 100.62 145.564 100.049C150.786 92.2995 154.493 83.4964 156.417 76.0473C157.379 72.3217 157.885 68.974 157.927 66.2931C157.969 63.5397 157.516 61.7495 156.837 60.8819C151.741 54.3712 144.709 52.8054 138.949 52.8589C136.072 52.8856 133.547 53.3188 131.812 53.7244C130.945 53.927 130.282 54.1212 129.877 54.2509C129.755 54.29 129.66 54.3221 129.592 54.346Z" fill="#38BDF8"/>
<path fill-rule="evenodd" clip-rule="evenodd" d="M110.238 55.2104C113.155 52.7812 117.058 51.2331 122.206 51.3175C132.413 51.4848 139.148 56.7328 143.196 61.9072C145.215 64.4889 146.579 67.0666 147.394 69.0241C147.8 70.0003 148.079 70.8441 148.232 71.4751C148.307 71.7814 148.364 72.0859 148.378 72.3501C148.384 72.4699 148.388 72.6703 148.336 72.8859C148.307 73.0088 148.117 73.7214 147.327 73.8849L146.877 73.895C141.765 73.0764 139.421 73.9449 138.403 75.1089C137.368 76.2938 137.228 78.3167 137.904 81.0273C138.56 83.6578 139.884 86.5251 141.156 88.9652C141.763 90.1291 142.347 91.1779 142.832 92.0461L142.906 92.1801C143.373 93.0166 143.787 93.7606 143.972 94.2079C144.598 95.7252 145.383 96.7926 146.089 97.6839C146.168 97.7836 146.249 97.8847 146.33 97.9864C146.598 98.3211 146.871 98.6617 147.091 98.9761C147.372 99.3757 147.66 99.8546 147.796 100.409C147.805 100.424 147.82 100.449 147.846 100.483C147.926 100.586 148.11 101.012 148.638 101.23C149.73 101.683 145.74 100.455 145.044 100.435M145.067 100.428C145.06 100.43 145.052 100.433 145.044 100.435C144.773 100.513 144.437 100.619 144.087 100.776C143.364 101.102 142.584 101.65 142.039 102.649C141.508 103.622 141.27 104.898 141.364 106.559C141.447 108.007 142.751 108.66 143.657 108.942C144.682 109.26 145.984 109.374 147.306 109.36C149.946 109.331 153.107 108.78 155.151 107.831L155.151 107.831C156.342 107.278 157.419 106.63 158.298 105.974C159.16 105.333 159.899 104.633 160.348 103.957C160.566 103.628 160.787 103.198 160.834 102.711C160.889 102.146 160.694 101.54 160.156 101.131C159.706 100.789 159.16 100.698 158.713 100.683C158.488 100.675 154.24 101.527 151.136 101.454C147.694 101.373 145.362 100.369 145.044 100.435M145.067 100.428C145.062 100.421 145.058 100.414 145.053 100.407C144.881 100.163 144.679 99.9097 144.426 99.5941C144.336 99.4816 144.24 99.3611 144.136 99.2303C143.376 98.2701 142.425 96.9907 141.669 95.1579C141.554 94.8788 141.233 94.2932 140.716 93.3672L140.653 93.2533C140.17 92.3877 139.57 91.312 138.947 90.1163C137.653 87.6336 136.217 84.5548 135.487 81.6301C134.778 78.7854 134.627 75.6441 136.528 73.4697C138.231 71.5207 141.212 70.7617 145.559 71.2085C145.439 70.8516 145.285 70.4392 145.094 69.9811C144.355 68.2045 143.099 65.8262 141.234 63.4419C137.512 58.6843 131.422 53.9598 122.165 53.808C117.582 53.7329 114.199 55.164 111.763 57.1922C109.303 59.24 107.595 61.7935 106.642 64.8487C105.894 66.935 105.043 70.6401 104.806 72.8436C104.688 73.9419 104.639 74.856 104.619 75.4918C104.609 75.8095 104.607 76.0571 104.606 76.2228C104.606 76.3057 104.607 76.368 104.608 76.4083C104.608 76.4285 104.608 76.4432 104.608 76.4521L104.608 76.4613C104.608 76.4613 104.619 70.4923 106.642 64.8487C108.772 59.2904 111.763 57.1922 111.763 57.1922M145.891 72.484C145.891 72.4946 145.891 72.4932 145.891 72.4818C145.891 72.4826 145.891 72.4833 145.891 72.484ZM146.47 102.609C146.795 102.874 147.206 103.125 147.722 103.339C149.488 104.07 152.466 104.352 157.591 103.294C157.61 103.291 157.629 103.287 157.647 103.283C157.419 103.497 157.14 103.731 156.81 103.977C156.074 104.526 155.145 105.088 154.102 105.572C152.48 106.325 149.699 106.843 147.279 106.869C146.072 106.882 145.065 106.771 144.396 106.563C144.058 106.458 143.907 106.366 143.846 106.317C143.784 105.008 143.994 104.266 144.226 103.842C144.449 103.433 144.751 103.21 145.11 103.048C145.301 102.961 145.507 102.894 145.738 102.827C145.786 102.813 145.841 102.798 145.9 102.781C146.078 102.731 146.293 102.671 146.47 102.609ZM143.809 106.279C143.81 106.279 143.815 106.284 143.822 106.295C143.812 106.285 143.808 106.279 143.809 106.279Z" fill="#38BDF8"/>
<path fill-rule="evenodd" clip-rule="evenodd" d="M118.407 100.86C118.417 100.864 118.425 100.867 118.434 100.871L118.434 100.871C119.665 101.381 120.594 102.548 121.044 103.763C121.499 104.99 121.568 106.56 120.646 107.85C116.177 114.109 109.533 113.039 106.888 112.377C106.267 112.222 105.57 111.96 104.958 111.625C104.394 111.317 103.696 110.836 103.327 110.152C103.122 109.772 102.995 109.28 103.12 108.739C103.241 108.21 103.565 107.806 103.927 107.51C104.608 106.955 105.688 106.57 107.098 106.279L107.099 106.279C109.827 105.717 110.702 105.347 111.259 104.903C111.546 104.674 111.794 104.389 112.184 103.898C112.242 103.825 112.302 103.749 112.365 103.669C112.717 103.222 113.158 102.661 113.759 101.99M118.407 100.86C118.012 100.696 117.294 100.398 116.432 100.473ZM116.432 100.473C115.492 100.555 114.602 101.046 113.759 101.99ZM115.569 103.65L114.688 102.82L115.616 103.65C115.071 104.259 114.679 104.756 114.329 105.201C114.263 105.285 114.199 105.366 114.135 105.446C113.742 105.942 113.342 106.428 112.811 106.851C111.733 107.71 110.296 108.164 107.601 108.719M115.569 103.65C116.111 103.043 116.501 102.967 116.648 102.955ZM116.648 102.955C116.853 102.937 117.165 102.953 116.666 102.953ZM116.666 102.953C117.964 103.053 118.434 103.889 118.708 104.628C118.978 105.356 118.913 105.992 118.62 106.403C115.113 111.313 109.951 110.576 107.493 109.961L107.493 109.961C107.062 109.853 106.567 109.666 106.154 109.44C106.033 109.374 105.926 109.308 105.835 109.245C105.915 109.208 106.011 109.167 106.123 109.124C106.477 108.99 106.959 108.851 107.601 108.719" fill="#38BDF8"/>
<path fill-rule="evenodd" clip-rule="evenodd" d="M115.392 71.9914C117.286 72.7225 118.7 74.301 119.256 76.8691C120.562 82.9089 120.418 86.9794 119.718 90.0654C119.37 91.6016 118.89 92.8609 118.419 93.9572C118.238 94.3798 118.068 94.7581 117.908 95.1123C117.636 95.7165 117.395 96.2509 117.184 96.8169C117.121 96.9885 117.058 97.1567 116.996 97.3217C116.602 98.3792 116.256 99.3072 116.016 100.171C115.739 101.167 115.644 101.942 115.742 102.578C115.846 103.258 115.379 103.893 114.7 103.998C114.02 104.102 113.384 103.635 113.28 102.955C113.254 102.79 113.237 102.624 113.226 102.458C106.335 102.29 100.856 95.6063 101.917 88.0214C102.52 83.7104 102.303 79.9913 102.179 77.8834C102.144 77.2756 102.177 78.1988 102.179 77.8834L102.278 76.1757C102.282 75.6353 102.434 75.5543 102.548 75.4157C102.715 75.2134 102.922 75.0232 103.133 74.8522C103.56 74.505 104.132 74.1298 104.786 73.7654C106.098 73.0354 107.863 72.2794 109.71 71.8531C111.535 71.4322 113.595 71.2973 115.392 71.9914ZM113.494 99.9692C113.532 99.8132 113.573 99.6579 113.616 99.5035C113.887 98.5282 114.276 97.4866 114.667 96.4402C114.727 96.277 114.788 96.1136 114.849 95.9504L114.849 95.9498C115.086 95.3124 115.388 94.6401 115.686 93.9772C115.839 93.6385 115.99 93.3023 116.131 92.9744C116.568 91.9568 116.986 90.8497 117.289 89.5142C117.892 86.8567 118.068 83.1626 116.821 77.3957C116.425 75.5647 115.53 74.7149 114.495 74.3151C113.364 73.8783 111.875 73.91 110.27 74.2803C108.688 74.6452 107.142 75.3048 105.998 75.9417C105.425 76.2607 104.984 76.5568 104.704 76.7846C104.673 76.8104 104.645 76.834 104.62 76.8555C104.629 77.0308 104.642 77.2479 104.657 77.5028C104.777 79.4779 105.033 83.7218 104.384 88.3664C103.494 94.7279 108.142 99.9524 113.494 99.9692ZM104.475 76.9949C104.452 77.0289 104.444 77.0322 104.47 77.0009C104.471 76.9991 104.473 76.9971 104.475 76.9949Z" fill="#38BDF8"/>
<path d="M111.474 76.3155C111.416 76.7229 112.22 77.8102 113.267 77.9555C114.313 78.1014 115.208 77.2517 115.265 76.8446C115.322 76.4372 114.519 75.9884 113.471 75.8425C112.425 75.6964 111.529 75.909 111.474 76.3155H111.474Z" fill="#38BDF8"/>
<path fill-rule="evenodd" clip-rule="evenodd" d="M113.529 75.4314C112.968 75.3531 112.428 75.3677 112.005 75.468ZM112.005 75.468C111.795 75.5178 111.736 75.6617 111.57 75.7761ZM111.57 75.7761C111.497 75.8269 111.332 75.8983 111.27 75.9759ZM111.27 75.9759C111.27 75.9759 111.198 75.9483 111.171 75.9759C111.071 76.0758 111.063 76.2575 111.063 76.2575C111.03 76.4906 111.119 76.7313 111.214 76.9142C111.318 77.1152 111.47 77.3254 111.655 77.5202C112.022 77.9053 112.565 78.2773 113.21 78.3668M111.894 76.3945C111.895 76.3934 111.897 76.3922 111.898 76.3911C111.949 76.3558 112.045 76.3117 112.197 76.2759C112.497 76.2048 112.929 76.186 113.414 76.2538C113.9 76.3214 114.311 76.4576 114.58 76.608C114.716 76.6839 114.796 76.7526 114.836 76.8005C114.839 76.8044 114.842 76.8079 114.844 76.811C114.832 76.8374 114.805 76.8848 114.753 76.9504C114.672 77.0505 114.554 77.1628 114.404 77.2639C114.103 77.4678 113.72 77.5996 113.325 77.5444L113.324 77.5444C112.922 77.4885 112.539 77.2443 112.257 76.9476C112.118 76.8016 112.014 76.6544 111.951 76.5325C111.917 76.4666 111.901 76.4212 111.894 76.3945ZM115.477 76.273C115.605 76.4288 115.712 76.6464 115.676 76.902C115.647 77.1122 115.527 77.3121 115.4 77.4707C115.264 77.6399 115.083 77.8072 114.87 77.9512C114.448 78.2373 113.861 78.4574 113.21 78.3668M115.477 76.273C115.349 76.1177 115.174 75.9887 114.985 75.8832ZM114.985 75.8832C114.605 75.6709 114.09 75.5096 113.529 75.4314Z" fill="#38BDF8"/>
<path d="M143.331 75.4848C143.388 75.8923 142.585 76.9796 141.537 77.1248C140.49 77.2707 139.595 76.421 139.538 76.014C139.483 75.6065 140.285 75.1577 141.332 75.0119C142.379 74.866 143.274 75.0784 143.331 75.485V75.4848Z" fill="#38BDF8"/>
<path fill-rule="evenodd" clip-rule="evenodd" d="M142.655 75.2433C142.324 75.1649 141.865 75.1472 141.36 75.2175C140.856 75.2878 140.419 75.4302 140.123 75.5961C139.973 75.6794 139.869 75.7632 139.807 75.8381C139.746 75.9125 139.74 75.9604 139.743 75.9856C139.75 76.0335 139.79 76.1275 139.889 76.2497C139.983 76.3671 140.117 76.4931 140.283 76.6049C140.614 76.8295 141.048 76.9834 141.508 76.9193L141.508 76.9193C141.972 76.855 142.394 76.5789 142.697 76.2601C142.848 76.1018 142.964 75.9389 143.037 75.7972C143.115 75.6467 143.13 75.5505 143.125 75.5138L143.125 75.5138C143.121 75.4892 143.103 75.4448 143.023 75.3898C142.944 75.3348 142.821 75.2827 142.655 75.2433ZM143.259 75.0483C143.396 75.143 143.511 75.2776 143.536 75.4563L143.536 75.4563C143.559 75.6235 143.495 75.8159 143.406 75.9881C143.312 76.1693 143.172 76.3637 142.998 76.5463C142.653 76.9093 142.15 77.2495 141.565 77.3305C140.978 77.4123 140.442 77.2143 140.05 76.9487C139.853 76.8154 139.687 76.6618 139.565 76.51C139.447 76.3634 139.354 76.1988 139.332 76.043L139.332 76.042L139.332 76.042C139.308 75.8634 139.381 75.7025 139.487 75.574C139.593 75.4456 139.744 75.3317 139.92 75.2337C140.272 75.0369 140.761 74.8819 141.303 74.8063C141.845 74.7307 142.358 74.7463 142.75 74.8393C142.946 74.8857 143.123 74.9538 143.259 75.0483Z" fill="#38BDF8"/>
<path fill-rule="evenodd" clip-rule="evenodd" d="M145.84 72.7786C146.527 72.7416 148.281 71.9112 148.318 72.598C148.411 74.3279 148.223 75.7742 148.012 77.1618C147.988 77.325 147.963 77.487 147.938 77.6485C147.75 78.8689 147.567 80.0576 147.522 81.4801L147.522 81.4808C147.485 82.6155 147.602 83.815 147.756 85.1273C147.78 85.3364 147.806 85.5487 147.831 85.7638C147.965 86.8711 148.107 88.0516 148.165 89.2448C148.308 92.1396 147.975 95.271 145.875 98.4063C145.492 98.9778 144.719 99.1309 144.147 98.7482C143.576 98.3655 143.423 97.592 143.805 97.0204C145.501 94.4884 145.805 91.956 145.678 89.3674C145.624 88.2699 145.494 87.1911 145.361 86.0842C145.335 85.8632 145.308 85.6411 145.282 85.4175C145.127 84.1006 144.989 82.7384 145.032 81.4007M145.84 72.7786C145.803 72.0918 145.153 72.8157 145.84 72.7786ZM145.84 72.7786C145.74 74.2773 145.74 74.2773 145.55 76.789ZM145.55 76.789C145.526 76.9457 145.501 77.1043 145.477 77.2651ZM145.477 77.2651C145.289 78.48 145.083 79.8179 145.032 81.3999Z" fill="#38BDF8"/>
<path fill-rule="evenodd" clip-rule="evenodd" d="M110.054 59.8937C108.861 61.7794 107.523 64.1001 106.796 66.0108C106.078 67.8992 105.539 70.4915 105.177 72.6668C104.998 73.7432 104.866 74.6971 104.778 75.3814C104.734 75.7233 104.702 75.9973 104.681 76.1849C104.67 76.2787 104.662 76.3509 104.657 76.3991C104.654 76.4232 104.652 76.4413 104.651 76.4532L104.65 76.4662L104.649 76.4696C104.649 76.4696 104.649 76.4695 103.457 76.3469C102.264 76.2243 102.264 76.2242 102.264 76.2241L102.265 76.2179L102.266 76.2017C102.268 76.1878 102.27 76.1675 102.273 76.1412C102.278 76.0885 102.287 76.0117 102.298 75.9131C102.321 75.7159 102.354 75.4311 102.399 75.0774C102.49 74.3706 102.626 73.386 102.811 72.2733C103.178 70.0703 103.748 67.2815 104.555 65.1587C105.371 63.0108 106.82 60.5213 108.028 58.6116C108.638 57.647 109.199 56.8119 109.608 56.2177C109.812 55.9203 109.979 55.6827 110.095 55.5187C110.153 55.4367 110.198 55.3731 110.23 55.3295C110.245 55.3077 110.257 55.291 110.266 55.2794L110.275 55.2661L110.279 55.261C110.279 55.2609 110.279 55.2608 111.25 55.9645C112.221 56.6681 112.221 56.6681 112.221 56.668L112.219 56.6709L112.211 56.6817C112.204 56.6914 112.193 56.7064 112.179 56.7264C112.15 56.7662 112.107 56.8261 112.052 56.904C111.942 57.06 111.781 57.2887 111.584 57.5761C111.188 58.1515 110.645 58.9605 110.054 59.8937Z" fill="#38BDF8"/>
<path d="M111.171 75.9759C111.171 75.9759 111.45 75.6935 111.67 75.5762C111.988 75.4074 112.211 75.408 112.57 75.3764C113.038 75.3351 113.308 75.3854 113.769 75.4763C114.168 75.5552 114.401 75.5984 114.768 75.7761C114.973 75.8753 115.091 75.9323 115.267 76.0758C115.396 76.1802 115.567 76.3756 115.567 76.3756L114.168 77.3747L113.569 78.3738H113.169L111.77 77.3747L111.171 75.9759Z" fill="#38BDF8"/>
<path d="M107.374 107.749L115.867 103.252L116.466 102.853L116.866 102.753L117.166 102.853L117.565 103.153C117.565 103.153 117.013 102.986 116.666 103.053C116.235 103.135 115.717 103.652 115.717 103.652L115.067 104.252L114.668 104.352L108.173 108.548H107.374V107.749Z" fill="#38BDF8"/>
<path d="M115.566 100.755L115.866 100.555C115.866 100.555 116.29 100.467 116.566 100.455C116.957 100.438 117.184 100.462 117.565 100.555C117.889 100.634 118.364 100.855 118.364 100.855L117.964 101.754H115.566V100.755Z" fill="#38BDF8"/>
<path fill-rule="evenodd" clip-rule="evenodd" d="M119.677 126.858C119.273 125.23 118.866 122.583 118.765 118.371C118.714 116.285 118.664 113.684 118.627 111.606C118.608 110.567 118.593 109.658 118.582 109.008C118.576 108.684 118.572 108.424 118.569 108.245L118.565 107.969C118.565 107.969 118.565 107.969 119.863 107.949C121.162 107.928 121.162 107.928 121.162 107.928L121.167 108.203C121.169 108.381 121.174 108.641 121.179 108.965C121.19 109.613 121.206 110.521 121.224 111.559C121.262 113.636 121.312 116.231 121.362 118.308C121.46 122.389 121.852 124.838 122.198 126.232C122.371 126.928 122.53 127.354 122.631 127.585C122.681 127.7 122.716 127.766 122.731 127.792C122.738 127.805 122.741 127.808 122.737 127.802C122.735 127.8 122.732 127.795 122.727 127.787C122.724 127.784 122.722 127.78 122.718 127.775L122.713 127.768L122.71 127.764L122.709 127.762C122.708 127.761 122.707 127.76 121.662 128.531C120.616 129.301 120.615 129.3 120.615 129.299L120.613 129.297L120.61 129.293L120.603 129.283C120.599 129.277 120.594 129.27 120.589 129.263C120.578 129.248 120.567 129.231 120.555 129.212C120.531 129.175 120.503 129.129 120.472 129.074C120.409 128.964 120.334 128.817 120.25 128.624C120.082 128.24 119.879 127.673 119.677 126.858Z" fill="#38BDF8"/>
<path fill-rule="evenodd" clip-rule="evenodd" d="M143.743 105.55L141.945 122.136L139.561 121.878L141.359 105.292L143.743 105.55Z" fill="#38BDF8"/>
</g>
<defs>
<clipPath id="clip0_1104_53">
<rect width="86.3399" height="89" fill="white" transform="translate(77 48)"/>
</clipPath>
</defs>
</svg>
