<svg width="250" height="250" viewBox="0 0 250 250" fill="none" xmlns="http://www.w3.org/2000/svg">
<rect x="22" width="40" height="2" fill="#7DD8FF"/>
<rect y="62" width="40" height="2" transform="rotate(-90 0 62)" fill="#7DD8FF"/>
<rect y="21.9204" width="31" height="2" transform="rotate(-45 0 21.9204)" fill="#7DD8FF"/>
<rect x="228" y="250" width="40" height="2" transform="rotate(-180 228 250)" fill="#7DD8FF"/>
<rect x="250" y="188" width="40" height="2" transform="rotate(90 250 188)" fill="#7DD8FF"/>
<rect x="250" y="228.08" width="31" height="2" transform="rotate(135 250 228.08)" fill="#7DD8FF"/>
<path d="M53.332 168.195C53.332 169.023 53.1719 169.805 52.8516 170.539C52.5391 171.266 52.1094 171.902 51.5625 172.449C51.0234 172.988 50.3906 173.414 49.6641 173.727C48.9375 174.039 48.1602 174.195 47.332 174.195H37.6875V171.828H47.332C47.832 171.828 48.3008 171.734 48.7383 171.547C49.1758 171.352 49.5547 171.09 49.875 170.762C50.2031 170.434 50.4609 170.051 50.6484 169.613C50.8359 169.168 50.9297 168.695 50.9297 168.195C50.9297 167.695 50.8359 167.227 50.6484 166.789C50.4609 166.352 50.2031 165.973 49.875 165.652C49.5547 165.324 49.1758 165.066 48.7383 164.879C48.3008 164.691 47.832 164.598 47.332 164.598H36.3398V179H33.9375V162.195H47.332C48.1602 162.195 48.9375 162.355 49.6641 162.676C50.3906 162.988 51.0234 163.418 51.5625 163.965C52.1094 164.504 52.5391 165.137 52.8516 165.863C53.1719 166.59 53.332 167.367 53.332 168.195ZM71.6133 172.402C71.6133 173.309 71.4414 174.16 71.0977 174.957C70.7539 175.754 70.2852 176.453 69.6914 177.055C69.1055 177.648 68.4141 178.121 67.6172 178.473C66.8203 178.816 65.9688 178.992 65.0625 179H61.3711C60.4648 178.992 59.6133 178.816 58.8164 178.473C58.0195 178.121 57.3242 177.648 56.7305 177.055C56.1445 176.453 55.6797 175.754 55.3359 174.957C54.9922 174.16 54.8203 173.309 54.8203 172.402C54.8203 171.496 54.9922 170.645 55.3359 169.848C55.6797 169.043 56.1445 168.344 56.7305 167.75C57.3242 167.148 58.0195 166.676 58.8164 166.332C59.6133 165.98 60.4648 165.805 61.3711 165.805H65.0625C65.6641 165.805 66.2461 165.883 66.8086 166.039C67.3711 166.195 67.8945 166.418 68.3789 166.707C68.8633 166.996 69.3047 167.344 69.7031 167.75C70.1016 168.148 70.4414 168.594 70.7227 169.086C71.0039 169.57 71.2227 170.094 71.3789 170.656C71.5352 171.219 71.6133 171.801 71.6133 172.402ZM69.2227 172.402C69.2227 171.824 69.1133 171.281 68.8945 170.773C68.6758 170.266 68.3789 169.824 68.0039 169.449C67.6289 169.066 67.1875 168.766 66.6797 168.547C66.1797 168.32 65.6406 168.203 65.0625 168.195H61.3711C60.793 168.203 60.25 168.32 59.7422 168.547C59.2422 168.766 58.8047 169.066 58.4297 169.449C58.0547 169.824 57.7578 170.266 57.5391 170.773C57.3281 171.281 57.2227 171.824 57.2227 172.402C57.2227 172.98 57.3281 173.523 57.5391 174.031C57.7578 174.539 58.0547 174.984 58.4297 175.367C58.8047 175.742 59.2422 176.043 59.7422 176.27C60.25 176.488 60.793 176.598 61.3711 176.598H65.0625C65.6406 176.598 66.1797 176.488 66.6797 176.27C67.1875 176.043 67.6289 175.742 68.0039 175.367C68.3789 174.984 68.6758 174.539 68.8945 174.031C69.1133 173.523 69.2227 172.98 69.2227 172.402ZM88.0195 174.805C88.0195 175.383 87.9102 175.93 87.6914 176.445C87.4727 176.953 87.1719 177.398 86.7891 177.781C86.4141 178.156 85.9688 178.453 85.4531 178.672C84.9453 178.891 84.4023 179 83.8242 179H73.6172V176.598H83.8242C84.0664 176.598 84.2969 176.551 84.5156 176.457C84.7344 176.363 84.9258 176.234 85.0898 176.07C85.2539 175.906 85.3828 175.719 85.4766 175.508C85.5703 175.289 85.6172 175.055 85.6172 174.805C85.6172 174.562 85.5703 174.332 85.4766 174.113C85.3828 173.895 85.2539 173.703 85.0898 173.539C84.9258 173.375 84.7344 173.246 84.5156 173.152C84.2969 173.051 84.0664 173 83.8242 173H77.2148C76.7148 173 76.2461 172.906 75.8086 172.719C75.3711 172.531 74.9883 172.277 74.6602 171.957C74.3398 171.629 74.0859 171.246 73.8984 170.809C73.7109 170.371 73.6172 169.902 73.6172 169.402C73.6172 168.902 73.7109 168.434 73.8984 167.996C74.0859 167.559 74.3398 167.18 74.6602 166.859C74.9883 166.531 75.3711 166.273 75.8086 166.086C76.2461 165.898 76.7148 165.805 77.2148 165.805H86.8242V168.195H77.2148C76.8789 168.195 76.5938 168.312 76.3594 168.547C76.1328 168.773 76.0195 169.059 76.0195 169.402C76.0195 169.738 76.1328 170.023 76.3594 170.258C76.5938 170.484 76.8789 170.598 77.2148 170.598H83.8242C84.4023 170.598 84.9453 170.707 85.4531 170.926C85.9688 171.145 86.4141 171.445 86.7891 171.828C87.1719 172.211 87.4727 172.656 87.6914 173.164C87.9102 173.672 88.0195 174.219 88.0195 174.805ZM95.0742 179H92.6719V168.195H89.0742V165.805H92.6719V161H95.0742V165.805H103.477V168.195H95.0742V179ZM119.918 179.598C119.918 180.184 119.805 180.73 119.578 181.238C119.359 181.746 119.059 182.191 118.676 182.574C118.301 182.957 117.855 183.258 117.34 183.477C116.832 183.695 116.289 183.805 115.711 183.805H106.113V181.402H115.711C115.953 181.402 116.184 181.355 116.402 181.262C116.621 181.168 116.812 181.039 116.977 180.875C117.141 180.711 117.27 180.52 117.363 180.301C117.465 180.082 117.516 179.848 117.516 179.598V168.195H110.918C110.34 168.203 109.797 168.32 109.289 168.547C108.789 168.766 108.352 169.066 107.977 169.449C107.602 169.824 107.305 170.266 107.086 170.773C106.875 171.281 106.77 171.824 106.77 172.402C106.77 172.98 106.875 173.523 107.086 174.031C107.305 174.531 107.602 174.973 107.977 175.355C108.352 175.73 108.789 176.031 109.289 176.258C109.797 176.477 110.34 176.59 110.918 176.598H116.32V179H110.918C110.012 178.992 109.16 178.816 108.363 178.473C107.566 178.121 106.871 177.648 106.277 177.055C105.691 176.453 105.227 175.754 104.883 174.957C104.539 174.16 104.367 173.309 104.367 172.402C104.367 171.496 104.539 170.645 104.883 169.848C105.227 169.051 105.691 168.355 106.277 167.762C106.871 167.16 107.566 166.688 108.363 166.344C109.16 165.992 110.012 165.812 110.918 165.805H119.918V179.598ZM136.477 168.195H127.477C127.227 168.195 126.992 168.246 126.773 168.348C126.555 168.441 126.363 168.57 126.199 168.734C126.035 168.898 125.906 169.09 125.812 169.309C125.719 169.527 125.672 169.758 125.672 170V179H123.27V170C123.27 169.414 123.379 168.867 123.598 168.359C123.816 167.852 124.117 167.41 124.5 167.035C124.883 166.652 125.328 166.352 125.836 166.133C126.344 165.914 126.891 165.805 127.477 165.805H136.477V168.195ZM153.609 170C153.609 170.586 153.5 171.133 153.281 171.641C153.062 172.148 152.762 172.594 152.379 172.977C152.004 173.352 151.559 173.648 151.043 173.867C150.535 174.086 149.992 174.195 149.414 174.195H140.215C140.387 174.547 140.602 174.871 140.859 175.168C141.117 175.465 141.406 175.719 141.727 175.93C142.047 176.141 142.395 176.305 142.77 176.422C143.152 176.539 143.551 176.598 143.965 176.598H151.816V179H143.965C143.059 178.992 142.207 178.816 141.41 178.473C140.613 178.121 139.918 177.648 139.324 177.055C138.738 176.453 138.273 175.754 137.93 174.957C137.586 174.16 137.414 173.309 137.414 172.402C137.414 171.496 137.586 170.645 137.93 169.848C138.273 169.051 138.738 168.355 139.324 167.762C139.918 167.16 140.613 166.688 141.41 166.344C142.207 165.992 143.059 165.812 143.965 165.805H149.414C149.992 165.805 150.535 165.914 151.043 166.133C151.559 166.352 152.004 166.652 152.379 167.035C152.762 167.41 153.062 167.852 153.281 168.359C153.5 168.867 153.609 169.414 153.609 170ZM149.414 171.805C149.656 171.805 149.887 171.758 150.105 171.664C150.324 171.57 150.516 171.441 150.68 171.277C150.844 171.113 150.973 170.922 151.066 170.703C151.16 170.484 151.207 170.25 151.207 170C151.207 169.758 151.16 169.527 151.066 169.309C150.973 169.09 150.844 168.898 150.68 168.734C150.516 168.57 150.324 168.441 150.105 168.348C149.887 168.246 149.656 168.195 149.414 168.195H143.965C143.434 168.195 142.934 168.289 142.465 168.477C142.004 168.664 141.59 168.922 141.223 169.25C140.863 169.57 140.562 169.953 140.32 170.398C140.086 170.836 139.934 171.305 139.863 171.805H149.414ZM174.809 174.195C174.809 174.867 174.684 175.496 174.434 176.082C174.184 176.66 173.84 177.168 173.402 177.605C172.973 178.035 172.465 178.375 171.879 178.625C171.301 178.875 170.68 179 170.016 179H155.414V176.598H170.016C170.352 176.598 170.664 176.535 170.953 176.41C171.242 176.285 171.492 176.113 171.703 175.895C171.922 175.676 172.094 175.422 172.219 175.133C172.344 174.836 172.406 174.523 172.406 174.195C172.406 173.867 172.344 173.559 172.219 173.27C172.094 172.98 171.922 172.727 171.703 172.508C171.492 172.289 171.242 172.117 170.953 171.992C170.664 171.867 170.352 171.805 170.016 171.805H160.219C159.562 171.805 158.941 171.68 158.355 171.43C157.77 171.18 157.258 170.84 156.82 170.41C156.391 169.973 156.047 169.461 155.789 168.875C155.539 168.289 155.414 167.664 155.414 167C155.414 166.344 155.539 165.723 155.789 165.137C156.047 164.551 156.391 164.043 156.82 163.613C157.258 163.176 157.77 162.832 158.355 162.582C158.941 162.324 159.562 162.195 160.219 162.195H173.613V164.598H160.219C159.891 164.598 159.578 164.66 159.281 164.785C158.992 164.91 158.738 165.082 158.52 165.301C158.301 165.52 158.129 165.777 158.004 166.074C157.879 166.363 157.816 166.672 157.816 167C157.816 167.328 157.879 167.641 158.004 167.938C158.129 168.227 158.301 168.48 158.52 168.699C158.738 168.918 158.992 169.09 159.281 169.215C159.578 169.34 159.891 169.402 160.219 169.402H170.016C170.68 169.402 171.301 169.531 171.879 169.789C172.465 170.039 172.973 170.383 173.402 170.82C173.84 171.25 174.184 171.758 174.434 172.344C174.684 172.922 174.809 173.539 174.809 174.195ZM192.75 181.016L190.594 178.977C190.5 178.992 190.398 179 190.289 179C190.188 179 190.09 179 189.996 179H184.406C183.242 179 182.184 178.781 181.23 178.344C180.277 177.906 179.461 177.309 178.781 176.551C178.109 175.793 177.59 174.902 177.223 173.879C176.855 172.855 176.672 171.762 176.672 170.598C176.672 169.441 176.855 168.355 177.223 167.34C177.59 166.316 178.109 165.426 178.781 164.668C179.461 163.902 180.277 163.301 181.23 162.863C182.184 162.418 183.242 162.195 184.406 162.195H189.996C191.152 162.195 192.203 162.418 193.148 162.863C194.094 163.301 194.902 163.902 195.574 164.668C196.254 165.426 196.777 166.316 197.145 167.34C197.512 168.355 197.695 169.441 197.695 170.598C197.695 171.465 197.59 172.297 197.379 173.094C197.176 173.883 196.879 174.613 196.488 175.285C196.098 175.949 195.621 176.543 195.059 177.066C194.504 177.582 193.879 178.004 193.184 178.332L195.996 181.016H192.75ZM195.293 170.598C195.293 169.77 195.172 168.992 194.93 168.266C194.688 167.539 194.336 166.906 193.875 166.367C193.422 165.82 192.867 165.391 192.211 165.078C191.562 164.758 190.824 164.598 189.996 164.598H184.406C183.578 164.598 182.832 164.758 182.168 165.078C181.512 165.391 180.953 165.82 180.492 166.367C180.039 166.906 179.688 167.539 179.438 168.266C179.195 168.992 179.074 169.77 179.074 170.598C179.074 171.426 179.195 172.207 179.438 172.941C179.688 173.668 180.039 174.305 180.492 174.852C180.953 175.391 181.512 175.816 182.168 176.129C182.832 176.441 183.578 176.598 184.406 176.598H188.098L185.812 174.418H189.176L191.262 176.457C191.895 176.309 192.461 176.055 192.961 175.695C193.461 175.328 193.883 174.887 194.227 174.371C194.578 173.855 194.844 173.277 195.023 172.637C195.203 171.996 195.293 171.316 195.293 170.598ZM216.82 179H200.766V162.195H203.168V176.598H216.82V179Z" fill="#7DD8FF"/>
<g clip-path="url(#clip0_1111_240)">
<path fill-rule="evenodd" clip-rule="evenodd" d="M120.17 104.002C120.858 104.022 121.4 104.595 121.38 105.282C121.243 110.207 121.26 115.141 121.432 119.136C121.518 121.135 121.641 122.885 121.801 124.274C121.966 125.705 121.487 126.498 121.661 126.932M120.17 104.002C119.483 103.983 118.91 104.525 118.891 105.213ZM118.891 105.213C118.752 110.183 118.769 115.177 118.943 119.243ZM118.943 119.243C119.03 121.275 119.158 123.089 119.326 124.558ZM119.326 124.558C119.49 125.985 119.706 127.213 120.017 127.99ZM142.7 105.246C143.386 105.297 143.901 105.895 143.849 106.581C143.675 108.904 142.335 120.089 141.635 124.141C141.146 126.979 140.306 129.244 138.655 130.96C137.006 132.674 134.697 133.686 131.606 134.349C127.72 135.182 125.012 134.334 123.146 132.763C121.356 131.255 120.503 129.205 120.017 127.99L120.017 127.99M142.7 105.246C142.014 105.195 141.417 105.709 141.365 106.395ZM141.365 106.395C141.197 108.638 140.731 117.463 140.045 121.437ZM140.045 121.437L141.419 106.531ZM141.419 106.531C142.575 105.329 140.968 109.146 141.419 106.531ZM141.419 106.531C141.419 106.531 140.439 119.393 138.546 126.432C137.348 129.63 135.852 130.362 133.851 131.128C129.155 132.927 126.022 131.928 124.751 130.858C123.48 129.787 122.543 127.147 122.061 125.94" fill="#7DD8FF"/>
<path fill-rule="evenodd" clip-rule="evenodd" d="M112.06 54.4911C112.061 54.4914 112.062 54.4916 111.597 55.6293L112.062 54.4916C112.698 54.7519 113.004 55.479 112.743 56.1157C112.483 56.7523 111.756 57.0575 111.12 56.7975L111.119 56.7973L111.591 55.6445C111.119 56.7973 111.12 56.7975 111.12 56.7975L111.119 56.7973L111.117 56.7964L111.103 56.7908C111.09 56.7856 111.069 56.7773 111.041 56.7663C110.985 56.7442 110.9 56.7111 110.788 56.6685C110.563 56.5834 110.229 56.4607 109.802 56.3141C108.948 56.0208 107.725 55.6329 106.262 55.2586C103.322 54.5064 99.4729 53.8262 95.7112 54.0419C91.9478 54.2577 88.4122 55.3592 85.896 58.0247C83.3906 60.6787 81.6938 65.0986 82.0585 72.3896C82.1326 73.871 82.7229 77.5981 83.7585 82.2197C84.7881 86.8149 86.2366 92.1999 87.9934 96.9786C89.7717 101.816 91.7945 105.826 93.8884 107.862C94.918 108.862 95.8123 109.238 96.5838 109.205C98.481 108.947 99.4802 107.4 101.878 104.551C103.128 103.066 105.311 100.716 106.274 99.6554C106.587 99.3114 108.466 100.989 108.71 100.696M108.719 100.686L108.719 100.687L108.71 100.696L108.682 100.726C108.656 100.753 108.618 100.793 108.567 100.846C108.466 100.953 108.317 101.111 108.125 101.315C107.743 101.724 107.192 102.318 106.521 103.056C105.178 104.533 103.359 106.584 101.45 108.88L101.45 108.881C100.012 110.609 98.4251 111.62 96.6895 111.694C94.9616 111.767 93.436 110.896 92.1523 109.648C89.6192 107.186 87.4406 102.694 85.6555 97.8381C83.849 92.9242 82.3724 87.4264 81.3278 82.7643C80.2892 78.1286 79.6562 74.2237 79.5707 72.514C79.1852 64.8054 80.9603 59.6246 84.0847 56.3148C87.1983 53.0165 91.4505 51.7912 95.5686 51.5551C99.6884 51.3188 103.815 52.0616 106.879 52.8454C108.419 53.2391 109.706 53.6474 110.611 53.9583C111.064 54.1139 111.422 54.2453 111.669 54.3388C111.793 54.3855 111.888 54.4228 111.955 54.4488C111.988 54.4618 112.013 54.4721 112.031 54.4793L112.052 54.4878L112.058 54.4903L112.06 54.4911" fill="#7DD8FF"/>
<path fill-rule="evenodd" clip-rule="evenodd" d="M129.592 54.346C129.53 54.3773 129.466 54.4039 129.397 54.4253C129.375 54.4322 129.328 54.4468 129.276 54.4593C129.261 54.4629 129.236 54.4686 129.205 54.4743C129.184 54.478 129.114 54.4907 129.023 54.4939C128.971 54.4946 128.833 54.4862 128.749 54.4732C128.593 54.4337 128.181 54.2063 127.968 53.9776C127.782 53.5978 127.781 52.9027 127.889 52.6448C127.964 52.5252 128.106 52.359 128.163 52.3063C128.255 52.227 128.339 52.1788 128.359 52.1676C128.359 52.1673 128.36 52.167 128.36 52.1668C128.393 52.1482 128.42 52.1346 128.435 52.1271C128.466 52.1119 128.492 52.1002 128.507 52.0938C128.54 52.08 128.572 52.0671 128.6 52.0566C128.71 52.0144 128.886 51.9527 129.117 51.8789C129.583 51.7294 130.311 51.5172 131.245 51.299C133.11 50.863 135.821 50.3969 138.926 50.3681C145.133 50.3105 153.055 52.0082 158.798 59.3468L158.798 59.3468C160.034 60.9256 160.461 63.4688 160.417 66.3316C160.372 69.267 159.823 72.8184 158.828 76.6703C156.838 84.3764 153.02 93.4424 147.629 101.441C147.245 102.012 146.471 102.162 145.901 101.778C145.33 101.394 145.179 100.62 145.564 100.049C150.786 92.2995 154.493 83.4964 156.417 76.0473C157.379 72.3217 157.885 68.974 157.927 66.2931C157.969 63.5397 157.516 61.7495 156.837 60.8819C151.741 54.3712 144.709 52.8054 138.949 52.8589C136.072 52.8856 133.547 53.3188 131.812 53.7244C130.945 53.927 130.282 54.1212 129.877 54.2509C129.755 54.29 129.66 54.3221 129.592 54.346Z" fill="#7DD8FF"/>
<path fill-rule="evenodd" clip-rule="evenodd" d="M110.238 55.2104C113.155 52.7812 117.058 51.2331 122.206 51.3175C132.413 51.4848 139.148 56.7328 143.196 61.9072C145.215 64.4889 146.579 67.0666 147.394 69.0241C147.8 70.0003 148.079 70.8441 148.232 71.4751C148.307 71.7814 148.364 72.0859 148.378 72.3501C148.384 72.4699 148.388 72.6703 148.336 72.8859C148.307 73.0088 148.117 73.7214 147.327 73.8849L146.877 73.895C141.765 73.0764 139.421 73.9449 138.403 75.1089C137.368 76.2938 137.228 78.3167 137.904 81.0273C138.56 83.6578 139.884 86.5251 141.156 88.9652C141.763 90.1291 142.347 91.1779 142.832 92.0461L142.906 92.1801C143.373 93.0166 143.787 93.7607 143.972 94.2079C144.598 95.7252 145.383 96.7926 146.089 97.6839C146.168 97.7836 146.249 97.8847 146.33 97.9864C146.598 98.3211 146.871 98.6617 147.091 98.9761C147.372 99.3757 147.66 99.8546 147.796 100.409C147.805 100.424 147.82 100.449 147.846 100.483C147.926 100.586 148.11 101.012 148.638 101.23C149.73 101.683 145.74 100.455 145.044 100.435M145.067 100.428C145.06 100.43 145.052 100.433 145.044 100.435C144.773 100.513 144.437 100.619 144.087 100.776C143.364 101.102 142.584 101.65 142.039 102.649C141.508 103.622 141.27 104.898 141.364 106.559C141.447 108.007 142.751 108.66 143.657 108.942C144.682 109.26 145.984 109.374 147.306 109.36C149.946 109.331 153.107 108.78 155.151 107.831L155.151 107.831C156.342 107.278 157.419 106.63 158.298 105.974C159.16 105.333 159.9 104.633 160.348 103.957C160.566 103.628 160.787 103.198 160.834 102.711C160.889 102.146 160.694 101.54 160.156 101.131C159.706 100.789 159.16 100.698 158.713 100.683C158.488 100.675 154.24 101.527 151.136 101.454C147.694 101.373 145.362 100.369 145.044 100.435M145.067 100.428C145.062 100.421 145.058 100.414 145.053 100.407C144.881 100.163 144.679 99.9097 144.426 99.5941C144.336 99.4816 144.24 99.3611 144.136 99.2303C143.376 98.2701 142.425 96.9907 141.669 95.1579C141.554 94.8788 141.233 94.2932 140.716 93.3672L140.653 93.2533C140.17 92.3877 139.57 91.312 138.947 90.1163C137.653 87.6336 136.217 84.5548 135.487 81.6301C134.778 78.7854 134.627 75.6441 136.528 73.4697C138.231 71.5207 141.212 70.7617 145.559 71.2085C145.439 70.8516 145.285 70.4392 145.094 69.9811C144.355 68.2045 143.099 65.8262 141.234 63.4419C137.512 58.6843 131.422 53.9598 122.165 53.808C117.582 53.7329 114.199 55.164 111.763 57.1922C109.303 59.24 107.595 61.7935 106.642 64.8487C105.894 66.935 105.043 70.6401 104.806 72.8437C104.688 73.9419 104.639 74.856 104.619 75.4918C104.609 75.8095 104.607 76.0571 104.606 76.2228C104.606 76.3057 104.607 76.368 104.608 76.4083C104.608 76.4285 104.608 76.4432 104.608 76.4521L104.608 76.4613C104.608 76.4613 104.619 70.4923 106.642 64.8487C108.772 59.2904 111.763 57.1922 111.763 57.1922M145.891 72.484C145.891 72.4946 145.891 72.4932 145.891 72.4818C145.891 72.4826 145.891 72.4833 145.891 72.484ZM146.47 102.609C146.795 102.874 147.206 103.125 147.722 103.339C149.488 104.07 152.466 104.352 157.591 103.294C157.61 103.291 157.629 103.287 157.647 103.283C157.419 103.497 157.14 103.731 156.81 103.977C156.074 104.526 155.145 105.088 154.102 105.572C152.48 106.325 149.699 106.843 147.279 106.869C146.072 106.882 145.065 106.771 144.396 106.563C144.058 106.458 143.907 106.366 143.846 106.317C143.784 105.008 143.994 104.266 144.226 103.842C144.449 103.433 144.751 103.21 145.11 103.048C145.301 102.961 145.507 102.894 145.738 102.827C145.786 102.813 145.841 102.798 145.9 102.781C146.078 102.731 146.293 102.671 146.47 102.609ZM143.809 106.279C143.81 106.279 143.815 106.284 143.822 106.295C143.812 106.285 143.808 106.279 143.809 106.279Z" fill="#7DD8FF"/>
<path fill-rule="evenodd" clip-rule="evenodd" d="M118.407 100.86C118.417 100.864 118.425 100.867 118.434 100.871L118.434 100.871C119.665 101.381 120.594 102.548 121.044 103.763C121.499 104.99 121.568 106.56 120.646 107.85C116.177 114.109 109.533 113.039 106.888 112.377C106.267 112.222 105.57 111.96 104.958 111.625C104.394 111.317 103.696 110.836 103.327 110.152C103.122 109.772 102.995 109.28 103.12 108.739C103.241 108.21 103.565 107.806 103.927 107.51C104.608 106.955 105.688 106.57 107.098 106.279L107.099 106.279C109.827 105.717 110.702 105.347 111.259 104.903C111.546 104.674 111.794 104.389 112.184 103.898C112.242 103.825 112.302 103.749 112.365 103.669C112.717 103.222 113.158 102.661 113.759 101.99M118.407 100.86C118.012 100.696 117.294 100.398 116.432 100.473ZM116.432 100.473C115.492 100.555 114.602 101.046 113.759 101.99ZM115.569 103.65L114.688 102.82L115.616 103.65C115.071 104.259 114.679 104.756 114.329 105.201C114.263 105.285 114.199 105.366 114.135 105.446C113.742 105.942 113.342 106.428 112.811 106.851C111.733 107.71 110.296 108.164 107.601 108.719M115.569 103.65C116.111 103.043 116.501 102.967 116.648 102.955ZM116.648 102.955C116.853 102.937 117.165 102.953 116.666 102.953ZM116.666 102.953C117.964 103.053 118.434 103.889 118.708 104.628C118.978 105.356 118.913 105.992 118.62 106.403C115.113 111.313 109.951 110.576 107.493 109.961L107.493 109.961C107.062 109.853 106.567 109.666 106.154 109.44C106.033 109.374 105.926 109.308 105.835 109.245C105.915 109.208 106.011 109.167 106.123 109.124C106.477 108.99 106.959 108.851 107.601 108.719" fill="#7DD8FF"/>
<path fill-rule="evenodd" clip-rule="evenodd" d="M115.392 71.9914C117.286 72.7225 118.7 74.301 119.256 76.8691C120.562 82.9089 120.418 86.9794 119.718 90.0654C119.37 91.6016 118.89 92.8609 118.419 93.9572C118.238 94.3798 118.067 94.758 117.908 95.1123C117.636 95.7165 117.395 96.2509 117.184 96.8169C117.121 96.9885 117.058 97.1567 116.996 97.3217C116.602 98.3792 116.256 99.3072 116.016 100.171C115.739 101.167 115.644 101.942 115.742 102.578C115.846 103.258 115.379 103.893 114.7 103.998C114.02 104.102 113.384 103.635 113.28 102.955C113.254 102.79 113.237 102.624 113.226 102.458C106.335 102.29 100.856 95.6063 101.917 88.0214C102.52 83.7104 102.303 79.9913 102.179 77.8834C102.144 77.2756 102.177 78.1988 102.179 77.8834L102.278 76.1757C102.282 75.6353 102.434 75.5543 102.548 75.4157C102.715 75.2134 102.922 75.0232 103.133 74.8522C103.56 74.505 104.132 74.1298 104.786 73.7654C106.098 73.0354 107.863 72.2794 109.71 71.8531C111.535 71.4322 113.595 71.2973 115.392 71.9914ZM113.494 99.9692C113.532 99.8132 113.573 99.6579 113.616 99.5035C113.887 98.5282 114.276 97.4866 114.667 96.4401C114.727 96.2769 114.788 96.1136 114.849 95.9504L114.849 95.9498C115.086 95.3124 115.388 94.6401 115.686 93.9772C115.839 93.6385 115.99 93.3023 116.131 92.9743C116.568 91.9568 116.986 90.8497 117.289 89.5142C117.892 86.8567 118.068 83.1626 116.821 77.3957C116.425 75.5647 115.53 74.7149 114.495 74.3151C113.364 73.8783 111.875 73.91 110.27 74.2803C108.688 74.6452 107.142 75.3048 105.998 75.9417C105.425 76.2607 104.984 76.5568 104.704 76.7846C104.673 76.8104 104.645 76.834 104.62 76.8555C104.629 77.0308 104.642 77.2479 104.657 77.5028C104.777 79.4779 105.033 83.7218 104.384 88.3664C103.494 94.7279 108.142 99.9524 113.494 99.9692ZM104.475 76.9949C104.452 77.0289 104.444 77.0322 104.47 77.0009C104.471 76.9991 104.473 76.9971 104.475 76.9949Z" fill="#7DD8FF"/>
<path d="M111.474 76.3155C111.416 76.7229 112.22 77.8102 113.267 77.9555C114.313 78.1014 115.208 77.2517 115.265 76.8446C115.322 76.4372 114.519 75.9884 113.471 75.8425C112.425 75.6964 111.529 75.909 111.474 76.3155H111.474Z" fill="#7DD8FF"/>
<path fill-rule="evenodd" clip-rule="evenodd" d="M113.529 75.4314C112.968 75.3531 112.428 75.3677 112.005 75.4679ZM112.005 75.4679C111.795 75.5178 111.736 75.6617 111.57 75.7761ZM111.57 75.7761C111.497 75.8269 111.332 75.8983 111.27 75.9759ZM111.27 75.9759C111.27 75.9759 111.198 75.9483 111.171 75.9759C111.071 76.0758 111.063 76.2575 111.063 76.2575C111.03 76.4906 111.119 76.7313 111.214 76.9142C111.318 77.1152 111.47 77.3254 111.655 77.5202C112.022 77.9053 112.565 78.2773 113.21 78.3668M111.894 76.3945C111.895 76.3934 111.897 76.3922 111.898 76.3911C111.949 76.3558 112.045 76.3117 112.197 76.2759C112.497 76.2048 112.929 76.186 113.414 76.2538C113.9 76.3214 114.311 76.4575 114.58 76.608C114.716 76.6839 114.796 76.7526 114.836 76.8005C114.839 76.8044 114.842 76.8079 114.844 76.811C114.832 76.8374 114.805 76.8848 114.753 76.9504C114.672 77.0505 114.554 77.1628 114.404 77.2638C114.103 77.4678 113.72 77.5996 113.325 77.5444L113.324 77.5444C112.922 77.4885 112.539 77.2443 112.257 76.9476C112.118 76.8015 112.014 76.6544 111.951 76.5325C111.917 76.4666 111.901 76.4212 111.894 76.3945ZM115.477 76.273C115.605 76.4288 115.712 76.6464 115.676 76.902C115.647 77.1122 115.527 77.3121 115.4 77.4707C115.264 77.6398 115.083 77.8072 114.87 77.9512C114.448 78.2373 113.861 78.4574 113.21 78.3668M115.477 76.273C115.349 76.1177 115.174 75.9887 114.985 75.8832ZM114.985 75.8832C114.605 75.6709 114.09 75.5096 113.529 75.4314Z" fill="#7DD8FF"/>
<path d="M143.331 75.4848C143.388 75.8923 142.585 76.9796 141.537 77.1248C140.49 77.2707 139.595 76.421 139.538 76.014C139.483 75.6065 140.285 75.1577 141.332 75.0119C142.379 74.866 143.274 75.0784 143.331 75.485V75.4848Z" fill="#7DD8FF"/>
<path fill-rule="evenodd" clip-rule="evenodd" d="M142.655 75.2433C142.324 75.1649 141.865 75.1472 141.36 75.2175C140.856 75.2878 140.419 75.4302 140.123 75.5961C139.973 75.6794 139.869 75.7632 139.807 75.8381C139.746 75.9125 139.74 75.9604 139.743 75.9856C139.75 76.0335 139.79 76.1275 139.889 76.2497C139.983 76.3671 140.117 76.4931 140.283 76.6049C140.614 76.8295 141.048 76.9834 141.508 76.9193L141.508 76.9193C141.972 76.855 142.394 76.5789 142.697 76.2601C142.848 76.1018 142.964 75.9389 143.037 75.7972C143.115 75.6467 143.13 75.5505 143.125 75.5138L143.125 75.5138C143.121 75.4892 143.103 75.4448 143.023 75.3898C142.944 75.3348 142.821 75.2827 142.655 75.2433ZM143.259 75.0483C143.396 75.143 143.511 75.2776 143.536 75.4563L143.536 75.4563C143.559 75.6235 143.495 75.8159 143.406 75.9881C143.312 76.1693 143.172 76.3637 142.998 76.5463C142.653 76.9093 142.15 77.2495 141.565 77.3305C140.978 77.4123 140.442 77.2143 140.05 76.9487C139.853 76.8154 139.687 76.6618 139.565 76.51C139.447 76.3634 139.354 76.1988 139.332 76.043L139.332 76.042L139.332 76.042C139.308 75.8634 139.381 75.7025 139.487 75.574C139.593 75.4456 139.744 75.3317 139.92 75.2337C140.272 75.0369 140.761 74.8819 141.303 74.8063C141.845 74.7307 142.358 74.7463 142.75 74.8393C142.946 74.8857 143.123 74.9538 143.259 75.0483Z" fill="#7DD8FF"/>
<path fill-rule="evenodd" clip-rule="evenodd" d="M145.84 72.7786C146.527 72.7416 148.281 71.9112 148.318 72.598C148.411 74.3279 148.223 75.7742 148.012 77.1618C147.988 77.325 147.963 77.487 147.938 77.6485C147.75 78.8689 147.567 80.0576 147.522 81.4801L147.522 81.4808C147.485 82.6155 147.602 83.815 147.756 85.1273C147.78 85.3364 147.806 85.5487 147.831 85.7638C147.965 86.8711 148.107 88.0516 148.165 89.2448C148.308 92.1396 147.975 95.271 145.875 98.4063C145.492 98.9778 144.719 99.1309 144.147 98.7482C143.576 98.3655 143.423 97.592 143.805 97.0204C145.501 94.4884 145.805 91.956 145.678 89.3674C145.624 88.2699 145.494 87.1911 145.361 86.0842C145.335 85.8632 145.308 85.6411 145.282 85.4175C145.127 84.1006 144.989 82.7384 145.032 81.4007M145.84 72.7786C145.803 72.0918 145.153 72.8157 145.84 72.7786ZM145.84 72.7786C145.74 74.2773 145.74 74.2773 145.55 76.789ZM145.55 76.789C145.526 76.9457 145.501 77.1043 145.477 77.2651ZM145.477 77.2651C145.289 78.48 145.083 79.8179 145.032 81.3999Z" fill="#7DD8FF"/>
<path fill-rule="evenodd" clip-rule="evenodd" d="M110.054 59.8937C108.861 61.7794 107.523 64.1001 106.796 66.0108C106.078 67.8992 105.539 70.4915 105.177 72.6668C104.998 73.7432 104.866 74.6971 104.778 75.3814C104.734 75.7233 104.702 75.9973 104.681 76.1849C104.67 76.2787 104.662 76.3509 104.657 76.3991C104.654 76.4232 104.652 76.4413 104.651 76.4532L104.65 76.4662L104.649 76.4696C104.649 76.4696 104.649 76.4695 103.457 76.3469C102.264 76.2243 102.264 76.2242 102.264 76.2241L102.265 76.2179L102.266 76.2017C102.268 76.1878 102.27 76.1675 102.273 76.1412C102.278 76.0885 102.287 76.0117 102.298 75.9131C102.321 75.7159 102.354 75.4311 102.399 75.0774C102.49 74.3706 102.626 73.386 102.811 72.2733C103.178 70.0703 103.748 67.2815 104.555 65.1587C105.371 63.0108 106.82 60.5213 108.028 58.6116C108.638 57.647 109.199 56.8119 109.608 56.2177C109.812 55.9203 109.979 55.6827 110.095 55.5187C110.153 55.4367 110.198 55.3731 110.23 55.3295C110.245 55.3077 110.257 55.291 110.266 55.2794L110.275 55.2661L110.279 55.261C110.279 55.2609 110.279 55.2608 111.25 55.9645C112.221 56.6681 112.221 56.6681 112.221 56.668L112.219 56.6709L112.211 56.6817C112.204 56.6914 112.193 56.7064 112.179 56.7264C112.15 56.7662 112.107 56.8261 112.052 56.904C111.942 57.06 111.781 57.2887 111.584 57.5761C111.188 58.1515 110.645 58.9605 110.054 59.8937Z" fill="#7DD8FF"/>
<path d="M111.171 75.9759C111.171 75.9759 111.45 75.6935 111.67 75.5762C111.988 75.4074 112.211 75.408 112.57 75.3764C113.038 75.3351 113.308 75.3854 113.769 75.4763C114.168 75.5552 114.401 75.5984 114.768 75.7761C114.973 75.8753 115.091 75.9323 115.267 76.0758C115.396 76.1802 115.567 76.3756 115.567 76.3756L114.168 77.3747L113.569 78.3738H113.169L111.77 77.3747L111.171 75.9759Z" fill="#7DD8FF"/>
<path d="M107.374 107.749L115.867 103.252L116.466 102.853L116.866 102.753L117.166 102.853L117.565 103.153C117.565 103.153 117.013 102.986 116.666 103.053C116.235 103.135 115.717 103.652 115.717 103.652L115.067 104.252L114.668 104.352L108.173 108.548H107.374V107.749Z" fill="#7DD8FF"/>
<path d="M115.566 100.755L115.866 100.555C115.866 100.555 116.29 100.467 116.566 100.455C116.957 100.438 117.184 100.462 117.565 100.555C117.889 100.634 118.364 100.855 118.364 100.855L117.964 101.754H115.566V100.755Z" fill="#7DD8FF"/>
<path fill-rule="evenodd" clip-rule="evenodd" d="M119.677 126.858C119.273 125.23 118.866 122.583 118.765 118.371C118.714 116.285 118.664 113.684 118.627 111.606C118.608 110.567 118.593 109.658 118.582 109.008C118.576 108.684 118.572 108.424 118.569 108.245L118.565 107.969C118.565 107.969 118.565 107.969 119.863 107.949C121.162 107.928 121.162 107.928 121.162 107.928L121.167 108.203C121.169 108.381 121.174 108.641 121.179 108.965C121.19 109.613 121.206 110.521 121.224 111.559C121.262 113.636 121.312 116.231 121.362 118.308C121.46 122.389 121.852 124.838 122.198 126.232C122.371 126.928 122.53 127.354 122.631 127.585C122.681 127.7 122.716 127.766 122.731 127.792C122.738 127.805 122.741 127.808 122.737 127.802C122.735 127.8 122.732 127.795 122.727 127.787C122.724 127.784 122.722 127.78 122.718 127.775L122.713 127.768L122.71 127.764L122.709 127.762C122.708 127.761 122.707 127.76 121.662 128.531C120.616 129.301 120.615 129.3 120.615 129.299L120.613 129.297L120.61 129.293L120.603 129.283C120.599 129.277 120.594 129.27 120.589 129.263C120.578 129.248 120.567 129.231 120.555 129.212C120.531 129.175 120.503 129.129 120.472 129.074C120.409 128.964 120.334 128.817 120.25 128.624C120.082 128.24 119.879 127.673 119.677 126.858Z" fill="#7DD8FF"/>
<path fill-rule="evenodd" clip-rule="evenodd" d="M143.743 105.55L141.945 122.136L139.561 121.878L141.359 105.292L143.743 105.55Z" fill="#7DD8FF"/>
</g>
<defs>
<clipPath id="clip0_1111_240">
<rect width="86.3399" height="89" fill="white" transform="translate(77 48)"/>
</clipPath>
</defs>
</svg>
