<svg width="250" height="250" viewBox="0 0 250 250" fill="none" xmlns="http://www.w3.org/2000/svg">
<path d="M22 0H62V3H22V0Z" fill="#38BDF8"/>
<path d="M0 62L0 22H3L3 62H0Z" fill="#38BDF8"/>
<path d="M0 21.9204L21.9203 0.000100315L24.0416 2.12142L2.12132 24.0417L0 21.9204Z" fill="#38BDF8"/>
<path d="M228 250H188V247H228V250Z" fill="#38BDF8"/>
<path d="M250 188V228H247V188H250Z" fill="#38BDF8"/>
<path d="M250 228.08L228.08 250L225.958 247.879L247.879 225.958L250 228.08Z" fill="#38BDF8"/>
<path d="M85.3008 167.53H92.1408C93.8608 167.53 95.2008 167.64 96.1608 167.86C97.1408 168.06 97.8508 168.43 98.2908 168.97C98.7508 169.51 98.9808 170.3 98.9808 171.34V174.7C98.9808 175.86 98.5008 176.76 97.5408 177.4C96.6008 178.02 95.4008 178.33 93.9408 178.33L100.181 187H96.6108L91.0308 178.69H88.2108V187H85.3008V167.53ZM92.0208 176.77C93.4608 176.77 94.4908 176.6 95.1108 176.26C95.7508 175.9 96.0708 175.26 96.0708 174.34V171.64C96.0708 170.18 94.8108 169.45 92.2908 169.45H88.2108V176.77H92.0208Z" fill="#38BDF8"/>
<path d="M110.196 187.3C105.756 187.3 103.536 185.82 103.536 182.86V177.13C103.536 175.37 104.036 174.11 105.036 173.35C106.056 172.57 107.696 172.18 109.956 172.18C112.096 172.18 113.636 172.55 114.576 173.29C115.536 174.03 116.016 175.31 116.016 177.13V180.34H106.266V182.53C106.266 183.53 106.616 184.25 107.316 184.69C108.016 185.13 109.096 185.35 110.556 185.35C111.936 185.35 113.566 185.11 115.446 184.63V186.7C113.606 187.1 111.856 187.3 110.196 187.3ZM113.316 178.57V176.29C113.316 175.41 113.046 174.81 112.506 174.49C111.986 174.15 111.086 173.98 109.806 173.98C108.566 173.98 107.666 174.15 107.106 174.49C106.546 174.81 106.266 175.41 106.266 176.29V178.57H113.316Z" fill="#38BDF8"/>
<path d="M120.131 172.48H122.831V174.25C123.111 172.87 124.741 172.18 127.721 172.18C130.141 172.18 131.651 172.84 132.251 174.16C132.431 173.52 132.971 173.03 133.871 172.69C134.791 172.35 135.911 172.18 137.231 172.18C139.031 172.18 140.301 172.52 141.041 173.2C141.781 173.86 142.151 174.91 142.151 176.35V187H139.451V176.53C139.451 176.15 139.421 175.84 139.361 175.6C139.301 175.36 139.181 175.12 139.001 174.88C138.601 174.38 137.711 174.13 136.331 174.13C135.271 174.13 134.481 174.2 133.961 174.34C133.441 174.48 133.081 174.72 132.881 175.06C132.701 175.4 132.611 175.89 132.611 176.53V187H129.911V176.53C129.911 176.15 129.881 175.84 129.821 175.6C129.761 175.36 129.641 175.12 129.461 174.88C129.061 174.38 128.181 174.13 126.821 174.13C125.721 174.13 124.891 174.2 124.331 174.34C123.771 174.48 123.381 174.72 123.161 175.06C122.941 175.38 122.831 175.87 122.831 176.53V187H120.131V172.48Z" fill="#38BDF8"/>
<path d="M146.82 167.23H149.52V170.05H146.82V167.23ZM146.82 172.48H149.52V187H146.82V172.48Z" fill="#38BDF8"/>
<path d="M157.563 179.53L152.463 172.48H155.433L159.033 177.79L162.663 172.48H165.633L160.533 179.53L165.933 187H162.963L159.033 181.27L155.133 187H152.163L157.563 179.53Z" fill="#38BDF8"/>
<path d="M87 47H134.17C134.17 47 163.54 47 163.54 74.59C163.54 98.175 145.295 98.175 145.295 98.175C145.295 98.175 160.87 99.955 160.87 119.09V136H137.73V119.09C137.73 119.09 137.73 106.63 126.605 106.63H87V122.65H112.81C112.81 122.65 114.703 122.763 115.48 123.54C116.257 124.317 116.37 126.21 116.37 126.21V136H87V122.65V106.63V87.94H129.72C129.72 87.94 140.4 88.83 140.4 76.37C140.4 63.91 128.385 64.8 122.343 64.8H87V47Z" fill="#38BDF8"/>
</svg>
