<svg width="250" height="250" viewBox="0 0 250 250" fill="none" xmlns="http://www.w3.org/2000/svg">
<rect x="22" width="40" height="2" fill="#7DD8FF"/>
<rect y="62" width="40" height="2" transform="rotate(-90 0 62)" fill="#7DD8FF"/>
<rect y="21.9204" width="31" height="2" transform="rotate(-45 0 21.9204)" fill="#7DD8FF"/>
<rect x="228" y="250" width="40" height="2" transform="rotate(-180 228 250)" fill="#7DD8FF"/>
<rect x="250" y="188" width="40" height="2" transform="rotate(90 250 188)" fill="#7DD8FF"/>
<rect x="250" y="228.08" width="31" height="2" transform="rotate(135 250 228.08)" fill="#7DD8FF"/>
<path d="M103.008 182H99.7617L94.7227 177.195H87.3633V174.828H97.0078C97.5078 174.828 97.9766 174.734 98.4141 174.547C98.8516 174.352 99.2305 174.09 99.5508 173.762C99.8789 173.434 100.137 173.051 100.324 172.613C100.512 172.168 100.605 171.695 100.605 171.195C100.605 170.695 100.512 170.227 100.324 169.789C100.137 169.352 99.8789 168.973 99.5508 168.652C99.2305 168.324 98.8516 168.066 98.4141 167.879C97.9766 167.691 97.5078 167.598 97.0078 167.598H86.0156V182H83.6133V165.195H97.0078C97.8359 165.195 98.6133 165.355 99.3398 165.676C100.066 165.988 100.699 166.418 101.238 166.965C101.785 167.504 102.215 168.137 102.527 168.863C102.848 169.59 103.008 170.367 103.008 171.195C103.008 171.945 102.879 172.656 102.621 173.328C102.363 173.992 102.008 174.59 101.555 175.121C101.102 175.645 100.566 176.082 99.9492 176.434C99.3398 176.777 98.6797 177.008 97.9688 177.125L103.008 182ZM121.066 173C121.066 173.586 120.957 174.133 120.738 174.641C120.52 175.148 120.219 175.594 119.836 175.977C119.461 176.352 119.016 176.648 118.5 176.867C117.992 177.086 117.449 177.195 116.871 177.195H107.672C107.844 177.547 108.059 177.871 108.316 178.168C108.574 178.465 108.863 178.719 109.184 178.93C109.504 179.141 109.852 179.305 110.227 179.422C110.609 179.539 111.008 179.598 111.422 179.598H119.273V182H111.422C110.516 181.992 109.664 181.816 108.867 181.473C108.07 181.121 107.375 180.648 106.781 180.055C106.195 179.453 105.73 178.754 105.387 177.957C105.043 177.16 104.871 176.309 104.871 175.402C104.871 174.496 105.043 173.645 105.387 172.848C105.73 172.051 106.195 171.355 106.781 170.762C107.375 170.16 108.07 169.688 108.867 169.344C109.664 168.992 110.516 168.812 111.422 168.805H116.871C117.449 168.805 117.992 168.914 118.5 169.133C119.016 169.352 119.461 169.652 119.836 170.035C120.219 170.41 120.52 170.852 120.738 171.359C120.957 171.867 121.066 172.414 121.066 173ZM116.871 174.805C117.113 174.805 117.344 174.758 117.562 174.664C117.781 174.57 117.973 174.441 118.137 174.277C118.301 174.113 118.43 173.922 118.523 173.703C118.617 173.484 118.664 173.25 118.664 173C118.664 172.758 118.617 172.527 118.523 172.309C118.43 172.09 118.301 171.898 118.137 171.734C117.973 171.57 117.781 171.441 117.562 171.348C117.344 171.246 117.113 171.195 116.871 171.195H111.422C110.891 171.195 110.391 171.289 109.922 171.477C109.461 171.664 109.047 171.922 108.68 172.25C108.32 172.57 108.02 172.953 107.777 173.398C107.543 173.836 107.391 174.305 107.32 174.805H116.871ZM125.824 182H123.422V168.805H136.078C136.984 168.805 137.836 168.98 138.633 169.332C139.43 169.676 140.121 170.148 140.707 170.75C141.301 171.344 141.77 172.043 142.113 172.848C142.457 173.645 142.629 174.496 142.629 175.402V182H140.227V175.402C140.227 174.824 140.117 174.281 139.898 173.773C139.68 173.266 139.383 172.824 139.008 172.449C138.633 172.066 138.191 171.766 137.684 171.547C137.184 171.32 136.648 171.203 136.078 171.195H134.227V182H131.824V171.195H125.824V182ZM148.875 165.805C148.875 166.055 148.828 166.289 148.734 166.508C148.641 166.719 148.512 166.906 148.348 167.07C148.184 167.234 147.992 167.363 147.773 167.457C147.555 167.551 147.324 167.598 147.082 167.598C146.832 167.598 146.598 167.551 146.379 167.457C146.16 167.363 145.969 167.234 145.805 167.07C145.641 166.906 145.512 166.719 145.418 166.508C145.324 166.289 145.277 166.055 145.277 165.805C145.277 165.562 145.324 165.332 145.418 165.113C145.512 164.895 145.641 164.703 145.805 164.539C145.969 164.375 146.16 164.246 146.379 164.152C146.598 164.051 146.832 164 147.082 164C147.324 164 147.555 164.051 147.773 164.152C147.992 164.246 148.184 164.375 148.348 164.539C148.512 164.703 148.641 164.895 148.734 165.113C148.828 165.332 148.875 165.562 148.875 165.805ZM148.277 182H145.875V168.805H148.277V182ZM167.215 182H163.793L158.648 177.031L153.609 182H150.176L156.996 175.426L150.176 168.805H153.609L167.215 182ZM167.215 168.805L161.508 174.371L159.785 172.836L163.793 168.805H167.215Z" fill="#7DD8FF"/>
<path d="M87 47H134.17C134.17 47 163.54 47 163.54 74.59C163.54 98.175 145.295 98.175 145.295 98.175C145.295 98.175 160.87 99.955 160.87 119.09V136H137.73V119.09C137.73 119.09 137.73 106.63 126.605 106.63H87V122.65H112.81C112.81 122.65 114.703 122.763 115.48 123.54C116.257 124.317 116.37 126.21 116.37 126.21V136H87V122.65V106.63V87.94H129.72C129.72 87.94 140.4 88.83 140.4 76.37C140.4 63.91 128.385 64.8 122.343 64.8H87V47Z" fill="#7DD8FF"/>
</svg>
