<svg width="250" height="250" viewBox="0 0 250 250" fill="none" xmlns="http://www.w3.org/2000/svg">
<rect x="22" width="40" height="3" fill="#38BDF8"/>
<rect y="62" width="40" height="3" transform="rotate(-90 0 62)" fill="#38BDF8"/>
<rect y="21.9204" width="31" height="3" transform="rotate(-45 0 21.9204)" fill="#38BDF8"/>
<rect x="228" y="250" width="40" height="3" transform="rotate(-180 228 250)" fill="#38BDF8"/>
<rect x="250" y="188" width="40" height="3" transform="rotate(90 250 188)" fill="#38BDF8"/>
<rect x="250" y="228.08" width="31" height="3" transform="rotate(135 250 228.08)" fill="#38BDF8"/>
<path d="M101.25 184.772H99.2589V181.786C99.2589 181.302 99.2486 180.887 99.2278 180.541C99.214 180.189 99.1552 179.888 99.0515 179.639C98.9548 179.39 98.7992 179.19 98.5849 179.038C98.3706 178.886 98.0665 178.768 97.6724 178.685C97.2784 178.602 96.7772 178.547 96.1689 178.519C95.5675 178.485 94.8244 178.467 93.9395 178.467H84.9909V184.772H83V168.845H94.2713C95.488 168.845 96.5111 168.89 97.3406 168.98C98.1771 169.062 98.8649 169.19 99.4041 169.363C99.9502 169.536 100.368 169.75 100.659 170.006C100.956 170.262 101.17 170.563 101.302 170.908C101.44 171.254 101.519 171.641 101.54 172.07C101.568 172.498 101.582 172.972 101.582 173.49C101.582 174.154 101.533 174.738 101.436 175.243C101.347 175.74 101.191 176.165 100.97 176.518C100.749 176.87 100.455 177.154 100.088 177.368C99.7221 177.576 99.2624 177.721 98.7094 177.804C99.2624 177.887 99.7048 178.032 100.037 178.239C100.368 178.447 100.624 178.716 100.804 179.048C100.984 179.38 101.101 179.774 101.156 180.23C101.219 180.686 101.25 181.205 101.25 181.786V184.772ZM84.9909 176.808H94.2713C95.1562 176.808 95.8993 176.794 96.5007 176.767C97.109 176.732 97.6102 176.673 98.0043 176.591C98.3983 176.508 98.7024 176.39 98.9167 176.238C99.131 176.086 99.2866 175.885 99.3834 175.637C99.487 175.388 99.5458 175.09 99.5596 174.745C99.5804 174.392 99.5907 173.974 99.5907 173.49C99.5907 173.041 99.5804 172.654 99.5596 172.329C99.5458 172.004 99.487 171.731 99.3834 171.51C99.2866 171.288 99.131 171.112 98.9167 170.981C98.7024 170.849 98.3983 170.749 98.0043 170.68C97.6102 170.604 97.109 170.556 96.5007 170.535C95.8993 170.514 95.1562 170.504 94.2713 170.504H84.9909V176.808Z" fill="#38BDF8"/>
<path d="M111.204 185C109.877 185 108.75 184.91 107.824 184.73C106.898 184.544 106.144 184.226 105.563 183.776C104.983 183.327 104.561 182.726 104.298 181.972C104.036 181.219 103.904 180.272 103.904 179.131C103.904 177.824 104.036 176.746 104.298 175.896C104.561 175.039 104.983 174.358 105.563 173.853C106.144 173.348 106.898 172.996 107.824 172.795C108.75 172.595 109.877 172.495 111.204 172.495C112.151 172.495 112.97 172.564 113.662 172.702C114.36 172.84 114.954 173.041 115.445 173.303C115.943 173.566 116.344 173.884 116.648 174.257C116.959 174.631 117.201 175.025 117.374 175.44C117.554 175.847 117.675 176.328 117.737 176.881C117.806 177.434 117.841 178.018 117.841 178.633L117.675 179.297H105.895C105.895 180.209 105.985 180.959 106.165 181.547C106.345 182.128 106.642 182.553 107.057 182.822C107.471 183.092 108.017 183.265 108.695 183.341C109.372 183.41 110.209 183.445 111.204 183.445C112.117 183.445 112.87 183.42 113.465 183.372C114.066 183.317 114.543 183.216 114.896 183.071C115.248 182.926 115.494 182.726 115.632 182.47C115.777 182.207 115.85 181.868 115.85 181.454H117.841C117.841 182.097 117.726 182.646 117.498 183.102C117.277 183.552 116.907 183.918 116.389 184.202C115.87 184.478 115.186 184.679 114.336 184.803C113.492 184.934 112.449 185 111.204 185ZM111.204 174.154C110.541 174.154 109.946 174.168 109.421 174.195C108.902 174.223 108.446 174.285 108.052 174.382C107.665 174.472 107.333 174.607 107.057 174.786C106.78 174.959 106.555 175.166 106.383 175.408C106.217 175.643 106.092 175.979 106.009 176.414C105.933 176.843 105.895 177.361 105.895 177.97H115.85C115.85 177.161 115.763 176.528 115.59 176.072C115.418 175.609 115.145 175.229 114.771 174.931C114.398 174.634 113.918 174.43 113.33 174.32C112.742 174.209 112.034 174.154 111.204 174.154Z" fill="#38BDF8"/>
<path d="M133.104 184.772H131.113V178.032C131.113 177.313 131.065 176.708 130.968 176.217C130.878 175.72 130.688 175.319 130.398 175.014C130.114 174.71 129.71 174.492 129.184 174.361C128.666 174.223 127.982 174.154 127.131 174.154C126.198 174.154 125.431 174.233 124.829 174.392C124.228 174.544 123.754 174.762 123.409 175.046C123.063 175.322 122.821 175.657 122.683 176.051C122.552 176.445 122.486 176.884 122.486 177.368V184.772H120.495V172.827H122.486V174.714C122.493 174.693 122.524 174.624 122.579 174.506C122.635 174.389 122.731 174.251 122.87 174.092C123.015 173.926 123.208 173.749 123.45 173.563C123.699 173.376 124.017 173.203 124.404 173.044C124.798 172.885 125.272 172.754 125.825 172.65C126.378 172.547 127.035 172.495 127.795 172.495C128.542 172.495 129.188 172.543 129.734 172.64C130.287 172.73 130.757 172.868 131.144 173.055C131.538 173.234 131.856 173.462 132.098 173.739C132.347 174.009 132.544 174.32 132.689 174.672C132.807 174.486 132.99 174.268 133.239 174.019C133.488 173.77 133.833 173.532 134.276 173.303C134.725 173.075 135.285 172.885 135.956 172.733C136.626 172.574 137.445 172.495 138.413 172.495C139.208 172.495 139.889 172.55 140.456 172.661C141.03 172.764 141.513 172.923 141.907 173.138C142.302 173.345 142.616 173.604 142.851 173.915C143.093 174.226 143.276 174.589 143.401 175.004C143.532 175.412 143.618 175.872 143.66 176.383C143.701 176.888 143.722 177.437 143.722 178.032V184.772H141.731V178.032C141.731 177.313 141.683 176.708 141.586 176.217C141.496 175.72 141.306 175.319 141.016 175.014C140.732 174.71 140.328 174.492 139.803 174.361C139.284 174.223 138.6 174.154 137.749 174.154C136.816 174.154 136.049 174.233 135.447 174.392C134.846 174.544 134.373 174.762 134.027 175.046C133.681 175.322 133.439 175.657 133.301 176.051C133.17 176.445 133.104 176.884 133.104 177.368V184.772Z" fill="#38BDF8"/>
<path d="M147.04 172.827H149.031V184.772H147.04V172.827ZM149.031 170.836H147.04V168.845H149.031V170.836Z" fill="#38BDF8"/>
<path d="M164.253 184.772H166.908L160.79 178.685L166.617 172.827H163.963L159.514 177.441L154.962 172.827H152.308L158.135 178.695L152.017 184.772H154.672L159.463 179.774L164.253 184.772Z" fill="#38BDF8"/>
<path d="M92.6016 65H132.67C132.67 65 157.618 65 157.618 88.4362C157.618 108.47 142.12 108.47 142.12 108.47C142.12 108.47 155.35 109.982 155.35 126.237V140.601H135.694V126.237C135.694 126.237 135.694 115.652 126.244 115.652H92.6016V129.261H114.526C114.526 129.261 116.134 129.356 116.794 130.017C117.454 130.677 117.55 132.285 117.55 132.285V140.601H92.6016V129.261V115.652V99.7763H128.89C128.89 99.7763 137.962 100.532 137.962 89.9482C137.962 79.3641 127.756 80.1201 122.624 80.1201H92.6016V65Z" fill="#38BDF8"/>
</svg>
