<svg width="250" height="250" viewBox="0 0 250 250" fill="none" xmlns="http://www.w3.org/2000/svg">
<rect x="22" width="40" height="2" fill="#7DD8FF"/>
<rect y="62" width="40" height="2" transform="rotate(-90 0 62)" fill="#7DD8FF"/>
<rect y="21.9204" width="31" height="2" transform="rotate(-45 0 21.9204)" fill="#7DD8FF"/>
<rect x="228" y="250" width="40" height="2" transform="rotate(-180 228 250)" fill="#7DD8FF"/>
<rect x="250" y="188" width="40" height="2" transform="rotate(90 250 188)" fill="#7DD8FF"/>
<rect x="250" y="228.08" width="31" height="2" transform="rotate(135 250 228.08)" fill="#7DD8FF"/>
<path d="M55.5117 180H53.1094V165.598H44.6133V163.195H64.0078V165.598H55.5117V180ZM80.6836 180.598C80.6836 181.184 80.5742 181.73 80.3555 182.238C80.1367 182.746 79.8359 183.191 79.4531 183.574C79.0781 183.957 78.6328 184.258 78.1172 184.477C77.6094 184.695 77.0664 184.805 76.4883 184.805H66.8906V182.402H76.4883C76.7305 182.402 76.9609 182.355 77.1797 182.262C77.3984 182.168 77.5898 182.039 77.7539 181.875C77.918 181.711 78.0469 181.52 78.1406 181.301C78.2344 181.082 78.2812 180.848 78.2812 180.598V180H71.6836C70.7773 180 69.9258 179.828 69.1289 179.484C68.332 179.133 67.6367 178.66 67.043 178.066C66.457 177.465 65.9922 176.766 65.6484 175.969C65.3047 175.164 65.1328 174.309 65.1328 173.402V166.805H67.5352V173.402C67.5352 173.98 67.6406 174.523 67.8516 175.031C68.0703 175.531 68.3672 175.973 68.7422 176.355C69.1172 176.73 69.5547 177.031 70.0547 177.258C70.5625 177.477 71.1055 177.59 71.6836 177.598H78.2812V166.805H80.6836V180.598ZM99.7031 173.402C99.7031 174.309 99.5312 175.164 99.1875 175.969C98.8438 176.766 98.375 177.465 97.7812 178.066C97.1875 178.66 96.4922 179.133 95.6953 179.484C94.8984 179.828 94.0469 180 93.1406 180H87.75V177.598H93.1406C93.7188 177.59 94.2578 177.477 94.7578 177.258C95.2656 177.031 95.707 176.73 96.082 176.355C96.457 175.973 96.7539 175.531 96.9727 175.031C97.1914 174.523 97.3008 173.98 97.3008 173.402C97.3008 172.824 97.1914 172.281 96.9727 171.773C96.7539 171.258 96.457 170.812 96.082 170.438C95.707 170.055 95.2656 169.754 94.7578 169.535C94.2578 169.309 93.7188 169.195 93.1406 169.195H86.543V184.805H84.1406V166.805H93.1406C94.0469 166.812 94.8984 166.992 95.6953 167.344C96.4922 167.688 97.1875 168.16 97.7812 168.762C98.375 169.355 98.8438 170.051 99.1875 170.848C99.5312 171.645 99.7031 172.496 99.7031 173.402ZM117.668 171C117.668 171.586 117.559 172.133 117.34 172.641C117.121 173.148 116.82 173.594 116.438 173.977C116.062 174.352 115.617 174.648 115.102 174.867C114.594 175.086 114.051 175.195 113.473 175.195H104.273C104.445 175.547 104.66 175.871 104.918 176.168C105.176 176.465 105.465 176.719 105.785 176.93C106.105 177.141 106.453 177.305 106.828 177.422C107.211 177.539 107.609 177.598 108.023 177.598H115.875V180H108.023C107.117 179.992 106.266 179.816 105.469 179.473C104.672 179.121 103.977 178.648 103.383 178.055C102.797 177.453 102.332 176.754 101.988 175.957C101.645 175.16 101.473 174.309 101.473 173.402C101.473 172.496 101.645 171.645 101.988 170.848C102.332 170.051 102.797 169.355 103.383 168.762C103.977 168.16 104.672 167.688 105.469 167.344C106.266 166.992 107.117 166.812 108.023 166.805H113.473C114.051 166.805 114.594 166.914 115.102 167.133C115.617 167.352 116.062 167.652 116.438 168.035C116.82 168.41 117.121 168.852 117.34 169.359C117.559 169.867 117.668 170.414 117.668 171ZM113.473 172.805C113.715 172.805 113.945 172.758 114.164 172.664C114.383 172.57 114.574 172.441 114.738 172.277C114.902 172.113 115.031 171.922 115.125 171.703C115.219 171.484 115.266 171.25 115.266 171C115.266 170.758 115.219 170.527 115.125 170.309C115.031 170.09 114.902 169.898 114.738 169.734C114.574 169.57 114.383 169.441 114.164 169.348C113.945 169.246 113.715 169.195 113.473 169.195H108.023C107.492 169.195 106.992 169.289 106.523 169.477C106.062 169.664 105.648 169.922 105.281 170.25C104.922 170.57 104.621 170.953 104.379 171.398C104.145 171.836 103.992 172.305 103.922 172.805H113.473ZM133.805 175.805C133.805 176.383 133.695 176.93 133.477 177.445C133.258 177.953 132.957 178.398 132.574 178.781C132.199 179.156 131.754 179.453 131.238 179.672C130.73 179.891 130.188 180 129.609 180H119.402V177.598H129.609C129.852 177.598 130.082 177.551 130.301 177.457C130.52 177.363 130.711 177.234 130.875 177.07C131.039 176.906 131.168 176.719 131.262 176.508C131.355 176.289 131.402 176.055 131.402 175.805C131.402 175.562 131.355 175.332 131.262 175.113C131.168 174.895 131.039 174.703 130.875 174.539C130.711 174.375 130.52 174.246 130.301 174.152C130.082 174.051 129.852 174 129.609 174H123C122.5 174 122.031 173.906 121.594 173.719C121.156 173.531 120.773 173.277 120.445 172.957C120.125 172.629 119.871 172.246 119.684 171.809C119.496 171.371 119.402 170.902 119.402 170.402C119.402 169.902 119.496 169.434 119.684 168.996C119.871 168.559 120.125 168.18 120.445 167.859C120.773 167.531 121.156 167.273 121.594 167.086C122.031 166.898 122.5 166.805 123 166.805H132.609V169.195H123C122.664 169.195 122.379 169.312 122.145 169.547C121.918 169.773 121.805 170.059 121.805 170.402C121.805 170.738 121.918 171.023 122.145 171.258C122.379 171.484 122.664 171.598 123 171.598H129.609C130.188 171.598 130.73 171.707 131.238 171.926C131.754 172.145 132.199 172.445 132.574 172.828C132.957 173.211 133.258 173.656 133.477 174.164C133.695 174.672 133.805 175.219 133.805 175.805ZM149.836 180H141.984C141.078 179.992 140.227 179.816 139.43 179.473C138.633 179.121 137.938 178.648 137.344 178.055C136.758 177.453 136.293 176.754 135.949 175.957C135.605 175.16 135.434 174.309 135.434 173.402C135.434 172.496 135.605 171.645 135.949 170.848C136.293 170.043 136.758 169.344 137.344 168.75C137.938 168.148 138.633 167.676 139.43 167.332C140.227 166.98 141.078 166.805 141.984 166.805H149.836V169.195H141.984C141.406 169.203 140.863 169.32 140.355 169.547C139.855 169.766 139.418 170.066 139.043 170.449C138.668 170.824 138.371 171.266 138.152 171.773C137.941 172.281 137.836 172.824 137.836 173.402C137.836 173.98 137.941 174.523 138.152 175.031C138.371 175.539 138.668 175.984 139.043 176.367C139.418 176.742 139.855 177.043 140.355 177.27C140.863 177.488 141.406 177.598 141.984 177.598H149.836V180ZM165.574 169.195H156.574C156.324 169.195 156.09 169.246 155.871 169.348C155.652 169.441 155.461 169.57 155.297 169.734C155.133 169.898 155.004 170.09 154.91 170.309C154.816 170.527 154.77 170.758 154.77 171V180H152.367V171C152.367 170.414 152.477 169.867 152.695 169.359C152.914 168.852 153.215 168.41 153.598 168.035C153.98 167.652 154.426 167.352 154.934 167.133C155.441 166.914 155.988 166.805 156.574 166.805H165.574V169.195ZM170.508 163.805C170.508 164.055 170.461 164.289 170.367 164.508C170.273 164.719 170.145 164.906 169.98 165.07C169.816 165.234 169.625 165.363 169.406 165.457C169.188 165.551 168.957 165.598 168.715 165.598C168.465 165.598 168.23 165.551 168.012 165.457C167.793 165.363 167.602 165.234 167.438 165.07C167.273 164.906 167.145 164.719 167.051 164.508C166.957 164.289 166.91 164.055 166.91 163.805C166.91 163.562 166.957 163.332 167.051 163.113C167.145 162.895 167.273 162.703 167.438 162.539C167.602 162.375 167.793 162.246 168.012 162.152C168.23 162.051 168.465 162 168.715 162C168.957 162 169.188 162.051 169.406 162.152C169.625 162.246 169.816 162.375 169.98 162.539C170.145 162.703 170.273 162.895 170.367 163.113C170.461 163.332 170.508 163.562 170.508 163.805ZM169.91 180H167.508V166.805H169.91V180ZM188.93 173.402C188.93 174.309 188.758 175.164 188.414 175.969C188.07 176.766 187.602 177.465 187.008 178.066C186.414 178.66 185.719 179.133 184.922 179.484C184.125 179.828 183.273 180 182.367 180H176.977V177.598H182.367C182.945 177.59 183.484 177.477 183.984 177.258C184.492 177.031 184.934 176.73 185.309 176.355C185.684 175.973 185.98 175.531 186.199 175.031C186.418 174.523 186.527 173.98 186.527 173.402C186.527 172.824 186.418 172.281 186.199 171.773C185.98 171.258 185.684 170.812 185.309 170.438C184.934 170.055 184.492 169.754 183.984 169.535C183.484 169.309 182.945 169.195 182.367 169.195H175.77V184.805H173.367V166.805H182.367C183.273 166.812 184.125 166.992 184.922 167.344C185.719 167.688 186.414 168.16 187.008 168.762C187.602 169.355 188.07 170.051 188.414 170.848C188.758 171.645 188.93 172.496 188.93 173.402ZM196.055 180H193.652V169.195H190.055V166.805H193.652V162H196.055V166.805H204.457V169.195H196.055V180Z" fill="#7DD8FF"/>
<rect x="81" y="46" width="87" height="87" rx="13" stroke="#7DD8FF" stroke-width="2"/>
<path d="M100.538 87.3218H131.657V94.1313H120.652V125.909H111.733V94.1313H100.538V87.3218Z" fill="#7DD8FF"/>
<path d="M141.658 87.5935C144.9 86.0769 147.761 86.0769 150.431 86.0769C154.202 86.0769 159.967 87.5935 159.967 87.5935V95.5558C159.967 95.5558 154.436 92.9017 150.431 92.9017C147.415 92.9017 143.864 94.0754 143.947 97.0724C144.011 99.4279 148.142 101.433 148.142 101.433C148.142 101.433 153.677 103.76 156.915 105.793C160.539 108.068 161.778 111.421 161.492 115.651C161.243 119.353 160.348 121.718 156.915 123.993C153.833 126.035 151.575 126.136 147.761 126.457C141.277 127.002 134.983 124.372 134.983 124.372V116.03C134.983 116.03 141.858 119.632 146.617 119.632C149.287 119.632 151.999 118.298 152.147 115.651C152.274 113.388 150.539 112.162 148.524 111.101C145.282 109.395 143.756 109.205 140.895 107.499C136.831 105.075 134.513 101.775 134.792 97.0724C135.063 92.519 137.506 89.5358 141.658 87.5935Z" fill="#7DD8FF"/>
</svg>
