<svg width="250" height="250" viewBox="0 0 250 250" fill="none" xmlns="http://www.w3.org/2000/svg">
<rect x="22" width="40" height="3" fill="#38BDF8"/>
<rect y="62" width="40" height="3" transform="rotate(-90 0 62)" fill="#38BDF8"/>
<rect y="21.9204" width="31" height="3" transform="rotate(-45 0 21.9204)" fill="#38BDF8"/>
<rect x="228" y="250" width="40" height="3" transform="rotate(-180 228 250)" fill="#38BDF8"/>
<rect x="250" y="188" width="40" height="3" transform="rotate(90 250 188)" fill="#38BDF8"/>
<rect x="250" y="228.08" width="31" height="3" transform="rotate(135 250 228.08)" fill="#38BDF8"/>
<path d="M69.3745 163.695V165.304H61.6525V179.139H59.722V165.304H52V163.695H69.3745Z" fill="#38BDF8"/>
<path d="M77.4183 179.139H78.0618C77.9545 179.354 77.8573 179.558 77.7702 179.752C77.6898 179.947 77.5892 180.128 77.4685 180.295C77.3479 180.463 77.1971 180.614 77.0161 180.748C76.8351 180.882 76.5938 180.996 76.2921 181.09C75.9972 181.19 75.6285 181.264 75.1861 181.311C74.7437 181.365 74.2008 181.391 73.5573 181.391V183C74.308 183 74.9582 182.963 75.5079 182.889C76.0575 182.822 76.5301 182.722 76.9256 182.588C77.3278 182.46 77.6663 182.303 77.9411 182.115C78.2159 181.928 78.4539 181.713 78.655 181.472C78.8561 181.237 79.0337 180.976 79.1879 180.688C79.3488 180.406 79.5097 180.104 79.6705 179.783L79.9923 179.139L85.7838 167.556H83.5315L78.7053 177.852L73.5573 167.556H71.305L77.4183 179.139Z" fill="#38BDF8"/>
<path d="M94.7928 167.234C96.0798 167.234 97.1724 167.332 98.0706 167.526C98.9688 167.72 99.6995 168.052 100.263 168.521C100.826 168.991 101.235 169.621 101.489 170.412C101.744 171.196 101.871 172.181 101.871 173.368C101.871 174.534 101.744 175.503 101.489 176.273C101.235 177.044 100.826 177.658 100.263 178.114C99.6995 178.569 98.9688 178.891 98.0706 179.079C97.1724 179.266 96.0798 179.36 94.7928 179.36C93.8745 179.36 93.107 179.31 92.4903 179.209C91.8736 179.109 91.3675 178.985 90.972 178.837C90.5832 178.683 90.2849 178.519 90.0771 178.345C89.876 178.17 89.7319 178.006 89.6448 177.852V183H87.7143V167.556H89.6448V168.632C89.7319 168.498 89.876 168.35 90.0771 168.19C90.2849 168.022 90.5832 167.868 90.972 167.727C91.3675 167.586 91.8736 167.469 92.4903 167.375C93.107 167.281 93.8745 167.234 94.7928 167.234ZM94.7928 168.843C94.1493 168.843 93.5762 168.86 93.0734 168.893C92.5707 168.927 92.1283 168.997 91.7462 169.104C91.3641 169.205 91.039 169.356 90.7709 169.557C90.5095 169.751 90.295 170.016 90.1274 170.351C89.9598 170.68 89.8358 171.089 89.7554 171.578C89.6817 172.067 89.6448 172.654 89.6448 173.338C89.6448 174.028 89.6817 174.621 89.7554 175.117C89.8358 175.613 89.9598 176.029 90.1274 176.364C90.295 176.692 90.5095 176.957 90.7709 177.158C91.039 177.353 91.3641 177.504 91.7462 177.611C92.1283 177.711 92.5707 177.778 93.0734 177.812C93.5762 177.839 94.1493 177.852 94.7928 177.852C95.5435 177.852 96.1904 177.829 96.7333 177.782C97.283 177.735 97.7489 177.651 98.131 177.53C98.513 177.41 98.8214 177.242 99.056 177.028C99.2973 176.813 99.4816 176.542 99.609 176.213C99.7431 175.878 99.8302 175.479 99.8704 175.017C99.9173 174.547 99.9408 173.998 99.9408 173.368C99.9408 172.738 99.9173 172.188 99.8704 171.719C99.8302 171.249 99.7431 170.847 99.609 170.512C99.4816 170.177 99.2973 169.902 99.056 169.688C98.8214 169.473 98.513 169.302 98.131 169.175C97.7489 169.048 97.283 168.96 96.7333 168.913C96.1904 168.867 95.5435 168.843 94.7928 168.843Z" fill="#38BDF8"/>
<path d="M110.88 179.36C109.593 179.36 108.501 179.273 107.602 179.099C106.704 178.918 105.974 178.61 105.411 178.174C104.847 177.738 104.439 177.155 104.184 176.424C103.929 175.694 103.802 174.775 103.802 173.669C103.802 172.402 103.929 171.357 104.184 170.532C104.439 169.701 104.847 169.041 105.411 168.551C105.974 168.062 106.704 167.72 107.602 167.526C108.501 167.332 109.593 167.234 110.88 167.234C111.799 167.234 112.593 167.301 113.263 167.435C113.94 167.569 114.517 167.764 114.993 168.019C115.475 168.273 115.864 168.582 116.159 168.944C116.461 169.306 116.695 169.688 116.863 170.09C117.037 170.485 117.154 170.951 117.215 171.487C117.282 172.024 117.315 172.59 117.315 173.187L117.154 173.83H105.732C105.732 174.715 105.819 175.442 105.994 176.012C106.168 176.575 106.456 176.987 106.858 177.249C107.261 177.51 107.79 177.678 108.447 177.752C109.104 177.819 109.915 177.852 110.88 177.852C111.765 177.852 112.496 177.829 113.072 177.782C113.655 177.728 114.118 177.631 114.46 177.49C114.802 177.349 115.04 177.155 115.174 176.907C115.314 176.652 115.385 176.324 115.385 175.922H117.315C117.315 176.545 117.205 177.078 116.984 177.52C116.769 177.956 116.41 178.311 115.908 178.586C115.405 178.854 114.741 179.049 113.917 179.169C113.099 179.297 112.087 179.36 110.88 179.36ZM110.88 168.843C110.237 168.843 109.66 168.856 109.151 168.883C108.648 168.91 108.206 168.97 107.824 169.064C107.448 169.151 107.127 169.282 106.858 169.456C106.59 169.624 106.372 169.825 106.205 170.06C106.044 170.288 105.923 170.613 105.843 171.035C105.769 171.451 105.732 171.953 105.732 172.543H115.385C115.385 171.759 115.301 171.146 115.133 170.703C114.966 170.254 114.701 169.885 114.339 169.597C113.977 169.309 113.511 169.111 112.942 169.004C112.372 168.897 111.685 168.843 110.88 168.843Z" fill="#38BDF8"/>
<path d="M126.646 173.86C127.397 173.86 128.037 173.874 128.567 173.901C129.096 173.921 129.538 173.961 129.894 174.021C130.256 174.075 130.541 174.145 130.748 174.232C130.956 174.32 131.114 174.45 131.221 174.625C131.328 174.792 131.395 174.963 131.422 175.137C131.456 175.305 131.472 175.499 131.472 175.72C131.472 175.962 131.456 176.183 131.422 176.384C131.395 176.578 131.325 176.756 131.211 176.917C131.097 177.078 130.929 177.215 130.708 177.329C130.487 177.443 130.185 177.54 129.803 177.621C129.421 177.701 128.945 177.762 128.375 177.802C127.812 177.835 127.129 177.852 126.324 177.852C125.44 177.852 124.706 177.829 124.122 177.782C123.546 177.728 123.087 177.631 122.745 177.49C122.403 177.349 122.162 177.155 122.021 176.907C121.887 176.652 121.82 176.324 121.82 175.922H119.889C119.889 176.532 119.997 177.048 120.211 177.47C120.432 177.892 120.794 178.238 121.297 178.506C121.8 178.767 122.46 178.958 123.278 179.079C124.102 179.199 125.118 179.26 126.324 179.26C127.29 179.26 128.134 179.23 128.858 179.169C129.589 179.116 130.215 179.032 130.738 178.918C131.261 178.797 131.694 178.643 132.035 178.455C132.384 178.261 132.659 178.033 132.86 177.772C133.061 177.504 133.202 177.199 133.282 176.857C133.363 176.508 133.403 176.116 133.403 175.68C133.403 175.245 133.363 174.862 133.282 174.534C133.202 174.199 133.061 173.911 132.86 173.669C132.665 173.421 132.404 173.193 132.076 172.986C131.747 172.778 131.332 172.624 130.829 172.523C130.326 172.423 129.73 172.352 129.039 172.312C128.355 172.272 127.558 172.252 126.646 172.252C125.895 172.252 125.255 172.252 124.726 172.252C124.196 172.245 123.75 172.225 123.388 172.191C123.033 172.151 122.752 172.094 122.544 172.02C122.336 171.947 122.178 171.839 122.071 171.699C121.964 171.558 121.894 171.38 121.86 171.166C121.833 170.945 121.82 170.72 121.82 170.492C121.82 170.103 121.907 169.798 122.081 169.577C122.256 169.356 122.544 169.192 122.946 169.084C123.348 168.977 123.878 168.91 124.535 168.883C125.191 168.856 126.003 168.843 126.968 168.843C127.853 168.843 128.583 168.87 129.16 168.924C129.743 168.97 130.205 169.061 130.547 169.195C130.889 169.322 131.127 169.5 131.261 169.728C131.402 169.956 131.472 170.251 131.472 170.613H133.403C133.403 170.03 133.306 169.527 133.111 169.104C132.917 168.682 132.575 168.334 132.086 168.059C131.603 167.777 130.946 167.569 130.115 167.435C129.29 167.301 128.241 167.234 126.968 167.234C125.681 167.234 124.588 167.291 123.69 167.405C122.792 167.519 122.061 167.707 121.498 167.968C120.935 168.223 120.526 168.558 120.271 168.974C120.017 169.383 119.889 169.889 119.889 170.492C119.889 170.934 119.93 171.347 120.01 171.729C120.09 172.104 120.228 172.423 120.422 172.684C120.617 172.939 120.878 173.143 121.206 173.297C121.542 173.451 121.957 173.572 122.453 173.659C122.956 173.74 123.553 173.793 124.243 173.82C124.933 173.847 125.734 173.86 126.646 173.86Z" fill="#38BDF8"/>
<path d="M135.655 173.368C135.655 172.563 135.695 171.853 135.776 171.236C135.856 170.619 135.997 170.083 136.198 169.627C136.406 169.172 136.681 168.793 137.023 168.491C137.371 168.183 137.807 167.935 138.33 167.747C138.859 167.559 139.486 167.425 140.21 167.345C140.934 167.264 141.778 167.224 142.744 167.224C144.031 167.224 145.09 167.305 145.921 167.466C146.752 167.62 147.409 167.861 147.892 168.19C148.374 168.511 148.709 168.924 148.897 169.426C149.085 169.922 149.179 170.516 149.179 171.206H147.248C147.248 170.958 147.241 170.727 147.228 170.512C147.215 170.298 147.164 170.103 147.077 169.929C146.997 169.755 146.866 169.601 146.685 169.466C146.504 169.326 146.246 169.208 145.911 169.115C145.576 169.021 145.15 168.95 144.634 168.903C144.124 168.856 143.494 168.833 142.744 168.833C141.886 168.833 141.162 168.863 140.572 168.924C139.989 168.984 139.506 169.084 139.124 169.225C138.742 169.359 138.447 169.544 138.239 169.778C138.031 170.006 137.881 170.288 137.787 170.623C137.693 170.958 137.636 171.353 137.616 171.809C137.602 172.258 137.596 172.778 137.596 173.368C137.596 173.944 137.602 174.457 137.616 174.906C137.636 175.348 137.693 175.737 137.787 176.072C137.881 176.401 138.031 176.679 138.239 176.907C138.447 177.135 138.742 177.319 139.124 177.46C139.506 177.601 139.989 177.701 140.572 177.762C141.162 177.822 141.886 177.852 142.744 177.852C143.494 177.852 144.124 177.825 144.634 177.772C145.15 177.718 145.576 177.641 145.911 177.54C146.246 177.44 146.504 177.316 146.685 177.168C146.866 177.021 146.997 176.853 147.077 176.666C147.164 176.471 147.215 176.26 147.228 176.032C147.241 175.798 147.248 175.546 147.248 175.278H149.179C149.179 175.982 149.085 176.592 148.897 177.108C148.709 177.624 148.374 178.05 147.892 178.385C147.409 178.713 146.752 178.958 145.921 179.119C145.09 179.28 144.031 179.36 142.744 179.36C141.778 179.36 140.934 179.32 140.21 179.24C139.486 179.159 138.859 179.028 138.33 178.847C137.807 178.66 137.371 178.415 137.023 178.114C136.681 177.812 136.406 177.44 136.198 176.997C135.997 176.555 135.856 176.036 135.776 175.439C135.695 174.836 135.655 174.145 135.655 173.368Z" fill="#38BDF8"/>
<path d="M161.737 171.327C161.737 170.844 161.7 170.445 161.626 170.13C161.559 169.808 161.395 169.554 161.134 169.366C160.872 169.172 160.483 169.037 159.967 168.964C159.458 168.883 158.761 168.843 157.876 168.843C157.011 168.843 156.307 168.92 155.764 169.074C155.222 169.222 154.796 169.433 154.488 169.708C154.179 169.983 153.968 170.311 153.854 170.693C153.747 171.075 153.693 171.501 153.693 171.97V179.139H151.763V167.556H153.693V169.396C153.76 169.188 153.884 168.96 154.065 168.712C154.246 168.458 154.521 168.223 154.89 168.009C155.258 167.787 155.734 167.603 156.317 167.456C156.907 167.308 157.641 167.234 158.519 167.234C159.525 167.234 160.343 167.325 160.973 167.506C161.603 167.68 162.092 167.942 162.441 168.29C162.796 168.632 163.034 169.058 163.155 169.567C163.282 170.076 163.346 170.663 163.346 171.327H161.737Z" fill="#38BDF8"/>
<path d="M165.276 167.556H167.207V179.139H165.276V167.556ZM167.207 165.626H165.276V163.695H167.207V165.626Z" fill="#38BDF8"/>
<path d="M177.503 167.234C178.79 167.234 179.882 167.332 180.781 167.526C181.679 167.72 182.409 168.052 182.972 168.521C183.536 168.991 183.944 169.621 184.199 170.412C184.454 171.196 184.581 172.181 184.581 173.368C184.581 174.534 184.454 175.503 184.199 176.273C183.944 177.044 183.536 177.658 182.972 178.114C182.409 178.569 181.679 178.891 180.781 179.079C179.882 179.266 178.79 179.36 177.503 179.36C176.584 179.36 175.817 179.31 175.2 179.209C174.584 179.109 174.077 178.985 173.682 178.837C173.293 178.683 172.995 178.519 172.787 178.345C172.586 178.17 172.442 178.006 172.355 177.852V183H170.424V167.556H172.355V168.632C172.442 168.498 172.586 168.35 172.787 168.19C172.995 168.022 173.293 167.868 173.682 167.727C174.077 167.586 174.584 167.469 175.2 167.375C175.817 167.281 176.584 167.234 177.503 167.234ZM177.503 168.843C176.859 168.843 176.286 168.86 175.783 168.893C175.281 168.927 174.838 168.997 174.456 169.104C174.074 169.205 173.749 169.356 173.481 169.557C173.219 169.751 173.005 170.016 172.837 170.351C172.67 170.68 172.546 171.089 172.465 171.578C172.392 172.067 172.355 172.654 172.355 173.338C172.355 174.028 172.392 174.621 172.465 175.117C172.546 175.613 172.67 176.029 172.837 176.364C173.005 176.692 173.219 176.957 173.481 177.158C173.749 177.353 174.074 177.504 174.456 177.611C174.838 177.711 175.281 177.778 175.783 177.812C176.286 177.839 176.859 177.852 177.503 177.852C178.253 177.852 178.9 177.829 179.443 177.782C179.993 177.735 180.459 177.651 180.841 177.53C181.223 177.41 181.531 177.242 181.766 177.028C182.007 176.813 182.192 176.542 182.319 176.213C182.453 175.878 182.54 175.479 182.58 175.017C182.627 174.547 182.651 173.998 182.651 173.368C182.651 172.738 182.627 172.188 182.58 171.719C182.54 171.249 182.453 170.847 182.319 170.512C182.192 170.177 182.007 169.902 181.766 169.688C181.531 169.473 181.223 169.302 180.841 169.175C180.459 169.048 179.993 168.96 179.443 168.913C178.9 168.867 178.253 168.843 177.503 168.843Z" fill="#38BDF8"/>
<path d="M198.095 173.991C198.095 174.976 198.014 175.801 197.853 176.465C197.693 177.121 197.421 177.648 197.039 178.043C196.664 178.439 196.168 178.72 195.551 178.888C194.934 179.055 194.173 179.139 193.268 179.139C192.39 179.139 191.653 179.072 191.056 178.938C190.46 178.804 189.977 178.576 189.609 178.254C189.24 177.933 188.975 177.504 188.814 176.967C188.653 176.431 188.573 175.761 188.573 174.956V169.145H186.19V167.556H188.573V164.389H190.503V167.556H197.773V169.145H190.503V174.956C190.503 175.6 190.55 176.096 190.644 176.444C190.745 176.793 190.902 177.048 191.117 177.209C191.331 177.369 191.613 177.463 191.961 177.49C192.317 177.517 192.749 177.53 193.258 177.53C193.661 177.53 194.019 177.524 194.334 177.51C194.656 177.497 194.934 177.457 195.169 177.39C195.41 177.316 195.615 177.209 195.782 177.068C195.95 176.92 196.084 176.716 196.184 176.454C196.292 176.193 196.369 175.865 196.416 175.469C196.463 175.067 196.486 174.574 196.486 173.991H198.095Z" fill="#38BDF8"/>
<rect x="89.3926" y="64" width="71.3076" height="71.3076" rx="13" stroke="#38BDF8" stroke-width="2"/>
<path d="M105.31 97.8596H130.942V103.469H121.877V129.643H114.531V103.469H105.31V97.8596Z" fill="#38BDF8"/>
<path d="M139.179 98.0834C141.849 96.8342 144.206 96.8342 146.405 96.8342C149.511 96.8342 154.259 98.0834 154.259 98.0834V104.642C154.259 104.642 149.704 102.456 146.405 102.456C143.92 102.456 140.996 103.422 141.064 105.891C141.117 107.831 144.52 109.483 144.52 109.483C144.52 109.483 149.078 111.399 151.746 113.074C154.731 114.948 155.751 117.709 155.516 121.194C155.31 124.243 154.573 126.191 151.746 128.065C149.207 129.747 147.347 129.83 144.206 130.095C138.865 130.544 133.681 128.377 133.681 128.377V121.506C133.681 121.506 139.344 124.473 143.263 124.473C145.462 124.473 147.696 123.374 147.819 121.194C147.923 119.33 146.494 118.32 144.834 117.446C142.163 116.041 140.907 115.885 138.55 114.479C135.203 112.483 133.293 109.765 133.524 105.891C133.746 102.14 135.759 99.6832 139.179 98.0834Z" fill="#38BDF8"/>
</svg>
