<svg width="250" height="250" viewBox="0 0 250 250" fill="none" xmlns="http://www.w3.org/2000/svg">
<path d="M22 0H62V3H22V0Z" fill="#38BDF8"/>
<path d="M0 62L0 22H3L3 62H0Z" fill="#38BDF8"/>
<path d="M0 21.9204L21.9203 0.000100315L24.0416 2.12142L2.12132 24.0417L0 21.9204Z" fill="#38BDF8"/>
<path d="M228 250H188V247H228V250Z" fill="#38BDF8"/>
<path d="M250 188V228H247V188H250Z" fill="#38BDF8"/>
<path d="M250 228.08L228.08 250L225.958 247.879L247.879 225.958L250 228.08Z" fill="#38BDF8"/>
<path d="M61.5512 167.57H54.9512V165.53H71.0612V167.57H64.4912V185H61.5512V167.57Z" fill="#38BDF8"/>
<path d="M77.57 185.21L71.96 170.48H74.9L78.95 182.33H79.01L82.67 170.48H85.4L78.11 191.24H75.29L77.57 185.21Z" fill="#38BDF8"/>
<path d="M87.9188 170.48H90.5888V172.04H90.6188C90.8388 170.8 92.4888 170.18 95.5688 170.18C97.4088 170.18 98.7988 170.57 99.7388 171.35C100.679 172.11 101.149 173.09 101.149 174.29V180.26C101.149 181.12 101.019 181.87 100.759 182.51C100.519 183.15 100.199 183.65 99.7988 184.01C99.4388 184.35 98.9388 184.62 98.2988 184.82C97.6788 185.02 97.0588 185.15 96.4388 185.21C95.8788 185.27 95.1988 185.3 94.3988 185.3C93.5188 185.3 92.7088 185.2 91.9688 185C91.2488 184.78 90.7988 184.47 90.6188 184.07V191.24H87.9188V170.48ZM94.4588 183.47C95.4988 183.47 96.2888 183.4 96.8288 183.26C97.3888 183.1 97.7888 182.82 98.0288 182.42C98.2688 182.02 98.3888 181.41 98.3888 180.59V175.25C98.3888 174.35 98.2688 173.68 98.0288 173.24C97.7888 172.8 97.3888 172.51 96.8288 172.37C96.2888 172.21 95.4888 172.13 94.4288 172.13C93.3688 172.13 92.5788 172.21 92.0588 172.37C91.5388 172.51 91.1688 172.8 90.9488 173.24C90.7288 173.66 90.6188 174.33 90.6188 175.25V180.59C90.6188 181.41 90.7288 182.02 90.9488 182.42C91.1888 182.82 91.5788 183.1 92.1188 183.26C92.6588 183.4 93.4388 183.47 94.4588 183.47Z" fill="#38BDF8"/>
<path d="M111.412 185.3C106.972 185.3 104.752 183.82 104.752 180.86V175.13C104.752 173.37 105.252 172.11 106.252 171.35C107.272 170.57 108.912 170.18 111.172 170.18C113.312 170.18 114.852 170.55 115.792 171.29C116.752 172.03 117.232 173.31 117.232 175.13V178.34H107.482V180.53C107.482 181.53 107.832 182.25 108.532 182.69C109.232 183.13 110.312 183.35 111.772 183.35C113.152 183.35 114.782 183.11 116.662 182.63V184.7C114.822 185.1 113.072 185.3 111.412 185.3ZM114.532 176.57V174.29C114.532 173.41 114.262 172.81 113.722 172.49C113.202 172.15 112.302 171.98 111.022 171.98C109.782 171.98 108.882 172.15 108.322 172.49C107.762 172.81 107.482 173.41 107.482 174.29V176.57H114.532Z" fill="#38BDF8"/>
<path d="M125.787 185.3C124.247 185.3 122.587 185.18 120.807 184.94V182.87C123.147 183.25 124.827 183.44 125.847 183.44C127.127 183.44 128.047 183.32 128.607 183.08C129.167 182.82 129.447 182.35 129.447 181.67V180.2C129.447 179.58 129.237 179.14 128.817 178.88C128.397 178.62 127.717 178.49 126.777 178.49H125.127C123.627 178.49 122.477 178.18 121.677 177.56C120.897 176.94 120.507 176.07 120.507 174.95V173.6C120.507 171.32 122.667 170.18 126.987 170.18C127.307 170.18 128.777 170.26 131.397 170.42V172.37C129.617 172.09 128.107 171.95 126.867 171.95C125.447 171.95 124.477 172.09 123.957 172.37C123.437 172.65 123.177 173.12 123.177 173.78V175.01C123.177 175.99 124.067 176.48 125.847 176.48H127.527C130.587 176.48 132.117 177.62 132.117 179.9V181.16C132.117 182.66 131.597 183.73 130.557 184.37C129.517 184.99 127.927 185.3 125.787 185.3Z" fill="#38BDF8"/>
<path d="M141.699 185.3C140.699 185.3 139.969 185.28 139.509 185.24C139.069 185.2 138.559 185.1 137.979 184.94C137.359 184.78 136.879 184.54 136.539 184.22C136.199 183.9 135.909 183.43 135.669 182.81C135.429 182.21 135.309 181.46 135.309 180.56V175.22C135.309 173.6 135.619 172.44 136.239 171.74C136.579 171.34 136.919 171.04 137.259 170.84C137.619 170.62 138.079 170.47 138.639 170.39C139.199 170.31 139.699 170.26 140.139 170.24C140.579 170.2 141.199 170.18 141.999 170.18C143.379 170.18 144.759 170.33 146.139 170.63V172.61C144.539 172.21 143.049 172.01 141.669 172.01C140.629 172.01 139.859 172.09 139.359 172.25C138.879 172.39 138.539 172.66 138.339 173.06C138.159 173.44 138.069 174.03 138.069 174.83V180.77C138.069 181.51 138.169 182.06 138.369 182.42C138.589 182.78 138.969 183.04 139.509 183.2C140.069 183.34 140.889 183.41 141.969 183.41C143.429 183.41 144.889 183.22 146.349 182.84V184.88C144.989 185.16 143.439 185.3 141.699 185.3Z" fill="#38BDF8"/>
<path d="M149.765 170.48H152.315V172.85C152.315 172.39 152.515 171.96 152.915 171.56C153.315 171.14 153.825 170.81 154.445 170.57C155.065 170.31 155.675 170.18 156.275 170.18H157.595V172.49H156.095C154.815 172.49 153.885 172.66 153.305 173C152.745 173.32 152.465 173.91 152.465 174.77V185H149.765V170.48Z" fill="#38BDF8"/>
<path d="M160.282 165.23H162.982V168.05H160.282V165.23ZM160.282 170.48H162.982V185H160.282V170.48Z" fill="#38BDF8"/>
<path d="M167.665 170.48H170.335V172.04H170.365C170.585 170.8 172.235 170.18 175.315 170.18C177.155 170.18 178.545 170.57 179.485 171.35C180.425 172.11 180.895 173.09 180.895 174.29V180.26C180.895 181.12 180.765 181.87 180.505 182.51C180.265 183.15 179.945 183.65 179.545 184.01C179.185 184.35 178.685 184.62 178.045 184.82C177.425 185.02 176.805 185.15 176.185 185.21C175.625 185.27 174.945 185.3 174.145 185.3C173.265 185.3 172.455 185.2 171.715 185C170.995 184.78 170.545 184.47 170.365 184.07V191.24H167.665V170.48ZM174.205 183.47C175.245 183.47 176.035 183.4 176.575 183.26C177.135 183.1 177.535 182.82 177.775 182.42C178.015 182.02 178.135 181.41 178.135 180.59V175.25C178.135 174.35 178.015 173.68 177.775 173.24C177.535 172.8 177.135 172.51 176.575 172.37C176.035 172.21 175.235 172.13 174.175 172.13C173.115 172.13 172.325 172.21 171.805 172.37C171.285 172.51 170.915 172.8 170.695 173.24C170.475 173.66 170.365 174.33 170.365 175.25V180.59C170.365 181.41 170.475 182.02 170.695 182.42C170.935 182.82 171.325 183.1 171.865 183.26C172.405 183.4 173.185 183.47 174.205 183.47Z" fill="#38BDF8"/>
<path d="M191.128 185.3C189.888 185.3 188.918 185.17 188.218 184.91C187.518 184.63 187.008 184.17 186.688 183.53C186.388 182.87 186.238 181.95 186.238 180.77V172.25H182.998V170.48H186.238V165.98H188.968V170.48H194.158V172.25H188.968V180.92C188.968 181.64 189.048 182.18 189.208 182.54C189.388 182.9 189.688 183.16 190.108 183.32C190.548 183.46 191.178 183.53 191.998 183.53C192.258 183.53 192.978 183.45 194.158 183.29V185.06C193.138 185.22 192.128 185.3 191.128 185.3Z" fill="#38BDF8"/>
<path fill-rule="evenodd" clip-rule="evenodd" d="M155 47H94C87.3726 47 82 52.3726 82 59V120C82 126.627 87.3726 132 94 132H155C161.627 132 167 126.627 167 120V59C167 52.3726 161.627 47 155 47ZM94 45C86.268 45 80 51.268 80 59V120C80 127.732 86.268 134 94 134H155C162.732 134 169 127.732 169 120V59C169 51.268 162.732 45 155 45H94Z" fill="#38BDF8"/>
<path d="M100.538 87.3218H131.657V94.1313H120.652V125.909H111.733V94.1313H100.538V87.3218Z" fill="#38BDF8"/>
<path d="M141.658 87.5935C144.9 86.0769 147.761 86.0769 150.431 86.0769C154.202 86.0769 159.967 87.5935 159.967 87.5935V95.5558C159.967 95.5558 154.436 92.9017 150.431 92.9017C147.415 92.9017 143.864 94.0754 143.947 97.0724C144.011 99.4279 148.142 101.433 148.142 101.433C148.142 101.433 153.677 103.76 156.915 105.793C160.539 108.068 161.778 111.421 161.492 115.651C161.243 119.353 160.348 121.718 156.915 123.993C153.833 126.035 151.575 126.136 147.761 126.457C141.277 127.002 134.983 124.372 134.983 124.372V116.03C134.983 116.03 141.858 119.632 146.617 119.632C149.287 119.632 151.999 118.298 152.147 115.651C152.274 113.388 150.539 112.162 148.524 111.101C145.282 109.395 143.756 109.205 140.895 107.499C136.831 105.075 134.513 101.775 134.792 97.0724C135.063 92.519 137.506 89.5358 141.658 87.5935Z" fill="#38BDF8"/>
</svg>
